<?xml version="1.0" standalone="no"?>
<!DOCTYPE svg PUBLIC "-//W3C//DTD SVG 1.1//EN" "http://www.w3.org/Graphics/SVG/1.1/DTD/svg11.dtd" >
<svg xmlns="http://www.w3.org/2000/svg" xmlns:xlink="http://www.w3.org/1999/xlink" version="1.1">
<metadata>
Created by FontForge 20201107 at Wed Jul 22 21:33:01 2020
 By www-data
Copyright 2018 The Cabin Project Authors (https://github.com/impallari/Cabin)
</metadata>
<defs>
<font id="CabinCondensed-SemiBold" horiz-adv-x="0" >
  <font-face 
    font-family="Cabin Condensed SemiBold"
    font-weight="600"
    font-stretch="condensed"
    units-per-em="2000"
    panose-1="0 0 0 0 0 0 0 0 0 0"
    ascent="1600"
    descent="-400"
    x-height="993"
    cap-height="1400"
    bbox="-390 -586 2234 2248"
    underline-thickness="50"
    underline-position="-125"
    unicode-range="U+000D-25CA"
  />
<missing-glyph horiz-adv-x="1206" 
d="M100 0v1400h1006v-1400h-1006zM260 140h686v1120h-686v-1120z" />
    <glyph glyph-name=".notdef" horiz-adv-x="1206" 
d="M100 0v1400h1006v-1400h-1006zM260 140h686v1120h-686v-1120z" />
    <glyph glyph-name=".null" 
 />
    <glyph glyph-name="nonmarkingreturn" horiz-adv-x="666" 
 />
    <glyph glyph-name="CR" unicode="&#xd;" horiz-adv-x="387" 
 />
    <glyph glyph-name="space" unicode=" " horiz-adv-x="387" 
 />
    <glyph glyph-name="exclam" unicode="!" horiz-adv-x="467" 
d="M142 387v56l-25 957h232l-24 -957v-56h-183zM119 0v250h228v-250h-228z" />
    <glyph glyph-name="quotedbl" unicode="&#x22;" horiz-adv-x="629" 
d="M90 993l-35 407h213l-35 -407h-143zM395 993l-35 407h213l-35 -407h-143z" />
    <glyph glyph-name="numbersign" unicode="#" horiz-adv-x="1219" 
d="M112 -22l145 448h-203l75 185h192l68 224h-207l55 185h217l126 380h163l-123 -380h191l122 380h168l-123 -380h189l-58 -185h-196l-68 -224h215l-78 -185h-201l-145 -448h-166l141 448h-188l-146 -448h-165zM484 611h190l73 224h-191z" />
    <glyph glyph-name="dollar" unicode="$" horiz-adv-x="1008" 
d="M477 -28q-71 0 -142.5 10.5t-136.5 29.5t-115 43l28 247q59 -34 121.5 -59t128 -39t132.5 -14q105 0 165.5 42.5t60.5 124.5q0 61 -29.5 104.5t-93 82t-166.5 84.5q-111 50 -190.5 104t-121.5 126.5t-42 180.5q0 114 56.5 202t161.5 137.5t249 49.5q106 0 196.5 -23
t161.5 -57l-23 -237q-93 49 -178 74t-174 25q-97 0 -153.5 -39t-56.5 -122q0 -61 35 -101.5t101 -75.5t160 -79q114 -54 191 -112.5t116 -133.5t39 -177q0 -91 -33 -164.5t-95 -125.5t-151 -80t-202 -28zM457 -288l20 356h142l20 -356h-182zM477 1346l-20 342h182l-20 -342
h-142z" />
    <glyph glyph-name="percent" unicode="%" horiz-adv-x="1569" 
d="M366 628q-96 0 -163 52.5t-101.5 144t-34.5 209.5q0 179 77.5 286.5t221.5 107.5q143 0 220.5 -107.5t77.5 -286.5q0 -118 -34.5 -209.5t-101.5 -144t-162 -52.5zM366 785q60 0 88 65t28 184q0 120 -28.5 178.5t-87.5 58.5t-88 -58.5t-29 -178.5q0 -119 28 -184t89 -65z
M325 0l732 1400h179l-730 -1400h-181zM1204 -28q-96 0 -163 52.5t-101.5 144t-34.5 209.5q0 179 77.5 286.5t221.5 107.5q143 0 220.5 -107.5t77.5 -286.5q0 -118 -34.5 -209.5t-101.5 -144t-162 -52.5zM1204 129q60 0 88 65t28 184q0 120 -28.5 178.5t-87.5 58.5t-88 -58.5
t-29 -178.5q0 -119 28 -184t89 -65z" />
    <glyph glyph-name="ampersand" unicode="&#x26;" horiz-adv-x="1080" 
d="M456 -47q-138 0 -226.5 52.5t-131 139t-42.5 187.5q0 86 29.5 157t77 131t102.5 113q-49 87 -89 172t-40 170q0 104 50 178.5t130 113.5t170 39q132 0 204 -76.5t72 -197.5q0 -91 -35.5 -162.5t-91 -129.5t-115.5 -109l235 -345q5 32 7.5 73.5t3.5 85.5t1.5 85.5
t1.5 72.5h208q1 -57 -5 -138t-23.5 -169.5t-53.5 -170.5l183 -225h-253l-52 77q-56 -62 -133.5 -93t-183.5 -31zM488 123q60 0 102 24t72 63l-294 399q-38 -49 -61.5 -113.5t-23.5 -144.5q0 -58 16.5 -110t60.5 -85t128 -33zM429 845q40 44 72 83t51 80.5t19 92.5
q0 68 -25.5 98.5t-68.5 30.5q-55 0 -90.5 -40.5t-35.5 -122.5q0 -48 19.5 -101t58.5 -121z" />
    <glyph glyph-name="quotesingle" unicode="'" horiz-adv-x="323" 
d="M90 993l-35 407h213l-35 -407h-143z" />
    <glyph glyph-name="parenleft" unicode="(" horiz-adv-x="558" 
d="M337 -272q-60 109 -112.5 236t-85 286.5t-32.5 363.5t32.5 363.5t85 286.5t112.5 236h182q-81 -165 -138 -380t-57 -506t57 -506t138 -380h-182z" />
    <glyph glyph-name="parenright" unicode=")" horiz-adv-x="558" 
d="M39 -272q81 165 138 380t57 506t-57 506t-138 380h182q60 -109 113 -236t85 -286.5t32 -363.5t-32 -363.5t-85 -286.5t-113 -236h-182z" />
    <glyph glyph-name="asterisk" unicode="*" horiz-adv-x="792" 
d="M51 971l245 149l-243 147l72 110l219 -152l-12 274h128l-12 -274l219 152l72 -110l-242 -147l244 -149l-72 -110l-221 153l12 -279h-128l12 279l-221 -153z" />
    <glyph glyph-name="plus" unicode="+" horiz-adv-x="804" 
d="M311 202v269h-240v172h240v269h182v-269h240v-172h-240v-269h-182z" />
    <glyph glyph-name="comma" unicode="," horiz-adv-x="398" 
d="M201 -231h-101l81 231h-89v250h228v-227z" />
    <glyph glyph-name="hyphen" unicode="-" horiz-adv-x="702" 
d="M84 531v182h534v-182h-534z" />
    <glyph glyph-name="period" unicode="." horiz-adv-x="378" 
d="M75 0v250h228v-250h-228z" />
    <glyph glyph-name="slash" unicode="/" horiz-adv-x="643" 
d="M-17 -170l503 1570h212l-503 -1570h-212z" />
    <glyph glyph-name="zero" unicode="0" horiz-adv-x="1212" 
d="M606 -28q-155 0 -268.5 93.5t-175.5 260t-62 386.5q0 213 63.5 374.5t177.5 251.5t265 90q153 0 267 -90.5t176.5 -251.5t62.5 -374q0 -220 -61.5 -386.5t-175.5 -260t-269 -93.5zM606 195q81 0 142.5 56t95.5 170.5t34 290.5q0 249 -76 371t-196 122q-116 0 -194 -121.5
t-78 -371.5q0 -175 34.5 -289.5t95.5 -171t142 -56.5z" />
    <glyph glyph-name="one" unicode="1" horiz-adv-x="641" 
d="M248 0v1070q-41 -38 -80 -58.5t-78 -31.5l-19 202q47 15 94 48.5t84 77.5t57 92h164v-1400h-222z" />
    <glyph glyph-name="two" unicode="2" horiz-adv-x="901" 
d="M96 0l290 544q63 119 100 202t53 147t16 128q0 88 -47 136t-129 48q-66 0 -126.5 -29t-109.5 -67l-24 218q68 46 148 73.5t175 27.5q115 0 192 -50.5t116 -135.5t39 -187q0 -87 -20 -168.5t-65 -181.5t-120 -241l-133 -248h365v-216h-720z" />
    <glyph glyph-name="three" unicode="3" horiz-adv-x="913" 
d="M381 -28q-94 0 -176 20.5t-153 59.5l57 204q59 -39 119 -58t132 -19q102 0 162 55t60 157q0 109 -61.5 168.5t-178.5 59.5h-51v215h50q96 0 144.5 54.5t48.5 148.5q0 86 -45 135t-130 49q-62 0 -116.5 -20t-106.5 -52l-36 210q56 30 131.5 49.5t164.5 19.5
q117 0 199.5 -46.5t126.5 -128.5t44 -189q0 -134 -68 -224t-191 -130l-1 46q139 -28 223 -121t84 -248q0 -131 -55 -224t-152.5 -142t-224.5 -49z" />
    <glyph glyph-name="four" unicode="4" horiz-adv-x="966" 
d="M550 0v328h-539l607 1072h154v-888h127v-184h-127v-328h-222zM293 458l-16 54h273v621l69 -67z" />
    <glyph glyph-name="five" unicode="5" horiz-adv-x="913" 
d="M393 -27q-91 0 -169.5 22.5t-142.5 59.5l55 211q54 -32 112 -52.5t129 -20.5q104 0 167 65.5t63 176.5q0 121 -68 186.5t-189 65.5q-52 0 -101 -7.5t-97 -20.5l89 741h537l-13 -220h-350l-50 -409l-100 85q37 13 78.5 19t86.5 6q123 0 214 -54t141.5 -152.5t50.5 -232.5
q0 -146 -57.5 -250.5t-157.5 -161.5t-228 -57z" />
    <glyph glyph-name="six" unicode="6" horiz-adv-x="945" 
d="M486 -28q-127 0 -215.5 62.5t-135 175.5t-46.5 263q0 166 46 314.5t122 273t165.5 218.5t176.5 150l155 -135q-60 -41 -123 -95t-120 -120.5t-102 -146t-71.5 -172.5t-26.5 -200l-86 90q38 90 113.5 140.5t187.5 50.5q101 0 180 -54.5t125 -150.5t46 -220
q0 -134 -47 -233.5t-135 -155t-209 -55.5zM489 169q82 0 126 68.5t44 172.5q0 103 -44 168.5t-126 65.5q-83 0 -127 -65.5t-44 -169.5t44 -172t127 -68z" />
    <glyph glyph-name="seven" unicode="7" horiz-adv-x="857" 
d="M163 0l416 1275l29 -79h-543v204h775l-452 -1400h-225z" />
    <glyph glyph-name="eight" unicode="8" horiz-adv-x="1045" 
d="M521 -28q-132 0 -226 55t-144.5 152.5t-50.5 223.5q0 127 52.5 222.5t147 149t221.5 53.5q128 0 223 -53.5t147.5 -149t52.5 -222.5q0 -126 -51 -223.5t-146 -152.5t-226 -55zM521 175q97 0 149.5 67t52.5 175q0 103 -53 169.5t-149 66.5t-147.5 -66.5t-51.5 -169.5
q0 -108 51.5 -175t147.5 -67zM521 682q-102 0 -183 47.5t-128.5 131t-47.5 193.5q0 91 36.5 177t115 141.5t207.5 55.5q130 0 209 -55.5t114.5 -141.5t35.5 -177q0 -110 -43 -193.5t-124 -131t-192 -47.5zM521 857q74 0 110.5 57t36.5 135q0 84 -36.5 136.5t-110.5 52.5
t-111 -52.5t-37 -136.5q0 -78 37 -135t111 -57z" />
    <glyph glyph-name="nine" unicode="9" horiz-adv-x="945" 
d="M346 -28l-156 135q61 42 124 95.5t120 120t102 146t71 173t26 200.5l87 -90q-37 -90 -113 -141t-188 -51q-101 0 -180 55t-125 151t-46 219q0 134 47.5 233.5t135 155t208.5 55.5q127 0 215.5 -62.5t135 -175.5t46.5 -263q0 -166 -46.5 -314.5t-122 -273t-165.5 -218.5
t-176 -150zM456 757q83 0 127 66t44 169q0 106 -44 173t-127 67q-81 0 -126 -68t-45 -173q0 -102 45 -168t126 -66z" />
    <glyph glyph-name="colon" unicode=":" horiz-adv-x="378" 
d="M75 743v250h228v-250h-228zM75 0v250h228v-250h-228z" />
    <glyph glyph-name="semicolon" unicode=";" horiz-adv-x="395" 
d="M201 -231h-101l81 231h-89v250h228v-227zM91 728v250h228v-250h-228z" />
    <glyph glyph-name="less" unicode="&#x3c;" horiz-adv-x="704" 
d="M664 140l-604 319v195l604 321v-192l-449 -226l449 -225v-192z" />
    <glyph glyph-name="equal" unicode="=" horiz-adv-x="804" 
d="M71 628v173h662v-173h-662zM71 307v173h662v-173h-662z" />
    <glyph glyph-name="greater" unicode="&#x3e;" horiz-adv-x="704" 
d="M40 140l604 319v195l-604 321v-192l449 -226l-449 -225v-192z" />
    <glyph glyph-name="question" unicode="?" horiz-adv-x="864" 
d="M229 387v32q0 79 20 137t54.5 107.5t78.5 102.5q65 78 103.5 136.5t38.5 134.5q0 57 -25 96.5t-70 60t-106 20.5q-62 0 -115.5 -14t-103.5 -36l-24 204q66 28 140.5 44t173.5 16q119 0 202.5 -47.5t127.5 -127.5t44 -179q0 -73 -23 -130.5t-62.5 -110t-88.5 -111.5
q-69 -84 -106 -144t-37 -147v-44h-222zM226 0v250h228v-250h-228z" />
    <glyph glyph-name="at" unicode="@" horiz-adv-x="1214" 
d="M496 -174q-195 0 -310.5 135.5t-115.5 378.5q0 164 52 303.5t142.5 243t207 161.5t246.5 58q203 0 315.5 -137.5t112.5 -368.5q0 -101 -24 -195.5t-77.5 -155.5t-142.5 -61q-31 0 -52.5 17.5t-21.5 84.5q0 89 31.5 198.5t64.5 269.5q-33 39 -85 72.5t-123 33.5
q-81 0 -159.5 -48t-141.5 -129t-101 -180t-38 -201q0 -58 15.5 -109.5t49.5 -84t91 -32.5q50 0 108 26.5t111.5 78.5t90.5 127q-1 -12 -2.5 -29.5t-1.5 -40.5q0 -32 9 -69t30.5 -63t60.5 -26q31 0 72.5 18.5t82 47.5t67.5 62l6 -4q-56 -113 -143.5 -199t-196.5 -134.5
t-230 -48.5zM490 212q-40 0 -58 38.5t-18 95.5q0 82 31 153.5t80 126t103.5 85.5t101.5 31q15 0 41.5 -6t36.5 -38q-12 -80 -46.5 -165t-81.5 -158t-97 -118t-93 -45z" />
    <glyph glyph-name="A" unicode="A" horiz-adv-x="1074" 
d="M793 350h-512v205h512v-205zM511 1147h50l-331 -1147h-227l428 1400h211l428 -1400h-226z" />
    <glyph glyph-name="B" unicode="B" horiz-adv-x="1103" 
d="M132 0v1400h432q176 0 267 -86t91 -254q0 -126 -45.5 -214t-138.5 -124v53q140 -33 216 -126.5t76 -249.5q0 -187 -106.5 -293t-292.5 -106h-499zM354 204h243q91 0 145.5 48.5t54.5 163.5q0 125 -56.5 171.5t-143.5 46.5h-243v-430zM354 835h173q89 0 130 41t41 141
q0 99 -41 139t-130 40h-173v-361z" />
    <glyph glyph-name="C" unicode="C" horiz-adv-x="1048" 
d="M686 -28q-182 0 -323.5 89t-222 252t-80.5 387t81.5 387.5t223 252t321.5 88.5q95 0 172 -18t138 -46l-25 -218q-60 28 -119 46t-133 18q-132 0 -225 -64t-141 -179t-48 -267t48.5 -267t141 -179t224.5 -64q74 0 133.5 17.5t118.5 44.5l25 -218q-59 -28 -137.5 -45
t-172.5 -17z" />
    <glyph glyph-name="D" unicode="D" horiz-adv-x="1238" 
d="M132 0v1400h451q171 0 305.5 -83.5t211 -240t76.5 -376.5t-76.5 -376.5t-211 -240t-305.5 -83.5h-451zM354 204h217q119 0 199.5 60t120.5 171t40 265t-40 265.5t-120.5 171t-199.5 59.5h-217v-992z" />
    <glyph glyph-name="E" unicode="E" horiz-adv-x="980" 
d="M132 0v1400h773v-204h-551v-361h428v-204h-428v-427h568v-204h-790z" />
    <glyph glyph-name="F" unicode="F" horiz-adv-x="904" 
d="M132 0v1400h742v-204h-520v-360h401v-204h-401v-632h-222z" />
    <glyph glyph-name="G" unicode="G" horiz-adv-x="1142" 
d="M696 -28q-194 0 -337 91.5t-221 255.5t-78 381q0 224 83.5 387.5t228 252t328.5 88.5q99 0 178.5 -18t143.5 -46l-25 -218q-63 28 -126 46t-144 18q-135 0 -229.5 -64t-143.5 -179t-49 -267q0 -155 45.5 -270t136.5 -177.5t226 -62.5q33 0 66.5 5.5t60.5 15.5v287h-167
v204h389v-632q-66 -44 -162 -71t-204 -27z" />
    <glyph glyph-name="H" unicode="H" horiz-adv-x="1272" 
d="M132 0v1400h222v-563h564v563h222v-1400h-222v619h-564v-619h-222z" />
    <glyph glyph-name="I" unicode="I" horiz-adv-x="483" 
d="M130 0v1400h222v-1400h-222z" />
    <glyph glyph-name="J" unicode="J" horiz-adv-x="485" 
d="M12 -344l-18 197q75 0 105.5 31.5t30.5 112.5v1403h222v-1454q0 -148 -81 -219t-217 -71h-42z" />
    <glyph glyph-name="K" unicode="K" horiz-adv-x="1053" 
d="M793 0l-432 741l432 659h258l-441 -659l441 -741h-258zM129 0v1400h222v-1400h-222z" />
    <glyph glyph-name="L" unicode="L" horiz-adv-x="860" 
d="M132 0v1400h222v-1196h494v-204h-716z" />
    <glyph glyph-name="M" unicode="M" horiz-adv-x="1445" 
d="M80 0l167 1400h183l293 -652l292 652h183l167 -1400h-232l-114 1073l73 -12l-369 -776l-369 775l72 12l-114 -1072h-232z" />
    <glyph glyph-name="N" unicode="N" horiz-adv-x="1216" 
d="M132 0v1400h235l495 -928v928h222v-1400h-198l-532 985v-985h-222z" />
    <glyph glyph-name="O" unicode="O" horiz-adv-x="1307" 
d="M654 -28q-172 0 -306 90t-211 253.5t-77 384.5t77 384.5t211 253.5t306 90t306.5 -90t210.5 -253.5t76 -384.5t-76 -384.5t-210.5 -253.5t-306.5 -90zM654 195q119 0 198 66t119 180.5t40 258.5t-39.5 258.5t-119.5 180.5t-198 66t-197.5 -66t-119.5 -180.5t-40 -258.5
t40 -258.5t119.5 -180.5t197.5 -66z" />
    <glyph glyph-name="P" unicode="P" horiz-adv-x="1028" 
d="M130 0v1400h391q141 0 246.5 -50.5t163.5 -152.5t58 -257t-58 -257.5t-163.5 -153t-246.5 -50.5h-169v-479h-222zM352 675h149q126 0 192 63t66 202q0 132 -66 198t-192 66h-149v-529z" />
    <glyph glyph-name="Q" unicode="Q" horiz-adv-x="1307" 
d="M670 399l142 140l437 -427l-142 -140zM654 -28q-172 0 -306 90t-211 253.5t-77 384.5t77 384.5t211 253.5t306 90t306.5 -90t210.5 -253.5t76 -384.5t-76 -384.5t-210.5 -253.5t-306.5 -90zM654 195q119 0 198 66t119 180.5t40 258.5t-39.5 258.5t-119.5 180.5t-198 66
t-197.5 -66t-119.5 -180.5t-40 -258.5t40 -258.5t119.5 -180.5t197.5 -66z" />
    <glyph glyph-name="R" unicode="R" horiz-adv-x="1077" 
d="M131 0v1400h390q142 0 247 -45.5t163 -140.5t58 -245q0 -128 -54 -224.5t-151 -152.5l272 -592h-253l-236 530q-8 0 -17.5 -0.5t-19.5 -0.5h-177v-529h-222zM353 725h148q128 0 192.5 57.5t64.5 181.5t-64.5 182t-192.5 58h-148v-479z" />
    <glyph glyph-name="S" unicode="S" horiz-adv-x="1008" 
d="M477 -28q-71 0 -142.5 10.5t-136.5 29.5t-115 43l28 247q59 -34 121.5 -59t128 -39t132.5 -14q105 0 165.5 42.5t60.5 124.5q0 61 -29.5 104.5t-93 82t-166.5 84.5q-111 50 -190.5 104t-121.5 126.5t-42 180.5q0 114 56.5 202t161.5 137.5t249 49.5q106 0 196.5 -23
t161.5 -57l-23 -237q-93 49 -178 74t-174 25q-97 0 -153.5 -39t-56.5 -122q0 -61 35 -101.5t101 -75.5t160 -79q114 -54 191 -112.5t116 -133.5t39 -177q0 -91 -33 -164.5t-95 -125.5t-151 -80t-202 -28z" />
    <glyph glyph-name="T" unicode="T" horiz-adv-x="952" 
d="M365 0v1196h-340v204h902v-204h-340v-1196h-222z" />
    <glyph glyph-name="U" unicode="U" horiz-adv-x="1238" 
d="M619 -28q-172 0 -282.5 70.5t-164 199t-53.5 303.5v855h222v-794q0 -89 11 -165t40.5 -132.5t84 -87.5t142.5 -31t143 31t84 88t39.5 132.5t10.5 164.5v794h223v-855q0 -175 -53.5 -303.5t-164.5 -199t-282 -70.5z" />
    <glyph glyph-name="V" unicode="V" horiz-adv-x="1145" 
d="M442 0l-439 1400h227l373 -1217h-61l373 1217h226l-438 -1400h-261z" />
    <glyph glyph-name="W" unicode="W" horiz-adv-x="1635" 
d="M327 0l-324 1400h227l221 -1073l246 1046h241l245 -1046l222 1073h226l-323 -1400h-241l-250 1044l-249 -1044h-241z" />
    <glyph glyph-name="X" unicode="X" horiz-adv-x="1095" 
d="M3 0l427 713l-411 687h240l289 -488l289 488h240l-411 -687l426 -713h-239l-305 515l-305 -515h-240z" />
    <glyph glyph-name="Y" unicode="Y" horiz-adv-x="1044" 
d="M408 0v615l-419 785h240l337 -662h-93l333 662h240l-417 -785v-615h-221z" />
    <glyph glyph-name="Z" unicode="Z" horiz-adv-x="956" 
d="M14 0l627 1273l39 -78h-587v205h837l-625 -1273l-38 78h671v-205h-924z" />
    <glyph glyph-name="bracketleft" unicode="[" horiz-adv-x="576" 
d="M116 -271v1771h442v-188h-245v-1395h245v-188h-442z" />
    <glyph glyph-name="backslash" unicode="\" horiz-adv-x="744" 
d="M503 -170l-448 1570h209l449 -1570h-210z" />
    <glyph glyph-name="bracketright" unicode="]" horiz-adv-x="586" 
d="M28 -271v219h245v1333h-245v219h442v-1771h-442z" />
    <glyph glyph-name="asciicircum" unicode="^" horiz-adv-x="868" 
d="M80 830v261l354 427l354 -427v-261l-354 400z" />
    <glyph glyph-name="underscore" unicode="_" horiz-adv-x="960" 
d="M-2 -254v182h964v-182h-964z" />
    <glyph glyph-name="grave" unicode="`" horiz-adv-x="787" 
d="M546 1158l-306 123v224l306 -196v-151z" />
    <glyph glyph-name="a" unicode="a" horiz-adv-x="854" 
d="M295 -20q-72 0 -131.5 33t-95 96t-35.5 151t34 150.5t89.5 104t120 66t128 36t110.5 12.5q0 102 -34 144.5t-116 42.5q-62 0 -119 -20.5t-121 -60.5l-18 182q73 46 152 69.5t159 23.5q98 0 169 -37.5t109 -120t38 -217.5v-296q0 -73 6 -111t22 -52t45 -14h29l-18 -182
h-82q-47 0 -84 15.5t-64 43.5t-43 67q-48 -57 -108 -91.5t-142 -34.5zM367 153q42 0 80 25.5t69 68.5v230q-71 -6 -129 -27.5t-92 -63t-34 -107.5q0 -67 29.5 -96.5t76.5 -29.5z" />
    <glyph glyph-name="b" unicode="b" horiz-adv-x="985" 
d="M556 -20q-97 0 -174 43t-126 122l58 40l-13 -185h-201v1500h217v-683l-53 35q50 72 123 115t169 43q125 0 211 -71t130 -188.5t44 -255.5q0 -141 -45 -258t-131 -187t-209 -70zM515 161q65 0 111 44t70.5 119t24.5 171q0 97 -24.5 172.5t-70.5 118.5t-111 43
q-68 0 -115.5 -40.5t-72 -115t-24.5 -178.5q0 -105 24.5 -179.5t72 -114.5t115.5 -40z" />
    <glyph glyph-name="c" unicode="c" horiz-adv-x="770" 
d="M514 -20q-155 0 -258.5 69.5t-155.5 186t-52 257.5q0 143 51.5 260.5t156.5 187t265 69.5q60 0 112 -11t89 -29l-21 -180q-35 18 -75.5 28.5t-85.5 10.5q-129 0 -200 -91t-71 -242q0 -146 70.5 -240.5t201.5 -94.5q46 0 86 10t78 30l19 -179q-38 -18 -93.5 -30
t-116.5 -12z" />
    <glyph glyph-name="d" unicode="d" horiz-adv-x="985" 
d="M437 -20q-124 0 -213 69.5t-136.5 186.5t-47.5 258q0 139 46.5 256.5t135.5 188.5t215 71q96 0 165.5 -41t119.5 -109l-57 -42v682h217v-1500h-201l-20 184l68 -43q-52 -76 -122.5 -118.5t-169.5 -42.5zM466 161q69 0 116.5 39.5t71.5 114t24 179.5q0 104 -24 179
t-71.5 115.5t-116.5 40.5q-63 0 -109 -43t-71 -118.5t-25 -173.5q0 -95 25 -170.5t71 -119t109 -43.5z" />
    <glyph glyph-name="e" unicode="e" horiz-adv-x="887" 
d="M515 -20q-156 0 -260 71.5t-155.5 189t-51.5 258.5q0 142 49 258t143.5 184.5t231.5 68.5q112 0 194.5 -52t128 -149t45.5 -231q0 -27 -3 -56t-8 -60h-559q8 -103 44.5 -169.5t94.5 -98t127 -31.5q71 0 137 19.5t119 52.5l10 -191q-52 -28 -124.5 -46t-162.5 -18z
M275 614h345q0 60 -15 108t-49.5 76.5t-92.5 28.5q-77 0 -124.5 -53.5t-63.5 -159.5z" />
    <glyph glyph-name="f" unicode="f" horiz-adv-x="585" 
d="M151 0v812h-120l18 181h102v230q0 121 67 199t205 78q40 0 73 -5.5t58 -15.5l-19 -181q-14 5 -29.5 8t-34.5 3q-49 0 -76 -32t-27 -87v-197h187v-181h-187v-812h-217z" />
    <glyph glyph-name="g" unicode="g" horiz-adv-x="858" 
d="M438 -500q-116 0 -205 32t-140 93.5t-51 149.5q0 78 42 135.5t111 101.5q-46 24 -67.5 58t-21.5 78q0 47 26 81.5t73 59.5q-73 53 -113 140.5t-40 191.5q0 108 42.5 196.5t122 140.5t191.5 52q66 0 121 -18.5t98 -53.5q38 35 80.5 53.5t86.5 18.5q17 0 29 -1t21 -3
l-18 -149q-7 2 -16.5 3t-23.5 1q-20 0 -39.5 -3.5t-39.5 -12.5q28 -47 42.5 -104t14.5 -120q0 -108 -42.5 -197.5t-122 -143.5t-191.5 -54q-22 0 -43.5 2.5t-41.5 6.5q-24 -14 -24 -37q0 -22 19.5 -35t61.5 -25l182 -45q155 -40 226.5 -104.5t71.5 -184.5q0 -94 -54.5 -162
t-149.5 -105t-218 -37zM446 -333q95 0 156.5 31.5t61.5 92.5q0 52 -35.5 80t-120.5 50l-168 45q-51 -32 -84.5 -70.5t-33.5 -89.5q0 -69 62 -104t162 -35zM408 391q75 0 115 63.5t40 165.5q0 98 -40 161.5t-115 63.5q-76 0 -115.5 -63.5t-39.5 -161.5q0 -102 39.5 -165.5
t115.5 -63.5z" />
    <glyph glyph-name="h" unicode="h" horiz-adv-x="950" 
d="M97 0v1500h217v-653l-60 -3q46 78 118.5 122t175.5 44q104 0 172.5 -49.5t103 -137.5t34.5 -205v-618h-217v590q0 116 -36 176.5t-115 60.5q-73 0 -124.5 -45t-84.5 -122l33 137v-797h-217z" />
    <glyph glyph-name="i" unicode="i" horiz-adv-x="413" 
d="M98 0v993h217v-993h-217zM98 1169v231h217v-231h-217z" />
    <glyph glyph-name="j" unicode="j" horiz-adv-x="414" 
d="M15 -484l-19 180q39 2 61.5 15.5t32 46t9.5 90.5v1145h217v-1212q0 -90 -27.5 -146t-81 -84t-130.5 -31zM99 1169v231h217v-231h-217z" />
    <glyph glyph-name="k" unicode="k" horiz-adv-x="841" 
d="M97 0v1500h217v-923l263 416h250l-306 -465l313 -528h-250l-270 470v-470h-217z" />
    <glyph glyph-name="l" unicode="l" horiz-adv-x="456" 
d="M319 -20q-77 0 -125.5 33t-71.5 90.5t-23 129.5v1267h216v-1177q0 -65 7.5 -100t30 -48t65.5 -13l-20 -182h-79z" />
    <glyph glyph-name="m" unicode="m" horiz-adv-x="1493" 
d="M100 0v993h183l17 -146l-43 -3q43 78 115 122t169 44q72 0 127.5 -25.5t93.5 -73t57 -111.5l-55 19q39 88 119 139.5t192 51.5q114 0 186 -49.5t106 -138t34 -204.5v-618h-216v590q0 115 -34.5 176t-121.5 61q-41 0 -72.5 -13.5t-53.5 -40t-33 -65.5t-11 -90v-618h-217
v590q0 77 -15.5 130t-48.5 80t-85 27q-73 0 -125 -45t-84 -122l33 137v-797h-217z" />
    <glyph glyph-name="n" unicode="n" horiz-adv-x="952" 
d="M100 0v993h187l16 -146l-46 -3q45 78 118 122t175 44q156 0 233.5 -108.5t77.5 -283.5v-618h-217v590q0 117 -36.5 178t-114.5 61q-73 0 -125 -45.5t-84 -123.5l33 137v-797h-217z" />
    <glyph glyph-name="o" unicode="o" horiz-adv-x="969" 
d="M484 -20q-138 0 -235.5 70t-149 187t-51.5 258t51.5 258t149 187t235.5 70t236 -70t149.5 -187t51.5 -258t-51.5 -258t-149.5 -187t-236 -70zM484 161q104 0 160 91.5t56 243.5q0 151 -56 242t-160 91q-102 0 -158.5 -91t-56.5 -243q0 -151 56.5 -242.5t158.5 -91.5z" />
    <glyph glyph-name="p" unicode="p" horiz-adv-x="981" 
d="M98 -484v1477h172l42 -187l-65 29q57 80 129 127.5t176 47.5q125 0 211.5 -70t131 -187t44.5 -258t-44 -258t-130 -187t-213 -70q-103 0 -174 39t-126 120l63 42v-665h-217zM511 161q98 0 153 91.5t55 243.5q0 151 -55 242t-153 91q-64 0 -112 -40.5t-74 -115t-26 -178.5
q0 -105 26 -179.5t74 -114.5t112 -40z" />
    <glyph glyph-name="q" unicode="q" horiz-adv-x="986" 
d="M723 -484v665l75 -40q-51 -77 -123.5 -119t-176.5 -42q-131 0 -220 70t-134.5 187t-45.5 258q0 138 46 255.5t135.5 188.5t218.5 71q107 0 178.5 -44.5t124.5 -122.5l-75 -37l48 187h165v-1477h-216zM527 161q67 0 114.5 39.5t72.5 114t25 180.5q0 156 -55.5 245
t-156.5 89q-99 0 -153.5 -91t-54.5 -243q0 -151 54.5 -242.5t153.5 -91.5z" />
    <glyph glyph-name="r" unicode="r" horiz-adv-x="580" 
d="M99 0v993h186l18 -127q56 70 108.5 107t121.5 37q27 0 50 -6l-18 -226q-13 4 -28 6.5t-35 2.5q-55 0 -101.5 -28t-85.5 -73v-686h-216z" />
    <glyph glyph-name="s" unicode="s" horiz-adv-x="731" 
d="M351 -20q-86 0 -155 19t-135 55l22 199q62 -45 126 -71.5t126 -26.5q69 0 107 27t38 78q0 37 -16.5 62.5t-56 50t-109.5 57.5q-74 35 -125 74t-77.5 92t-26.5 131q0 83 40 147t113.5 100t175.5 36q81 0 143.5 -19.5t114.5 -50.5l-22 -191q-51 41 -102.5 66t-118.5 25
q-61 0 -98 -26.5t-37 -75.5q0 -54 43.5 -83.5t137.5 -76.5q58 -29 102 -59t72.5 -65.5t42.5 -79t14 -100.5q0 -92 -41.5 -158t-118 -101t-179.5 -35z" />
    <glyph glyph-name="t" unicode="t" horiz-adv-x="597" 
d="M385 -20q-77 0 -128.5 31t-77.5 87.5t-26 133.5v580h-120l20 181h100v228l217 23v-251h187v-181h-187v-515q0 -48 12 -77.5t38.5 -43.5t68.5 -14h69l-20 -182h-153z" />
    <glyph glyph-name="u" unicode="u" horiz-adv-x="941" 
d="M399 -17q-105 0 -172.5 47t-101 131.5t-33.5 198.5v633h217v-604q0 -106 34 -165t113 -59q72 0 123 45.5t82 122.5l-32 -137v797h216v-993h-187l-16 146l46 3q-44 -78 -116 -122t-173 -44z" />
    <glyph glyph-name="v" unicode="v" horiz-adv-x="874" 
d="M339 0l-334 993h228l204 -713l204 713h227l-333 -993h-196z" />
    <glyph glyph-name="w" unicode="w" horiz-adv-x="1246" 
d="M275 0l-270 993h226l149 -717l149 693h189l154 -693l144 717h225l-269 -993h-195l-154 673l-153 -673h-195z" />
    <glyph glyph-name="x" unicode="x" horiz-adv-x="839" 
d="M12 0l284 496l-284 497h245l168 -328l157 328h244l-287 -492l287 -501h-245l-168 327l-156 -327h-245z" />
    <glyph glyph-name="y" unicode="y" horiz-adv-x="934" 
d="M157 -484l204 529l-348 948h228l229 -698l222 698h228l-539 -1477h-224z" />
    <glyph glyph-name="z" unicode="z" horiz-adv-x="806" 
d="M36 0l456 892l5 -85h-436v186h710l-456 -892l-12 85h456v-186h-723z" />
    <glyph glyph-name="braceleft" unicode="{" horiz-adv-x="563" 
d="M501 -272q-171 0 -246.5 87.5t-75.5 225.5q0 62 8 140.5t8 145.5q0 108 -36 161t-132 53v146q96 0 132 53t36 161q0 68 -8 146.5t-8 139.5q0 138 75.5 225.5t246.5 87.5h54v-176h-34q-80 0 -125 -44t-45 -153q0 -64 8 -143.5t8 -142.5q0 -114 -56.5 -168t-151.5 -80v42
q95 -24 151.5 -79t56.5 -169q0 -63 -8 -142t-8 -144q0 -108 45 -152.5t125 -44.5h34v-176h-54z" />
    <glyph glyph-name="bar" unicode="|" horiz-adv-x="447" 
d="M115 -419v1919h217v-1919h-217z" />
    <glyph glyph-name="braceright" unicode="}" horiz-adv-x="563" 
d="M8 -272v176h34q81 0 125.5 44.5t44.5 152.5q0 65 -8 144t-8 142q0 114 56.5 169t151.5 79v-42q-95 26 -151.5 80t-56.5 168q0 63 8 142.5t8 143.5q0 109 -44.5 153t-125.5 44h-34v176h54q171 0 247 -87.5t76 -225.5q0 -61 -8.5 -139.5t-8.5 -146.5q0 -108 36 -161
t132 -53v-146q-96 0 -132 -53t-36 -161q0 -67 8.5 -145.5t8.5 -140.5q0 -138 -76 -225.5t-247 -87.5h-54z" />
    <glyph glyph-name="asciitilde" unicode="~" horiz-adv-x="830" 
d="M573 586q-59 0 -104 23t-87 45.5t-91 22.5q-67 0 -67 -84h-157q5 125 54.5 190.5t140.5 65.5q60 0 104.5 -22.5t84.5 -45.5t88 -23q66 0 66 84h158q-4 -124 -52.5 -190t-137.5 -66z" />
    <glyph glyph-name="uni00A0" unicode="&#xa0;" horiz-adv-x="387" 
 />
    <glyph glyph-name="exclamdown" unicode="&#xa1;" horiz-adv-x="455" 
d="M142 613v-56l-25 -957h232l-24 957v56h-183zM119 1000v-250h228v250h-228z" />
    <glyph glyph-name="cent" unicode="&#xa2;" horiz-adv-x="770" 
d="M514 -20q-155 0 -258.5 69.5t-155.5 186t-52 257.5q0 143 51.5 260.5t156.5 187t265 69.5q60 0 112 -11t89 -29l-21 -180q-35 18 -75.5 28.5t-85.5 10.5q-129 0 -200 -91t-71 -242q0 -146 70.5 -240.5t201.5 -94.5q46 0 86 10t78 30l19 -179q-38 -18 -93.5 -30
t-116.5 -12zM377 -288l20 356h142l20 -356h-182zM397 929l-20 342h182l-20 -342h-142z" />
    <glyph glyph-name="sterling" unicode="&#xa3;" horiz-adv-x="920" 
d="M88 0q40 110 67 206t45 198.5t32 231.5l35 336q22 216 111.5 336t268.5 120q63 0 116.5 -13.5t106.5 -37.5l-20 -239q-44 37 -86 55.5t-91 18.5q-85 0 -130 -59t-57 -173l-34 -328q-14 -130 -30.5 -222.5t-40.5 -170t-60 -161.5l-58 106h617v-204h-792zM90 628v164h682
v-164h-682z" />
    <glyph glyph-name="currency" unicode="&#xa4;" horiz-adv-x="1332" 
d="M666 1210q142 0 251 -67t170.5 -183.5t61.5 -263.5t-61 -263.5t-169.5 -183.5t-252.5 -67q-146 0 -254.5 68t-168.5 184t-60 262q0 147 61.5 263.5t170 183.5t251.5 67zM666 1008q-82 0 -139 -40t-87 -111t-30 -161t30 -160.5t87 -111t139 -40.5q83 0 140 40.5t86.5 111
t29.5 160.5t-29.5 161t-86.5 111t-140 40zM184 1315l273 -273l-92 -93l-274 275zM366 445l92 -93l-274 -275l-93 91zM961 448l280 -280l-93 -91l-279 281zM1148 1315l93 -91l-271 -273l-93 93z" />
    <glyph glyph-name="yen" unicode="&#xa5;" horiz-adv-x="1042" 
d="M411 0v615l-418 785h239l337 -662h-92l333 662h239l-417 -785v-615h-221zM136 265v164h772v-164h-772zM136 546v165h772v-165h-772z" />
    <glyph glyph-name="brokenbar" unicode="&#xa6;" horiz-adv-x="450" 
d="M116 684v816h218v-816h-218zM116 -420v816h218v-816h-218z" />
    <glyph glyph-name="section" unicode="&#xa7;" horiz-adv-x="917" 
d="M413 -169q-84 0 -160 24.5t-126 55.5l21 180q59 -38 134 -66t141 -28q78 0 125.5 34.5t48.5 99.5q1 59 -36 96t-96.5 64.5t-126.5 55t-126.5 66t-97 98.5t-37.5 152q0 98 51.5 171t135.5 124q-43 33 -72 92t-29 141q0 85 38 155.5t113.5 112t187.5 41.5q87 0 164.5 -26
t124.5 -55l-21 -180q-59 39 -135 67t-142 28q-69 0 -118 -31t-49 -89q0 -54 37 -90t95.5 -64.5t124.5 -59t124.5 -73t96 -105.5t37.5 -157q0 -53 -18.5 -106.5t-59.5 -102t-108 -83.5q51 -36 74.5 -89.5t23.5 -128.5q0 -74 -30 -148.5t-104 -125t-206 -50.5zM556 453
q47 23 79.5 70t32.5 108q0 58 -36.5 100.5t-102.5 78t-151 72.5q-50 -22 -90.5 -65.5t-40.5 -117.5q0 -60 36 -102t105 -75.5t168 -68.5z" />
    <glyph glyph-name="dieresis" unicode="&#xa8;" horiz-adv-x="901" 
d="M525 1182v173h177v-173h-177zM200 1182v173h177v-173h-177z" />
    <glyph glyph-name="copyright" unicode="&#xa9;" horiz-adv-x="1204" 
d="M602 74q-154 0 -274.5 82t-190 229.5t-69.5 344.5q0 198 69.5 345.5t190 229t274.5 81.5q155 0 275.5 -81.5t189.5 -229t69 -345.5q0 -197 -69 -344.5t-189.5 -229.5t-275.5 -82zM617 385q-82 0 -146 42.5t-100.5 119t-36.5 179.5q0 156 79.5 249.5t203.5 93.5
q47 0 94 -12t82 -31l-18 -152q-40 19 -77.5 31t-80.5 12q-60 0 -92 -52t-32 -139q0 -83 32 -137t92 -54q43 0 80.5 13t77.5 33l18 -150q-35 -22 -82.5 -34t-93.5 -12zM602 194q133 0 222 70.5t133 192t44 273.5t-44 273t-132.5 191t-222.5 70q-133 0 -221.5 -70t-132.5 -191
t-44 -273t44 -273.5t132 -192t222 -70.5z" />
    <glyph glyph-name="ordfeminine" unicode="&#xaa;" horiz-adv-x="613" 
d="M209 868q-64 0 -110.5 40.5t-46.5 118.5q0 56 23 95t61.5 64.5t87.5 40.5t100 21q-1 26 -14 41.5t-53 15.5q-37 0 -75 -9t-79 -25l-8 147q56 21 106.5 31t98.5 10q93 0 149.5 -52t56.5 -159v-175q0 -26 8 -38t25 -12h22l-10 -153h-78q-48 0 -78 19t-47 47
q-24 -30 -58 -49t-81 -19zM279 1003q14 0 25.5 6.5t21.5 17.5v104q-37 -6 -60 -26t-23 -57q0 -23 9.5 -34t26.5 -11z" />
    <glyph glyph-name="guillemotleft" unicode="&#xab;" horiz-adv-x="1058" 
d="M280 156l-261 412l261 412h258l-261 -412l261 -412h-258zM740 156l-261 412l261 412h258l-261 -412l261 -412h-258z" />
    <glyph glyph-name="logicalnot" unicode="&#xac;" horiz-adv-x="941" 
d="M676 302v342h-592v168h773v-510h-181z" />
    <glyph glyph-name="uni00AD" unicode="&#xad;" horiz-adv-x="742" 
d="M104 531v182h534v-182h-534z" />
    <glyph glyph-name="registered" unicode="&#xae;" horiz-adv-x="1204" 
d="M602 74q-154 0 -274.5 82t-190 229.5t-69.5 344.5q0 198 69.5 345.5t190 229t274.5 81.5q155 0 275.5 -81.5t189.5 -229t69 -345.5q0 -197 -69 -344.5t-189.5 -229.5t-275.5 -82zM602 194q133 0 221.5 71t132 192t43.5 273t-44 272.5t-132 191t-221 70.5t-221 -70.5
t-132 -191t-44 -272.5t44 -273t132.5 -192t220.5 -71zM385 411v660h220q89 0 147.5 -44.5t58.5 -168.5q0 -56 -25 -101.5t-55 -72.5l127 -273h-164l-106 228h-48v-228h-155zM540 783h38q49 0 62 23t13 56q0 36 -11.5 57t-59.5 21h-42v-157z" />
    <glyph glyph-name="macron" unicode="&#xaf;" horiz-adv-x="970" 
d="M200 1185v148h570v-148h-570z" />
    <glyph glyph-name="degree" unicode="&#xb0;" horiz-adv-x="521" 
d="M260 964q-120 0 -183.5 80t-63.5 192t63.5 193t183.5 81q119 0 183.5 -81t64.5 -193t-64.5 -192t-183.5 -80zM260 1071q63 0 94.5 48t31.5 117q0 70 -31.5 118.5t-94.5 48.5q-64 0 -95.5 -48.5t-31.5 -118.5q0 -69 32 -117t95 -48z" />
    <glyph glyph-name="plusminus" unicode="&#xb1;" horiz-adv-x="804" 
d="M317 367v263h-246v166h246v263h170v-263h246v-166h-246v-263h-170zM71 103v171h662v-171h-662z" />
    <glyph glyph-name="uni00B2" unicode="&#xb2;" horiz-adv-x="536" 
d="M57 772l166 316q34 64 48.5 106.5t14.5 84.5q0 46 -23 74.5t-69 28.5q-34 0 -63.5 -15.5t-57.5 -38.5l-14 169q35 20 82 33.5t99 13.5q103 0 164.5 -64t61.5 -168q0 -45 -9.5 -85t-32 -88.5t-61.5 -118.5l-102 -186l-22 92h248v-154h-430z" />
    <glyph glyph-name="uni00B3" unicode="&#xb3;" horiz-adv-x="582" 
d="M268 744q-60 0 -113 12.5t-98 31.5l38 159q33 -21 66 -33t70 -12q48 0 76 23t28 65q0 45 -28.5 69t-87.5 24h-17v144h19q43 0 67.5 20.5t24.5 60.5q0 34 -21 56t-63 22q-32 0 -60.5 -11t-55.5 -30l-14 166q37 16 79 24.5t91 8.5q105 0 163.5 -57.5t58.5 -146.5
q0 -76 -39 -125.5t-108 -69.5v30q75 -15 123 -66t48 -136q0 -107 -70 -168t-177 -61z" />
    <glyph glyph-name="acute" unicode="&#xb4;" horiz-adv-x="867" 
d="M280 1160v145l306 191v-218z" />
    <glyph glyph-name="uni00B5" unicode="&#xb5;" horiz-adv-x="971" 
d="M92 -484v1477h217v-597q0 -111 39.5 -168.5t122.5 -57.5q53 0 91 25t67 70v728h217v-741q0 -33 7.5 -52.5t24.5 -28.5t44 -9h10l-16 -182h-52q-75 0 -125.5 29t-79.5 83q-37 -47 -87.5 -78.5t-120.5 -31.5q-41 0 -77.5 11.5t-65.5 32.5v-510h-216z" />
    <glyph glyph-name="paragraph" unicode="&#xb6;" horiz-adv-x="1076" 
d="M499 0v468q-147 11 -245.5 81t-148 174t-49.5 215q0 114 54 220t163.5 174t275.5 68h447v-185h-118v-1215h-155v1215h-102v-1215h-122z" />
    <glyph glyph-name="periodcentered" unicode="&#xb7;" horiz-adv-x="434" 
d="M110 426v260h214v-260h-214z" />
    <glyph glyph-name="cedilla" unicode="&#xb8;" horiz-adv-x="745" 
d="M370 -158l-62 35q18 5 34.5 8t36.5 3q77 0 121.5 -43.5t44.5 -122.5q0 -93 -60 -142t-146 -49q-45 0 -79.5 8t-59.5 18l35 105q23 -10 48 -16t52 -6q44 0 69 20t25 59q0 37 -21.5 57t-64.5 20q-19 0 -38 -3.5t-39 -9.5l53 217h99z" />
    <glyph glyph-name="uni00B9" unicode="&#xb9;" horiz-adv-x="426" 
d="M156 772v540q-21 -25 -42.5 -40t-43.5 -24l-11 149q38 17 76.5 50.5t60.5 68.5h128v-744h-168z" />
    <glyph glyph-name="ordmasculine" unicode="&#xba;" horiz-adv-x="656" 
d="M329 868q-87 0 -149 42t-95 109t-33 145q0 77 33 144.5t94.5 109t149.5 41.5q87 0 148.5 -41.5t94 -109t32.5 -144.5q0 -78 -32.5 -145t-94 -109t-148.5 -42zM328 1010q43 0 67.5 46t24.5 108q0 63 -24.5 108.5t-66.5 45.5q-43 0 -68 -45.5t-25 -108.5q0 -62 25 -108
t67 -46z" />
    <glyph glyph-name="guillemotright" unicode="&#xbb;" horiz-adv-x="1058" 
d="M520 156l261 412l-261 412h258l261 -412l-261 -412h-258zM60 156l261 412l-261 412h258l261 -412l-261 -412h-258z" />
    <glyph glyph-name="onequarter" unicode="&#xbc;" horiz-adv-x="1116" 
d="M135 656v540q-21 -25 -42.5 -40t-43.5 -24l-11 149q38 17 76.5 50.5t60.5 68.5h128v-744h-168zM77 0l732 1400h179l-730 -1400h-181zM845 0v152h-334l350 592h141v-465h77v-127h-77v-152h-157zM708 236l-46 43h183v75l10 260l32 -26l-93 -195z" />
    <glyph glyph-name="onehalf" unicode="&#xbd;" horiz-adv-x="1195" 
d="M135 656v540q-21 -25 -42.5 -40t-43.5 -24l-11 149q38 17 76.5 50.5t60.5 68.5h128v-744h-168zM77 0l732 1400h179l-730 -1400h-181zM727 0l166 316q34 64 48.5 106.5t14.5 84.5q0 46 -23 74.5t-69 28.5q-34 0 -63.5 -15.5t-57.5 -38.5l-14 169q35 20 82 33.5t99 13.5
q103 0 164.5 -64t61.5 -168q0 -45 -9.5 -85t-32 -88.5t-61.5 -118.5l-102 -186l-22 92h248v-154h-430z" />
    <glyph glyph-name="threequarters" unicode="&#xbe;" horiz-adv-x="1242" 
d="M249 628q-60 0 -113 12.5t-98 31.5l38 159q33 -21 66 -33t70 -12q48 0 76 23t28 65q0 45 -28.5 69t-87.5 24h-17v144h19q43 0 67.5 20.5t24.5 60.5q0 34 -21 56t-63 22q-32 0 -60.5 -11t-55.5 -30l-14 166q37 16 79 24.5t91 8.5q105 0 163.5 -57.5t58.5 -146.5
q0 -76 -39 -125.5t-108 -69.5v30q75 -15 123 -66t48 -136q0 -107 -70 -168t-177 -61zM205 0l732 1400h179l-730 -1400h-181zM971 0v152h-334l350 592h141v-465h77v-127h-77v-152h-157zM834 236l-46 43h183v75l10 260l32 -26l-93 -195z" />
    <glyph glyph-name="questiondown" unicode="&#xbf;" horiz-adv-x="716" 
d="M559 613v-32q0 -79 -20 -137t-54.5 -107.5t-78.5 -102.5q-65 -78 -103.5 -136.5t-38.5 -134.5q0 -57 25 -96.5t70 -60t106 -20.5q62 0 115.5 14t103.5 36l24 -204q-66 -28 -140.5 -44t-173.5 -16q-119 0 -202.5 47.5t-127.5 127.5t-44 179q0 73 23 130.5t62.5 110
t88.5 111.5q69 84 106 144t37 147v44h222zM562 1000v-250h-228v250h228z" />
    <glyph glyph-name="Agrave" unicode="&#xc0;" horiz-adv-x="1074" 
d="M793 350h-512v205h512v-205zM511 1147h50l-331 -1147h-227l428 1400h211l428 -1400h-226zM689 1522l-306 90v200l306 -160v-130z" />
    <glyph glyph-name="Aacute" unicode="&#xc1;" horiz-adv-x="1074" 
d="M793 350h-512v205h512v-205zM511 1147h50l-331 -1147h-227l428 1400h211l428 -1400h-226zM385 1522v130l306 160v-198z" />
    <glyph glyph-name="Acircumflex" unicode="&#xc2;" horiz-adv-x="1074" 
d="M793 350h-512v205h512v-205zM511 1147h50l-331 -1147h-227l428 1400h211l428 -1400h-226zM297 1497v139l240 169l240 -169v-139l-240 129z" />
    <glyph glyph-name="Atilde" unicode="&#xc3;" horiz-adv-x="1074" 
d="M793 350h-512v205h512v-205zM511 1147h50l-331 -1147h-227l428 1400h211l428 -1400h-226zM687 1562q-46 0 -89.5 19.5t-83 39t-73.5 19.5q-58 0 -58 -66h-144q0 101 37.5 154t110.5 53q46 0 89.5 -19.5t83 -39t73.5 -19.5q58 0 58 65h144q0 -99 -37 -152.5t-111 -53.5z
" />
    <glyph glyph-name="Adieresis" unicode="&#xc4;" horiz-adv-x="1074" 
d="M793 350h-512v205h512v-205zM511 1147h50l-331 -1147h-227l428 1400h211l428 -1400h-226zM286 1574v164h178v-164h-178zM610 1574v164h178v-164h-178z" />
    <glyph glyph-name="Aring" unicode="&#xc5;" horiz-adv-x="1074" 
d="M793 350h-512v205h512v-205zM511 1147h50l-331 -1147h-227l428 1400h211l428 -1400h-226zM537 1509q-90 0 -139 58.5t-49 136.5t49.5 137t138.5 59q90 0 139 -59t49 -137t-48.5 -136.5t-139.5 -58.5zM537 1607q36 0 58 26.5t22 70.5q0 42 -22 69t-58 27t-58 -27t-22 -69
q0 -44 22 -70.5t58 -26.5z" />
    <glyph glyph-name="AE" unicode="&#xc6;" horiz-adv-x="1544" 
d="M-14 0l588 1400h895v-204h-551v-361h428v-204h-428v-427h568v-204h-790v1162l-476 -1162h-234zM301 359v205h500v-205h-500z" />
    <glyph glyph-name="Ccedilla" unicode="&#xc7;" horiz-adv-x="1048" 
d="M686 -28q-182 0 -323.5 89t-222 252t-80.5 387t81.5 387.5t223 252t321.5 88.5q95 0 172 -18t138 -46l-25 -218q-60 28 -119 46t-133 18q-132 0 -225 -64t-141 -179t-48 -267t48.5 -267t141 -179t224.5 -64q74 0 133.5 17.5t118.5 44.5l25 -218q-59 -28 -137.5 -45
t-172.5 -17zM706 -158l-62 35q18 5 34.5 8t36.5 3q77 0 121.5 -43.5t44.5 -122.5q0 -93 -60 -142t-146 -49q-45 0 -79.5 8t-59.5 18l35 105q23 -10 48 -16t52 -6q44 0 69 20t25 59q0 37 -21.5 57t-64.5 20q-19 0 -38 -3.5t-39 -9.5l53 217h99z" />
    <glyph glyph-name="Egrave" unicode="&#xc8;" horiz-adv-x="980" 
d="M132 0v1400h773v-204h-551v-361h428v-204h-428v-427h568v-204h-790zM671 1522l-306 90v200l306 -160v-130z" />
    <glyph glyph-name="Eacute" unicode="&#xc9;" horiz-adv-x="980" 
d="M132 0v1400h773v-204h-551v-361h428v-204h-428v-427h568v-204h-790zM367 1522v130l306 160v-198z" />
    <glyph glyph-name="Ecircumflex" unicode="&#xca;" horiz-adv-x="980" 
d="M132 0v1400h773v-204h-551v-361h428v-204h-428v-427h568v-204h-790zM279 1497v139l240 169l240 -169v-139l-240 129z" />
    <glyph glyph-name="Edieresis" unicode="&#xcb;" horiz-adv-x="980" 
d="M132 0v1400h773v-204h-551v-361h428v-204h-428v-427h568v-204h-790zM268 1574v164h178v-164h-178zM592 1574v164h178v-164h-178z" />
    <glyph glyph-name="Igrave" unicode="&#xcc;" horiz-adv-x="483" 
d="M130 0v1400h222v-1400h-222zM393 1522l-306 90v200l306 -160v-130z" />
    <glyph glyph-name="Iacute" unicode="&#xcd;" horiz-adv-x="483" 
d="M130 0v1400h222v-1400h-222zM89 1522v130l306 160v-198z" />
    <glyph glyph-name="Icircumflex" unicode="&#xce;" horiz-adv-x="483" 
d="M130 0v1400h222v-1400h-222zM1 1497v139l240 169l240 -169v-139l-240 129z" />
    <glyph glyph-name="Idieresis" unicode="&#xcf;" horiz-adv-x="483" 
d="M130 0v1400h222v-1400h-222zM-10 1574v164h178v-164h-178zM314 1574v164h178v-164h-178z" />
    <glyph glyph-name="Eth" unicode="&#xd0;" horiz-adv-x="1249" 
d="M144 0v608h-119v194h119v598h449q172 0 306 -83.5t211 -240t77 -376.5t-77 -376.5t-211 -240t-306 -83.5h-449zM366 204h215q180 0 270.5 132.5t90.5 363.5q0 232 -90.5 364t-270.5 132h-215v-394h224v-194h-224v-404z" />
    <glyph glyph-name="Ntilde" unicode="&#xd1;" horiz-adv-x="1216" 
d="M132 0v1400h235l495 -928v928h222v-1400h-198l-532 985v-985h-222zM765 1562q-46 0 -89.5 19.5t-83 39t-73.5 19.5q-58 0 -58 -66h-144q0 101 37.5 154t110.5 53q46 0 89.5 -19.5t83 -39t73.5 -19.5q58 0 58 65h144q0 -99 -37 -152.5t-111 -53.5z" />
    <glyph glyph-name="Ograve" unicode="&#xd2;" horiz-adv-x="1307" 
d="M654 -28q-172 0 -306 90t-211 253.5t-77 384.5t77 384.5t211 253.5t306 90t306.5 -90t210.5 -253.5t76 -384.5t-76 -384.5t-210.5 -253.5t-306.5 -90zM654 195q119 0 198 66t119 180.5t40 258.5t-39.5 258.5t-119.5 180.5t-198 66t-197.5 -66t-119.5 -180.5t-40 -258.5
t40 -258.5t119.5 -180.5t197.5 -66zM806 1522l-306 90v200l306 -160v-130z" />
    <glyph glyph-name="Oacute" unicode="&#xd3;" horiz-adv-x="1307" 
d="M654 -28q-172 0 -306 90t-211 253.5t-77 384.5t77 384.5t211 253.5t306 90t306.5 -90t210.5 -253.5t76 -384.5t-76 -384.5t-210.5 -253.5t-306.5 -90zM654 195q119 0 198 66t119 180.5t40 258.5t-39.5 258.5t-119.5 180.5t-198 66t-197.5 -66t-119.5 -180.5t-40 -258.5
t40 -258.5t119.5 -180.5t197.5 -66zM502 1522v130l306 160v-198z" />
    <glyph glyph-name="Ocircumflex" unicode="&#xd4;" horiz-adv-x="1307" 
d="M654 -28q-172 0 -306 90t-211 253.5t-77 384.5t77 384.5t211 253.5t306 90t306.5 -90t210.5 -253.5t76 -384.5t-76 -384.5t-210.5 -253.5t-306.5 -90zM654 195q119 0 198 66t119 180.5t40 258.5t-39.5 258.5t-119.5 180.5t-198 66t-197.5 -66t-119.5 -180.5t-40 -258.5
t40 -258.5t119.5 -180.5t197.5 -66zM414 1497v139l240 169l240 -169v-139l-240 129z" />
    <glyph glyph-name="Otilde" unicode="&#xd5;" horiz-adv-x="1307" 
d="M654 -28q-172 0 -306 90t-211 253.5t-77 384.5t77 384.5t211 253.5t306 90t306.5 -90t210.5 -253.5t76 -384.5t-76 -384.5t-210.5 -253.5t-306.5 -90zM654 195q119 0 198 66t119 180.5t40 258.5t-39.5 258.5t-119.5 180.5t-198 66t-197.5 -66t-119.5 -180.5t-40 -258.5
t40 -258.5t119.5 -180.5t197.5 -66zM804 1562q-46 0 -89.5 19.5t-83 39t-73.5 19.5q-58 0 -58 -66h-144q0 101 37.5 154t110.5 53q46 0 89.5 -19.5t83 -39t73.5 -19.5q58 0 58 65h144q0 -99 -37 -152.5t-111 -53.5z" />
    <glyph glyph-name="Odieresis" unicode="&#xd6;" horiz-adv-x="1307" 
d="M654 -28q-172 0 -306 90t-211 253.5t-77 384.5t77 384.5t211 253.5t306 90t306.5 -90t210.5 -253.5t76 -384.5t-76 -384.5t-210.5 -253.5t-306.5 -90zM654 195q119 0 198 66t119 180.5t40 258.5t-39.5 258.5t-119.5 180.5t-198 66t-197.5 -66t-119.5 -180.5t-40 -258.5
t40 -258.5t119.5 -180.5t197.5 -66zM403 1574v164h178v-164h-178zM727 1574v164h178v-164h-178z" />
    <glyph glyph-name="multiply" unicode="&#xd7;" horiz-adv-x="762" 
d="M171 199l-123 112l545 608l123 -113zM591 199l-545 607l123 113l545 -608z" />
    <glyph glyph-name="Oslash" unicode="&#xd8;" horiz-adv-x="1307" 
d="M91 -88l942 1576h183l-942 -1576h-183zM654 -28q-172 0 -306 90t-211 253.5t-77 384.5t77 384.5t211 253.5t306 90t306.5 -90t210.5 -253.5t76 -384.5t-76 -384.5t-210.5 -253.5t-306.5 -90zM654 195q119 0 198 66t119 180.5t40 258.5t-39.5 258.5t-119.5 180.5t-198 66
t-197.5 -66t-119.5 -180.5t-40 -258.5t40 -258.5t119.5 -180.5t197.5 -66z" />
    <glyph glyph-name="Ugrave" unicode="&#xd9;" horiz-adv-x="1238" 
d="M619 -28q-172 0 -282.5 70.5t-164 199t-53.5 303.5v855h222v-794q0 -89 11 -165t40.5 -132.5t84 -87.5t142.5 -31t143 31t84 88t39.5 132.5t10.5 164.5v794h223v-855q0 -175 -53.5 -303.5t-164.5 -199t-282 -70.5zM773 1522l-306 90v200l306 -160v-130z" />
    <glyph glyph-name="Uacute" unicode="&#xda;" horiz-adv-x="1238" 
d="M619 -28q-172 0 -282.5 70.5t-164 199t-53.5 303.5v855h222v-794q0 -89 11 -165t40.5 -132.5t84 -87.5t142.5 -31t143 31t84 88t39.5 132.5t10.5 164.5v794h223v-855q0 -175 -53.5 -303.5t-164.5 -199t-282 -70.5zM469 1522v130l306 160v-198z" />
    <glyph glyph-name="Ucircumflex" unicode="&#xdb;" horiz-adv-x="1238" 
d="M619 -28q-172 0 -282.5 70.5t-164 199t-53.5 303.5v855h222v-794q0 -89 11 -165t40.5 -132.5t84 -87.5t142.5 -31t143 31t84 88t39.5 132.5t10.5 164.5v794h223v-855q0 -175 -53.5 -303.5t-164.5 -199t-282 -70.5zM381 1497v139l240 169l240 -169v-139l-240 129z" />
    <glyph glyph-name="Udieresis" unicode="&#xdc;" horiz-adv-x="1238" 
d="M619 -28q-172 0 -282.5 70.5t-164 199t-53.5 303.5v855h222v-794q0 -89 11 -165t40.5 -132.5t84 -87.5t142.5 -31t143 31t84 88t39.5 132.5t10.5 164.5v794h223v-855q0 -175 -53.5 -303.5t-164.5 -199t-282 -70.5zM370 1574v164h178v-164h-178zM694 1574v164h178v-164
h-178z" />
    <glyph glyph-name="Yacute" unicode="&#xdd;" horiz-adv-x="1044" 
d="M408 0v615l-419 785h240l337 -662h-93l333 662h240l-417 -785v-615h-221zM366 1522v130l306 160v-198z" />
    <glyph glyph-name="Thorn" unicode="&#xde;" horiz-adv-x="1047" 
d="M130 0v1400h222v-297h222q220 0 327 -100t107 -277t-107.5 -277t-326.5 -100h-222v-349h-222zM352 534h198q128 0 182 51t54 141q0 99 -54 145t-182 46h-198v-383z" />
    <glyph glyph-name="germandbls" unicode="&#xdf;" horiz-adv-x="1071" 
d="M637 -28q-46 0 -89 5.5t-88 16.5v180q43 -10 85.5 -15.5t89.5 -5.5q85 0 134 43.5t49 120.5q0 67 -32 110t-80 76l-96 66t-80.5 79t-32.5 116q0 63 31 115.5t84 113.5q54 64 79 105.5t25 98.5q0 68 -38.5 108t-113.5 40q-94 0 -147.5 -71t-53.5 -195v-1079h-215v812h-115
l20 181h95v82q0 219 114 336t310 117q163 0 261.5 -85.5t98.5 -229.5q0 -53 -10.5 -93.5t-33 -78t-59.5 -79.5q-57 -63 -84 -98.5t-27 -76.5t32.5 -73.5t80.5 -65.5t95.5 -75.5t80 -103t32.5 -146.5q0 -117 -56.5 -195t-148 -117t-197.5 -39z" />
    <glyph glyph-name="agrave" unicode="&#xe0;" horiz-adv-x="854" 
d="M295 -20q-72 0 -131.5 33t-95 96t-35.5 151t34 150.5t89.5 104t120 66t128 36t110.5 12.5q0 102 -34 144.5t-116 42.5q-62 0 -119 -20.5t-121 -60.5l-18 182q73 46 152 69.5t159 23.5q98 0 169 -37.5t109 -120t38 -217.5v-296q0 -73 6 -111t22 -52t45 -14h29l-18 -182
h-82q-47 0 -84 15.5t-64 43.5t-43 67q-48 -57 -108 -91.5t-142 -34.5zM367 153q42 0 80 25.5t69 68.5v230q-71 -6 -129 -27.5t-92 -63t-34 -107.5q0 -67 29.5 -96.5t76.5 -29.5zM580 1158l-306 123v224l306 -196v-151z" />
    <glyph glyph-name="aacute" unicode="&#xe1;" horiz-adv-x="854" 
d="M295 -20q-72 0 -131.5 33t-95 96t-35.5 151t34 150.5t89.5 104t120 66t128 36t110.5 12.5q0 102 -34 144.5t-116 42.5q-62 0 -119 -20.5t-121 -60.5l-18 182q73 46 152 69.5t159 23.5q98 0 169 -37.5t109 -120t38 -217.5v-296q0 -73 6 -111t22 -52t45 -14h29l-18 -182
h-82q-47 0 -84 15.5t-64 43.5t-43 67q-48 -57 -108 -91.5t-142 -34.5zM367 153q42 0 80 25.5t69 68.5v230q-71 -6 -129 -27.5t-92 -63t-34 -107.5q0 -67 29.5 -96.5t76.5 -29.5zM276 1160v145l306 191v-218z" />
    <glyph glyph-name="acircumflex" unicode="&#xe2;" horiz-adv-x="854" 
d="M295 -20q-72 0 -131.5 33t-95 96t-35.5 151t34 150.5t89.5 104t120 66t128 36t110.5 12.5q0 102 -34 144.5t-116 42.5q-62 0 -119 -20.5t-121 -60.5l-18 182q73 46 152 69.5t159 23.5q98 0 169 -37.5t109 -120t38 -217.5v-296q0 -73 6 -111t22 -52t45 -14h29l-18 -182
h-82q-47 0 -84 15.5t-64 43.5t-43 67q-48 -57 -108 -91.5t-142 -34.5zM367 153q42 0 80 25.5t69 68.5v230q-71 -6 -129 -27.5t-92 -63t-34 -107.5q0 -67 29.5 -96.5t76.5 -29.5zM208 1128v145l220 187l220 -187v-145l-220 138z" />
    <glyph glyph-name="atilde" unicode="&#xe3;" horiz-adv-x="854" 
d="M295 -20q-72 0 -131.5 33t-95 96t-35.5 151t34 150.5t89.5 104t120 66t128 36t110.5 12.5q0 102 -34 144.5t-116 42.5q-62 0 -119 -20.5t-121 -60.5l-18 182q73 46 152 69.5t159 23.5q98 0 169 -37.5t109 -120t38 -217.5v-296q0 -73 6 -111t22 -52t45 -14h29l-18 -182
h-82q-47 0 -84 15.5t-64 43.5t-43 67q-48 -57 -108 -91.5t-142 -34.5zM367 153q42 0 80 25.5t69 68.5v230q-71 -6 -129 -27.5t-92 -63t-34 -107.5q0 -67 29.5 -96.5t76.5 -29.5zM567 1157q-52 0 -90 23t-70 45.5t-67 22.5q-55 0 -55 -75h-155q5 114 45 174.5t114 60.5
q52 0 90 -22.5t70 -45t67 -22.5q55 0 55 74h155q-4 -114 -44 -174.5t-115 -60.5z" />
    <glyph glyph-name="adieresis" unicode="&#xe4;" horiz-adv-x="854" 
d="M295 -20q-72 0 -131.5 33t-95 96t-35.5 151t34 150.5t89.5 104t120 66t128 36t110.5 12.5q0 102 -34 144.5t-116 42.5q-62 0 -119 -20.5t-121 -60.5l-18 182q73 46 152 69.5t159 23.5q98 0 169 -37.5t109 -120t38 -217.5v-296q0 -73 6 -111t22 -52t45 -14h29l-18 -182
h-82q-47 0 -84 15.5t-64 43.5t-43 67q-48 -57 -108 -91.5t-142 -34.5zM367 153q42 0 80 25.5t69 68.5v230q-71 -6 -129 -27.5t-92 -63t-34 -107.5q0 -67 29.5 -96.5t76.5 -29.5zM502 1182v173h177v-173h-177zM177 1182v173h177v-173h-177z" />
    <glyph glyph-name="aring" unicode="&#xe5;" horiz-adv-x="854" 
d="M295 -20q-72 0 -131.5 33t-95 96t-35.5 151t34 150.5t89.5 104t120 66t128 36t110.5 12.5q0 102 -34 144.5t-116 42.5q-62 0 -119 -20.5t-121 -60.5l-18 182q73 46 152 69.5t159 23.5q98 0 169 -37.5t109 -120t38 -217.5v-296q0 -73 6 -111t22 -52t45 -14h29l-18 -182
h-82q-47 0 -84 15.5t-64 43.5t-43 67q-48 -57 -108 -91.5t-142 -34.5zM367 153q42 0 80 25.5t69 68.5v230q-71 -6 -129 -27.5t-92 -63t-34 -107.5q0 -67 29.5 -96.5t76.5 -29.5zM428 1139q-94 0 -141 58.5t-47 137.5t47 138t141 59q96 0 142 -59t46 -138t-46 -137.5
t-142 -58.5zM428 1233q38 0 59 27.5t21 73.5q0 45 -21 73.5t-59 28.5t-59 -28.5t-21 -72.5q0 -47 21.5 -74.5t58.5 -27.5z" />
    <glyph glyph-name="ae" unicode="&#xe6;" horiz-adv-x="1364" 
d="M309 -20q-76 0 -138.5 32.5t-100 95.5t-37.5 152q0 105 48.5 173.5t128.5 108t174 56t185 16.5h528q0 90 -35.5 151.5t-121.5 61.5q-92 0 -143.5 -79t-51.5 -237q0 -122 36 -198.5t96.5 -113t135.5 -36.5q71 0 137 19.5t119 52.5l10 -191q-52 -28 -125 -46t-162 -18
q-156 0 -260 71.5t-155.5 189t-51.5 258.5l-2 138q0 98 -37 138.5t-121 40.5q-62 0 -119 -20.5t-121 -60.5l-18 182q73 46 152 69.5t159 23.5q100 0 170 -46t105 -149l-64 -1q54 91 140 143.5t204 52.5q111 0 188 -54.5t116.5 -150.5t39.5 -220q0 -30 -3 -60t-8 -63h-744
q-133 0 -217 -46.5t-84 -139.5q0 -62 31.5 -92.5t79.5 -30.5q61 0 114 37t97 99l76 -111q-73 -87 -151.5 -142.5t-198.5 -55.5z" />
    <glyph glyph-name="ccedilla" unicode="&#xe7;" horiz-adv-x="770" 
d="M514 -20q-155 0 -258.5 69.5t-155.5 186t-52 257.5q0 143 51.5 260.5t156.5 187t265 69.5q60 0 112 -11t89 -29l-21 -180q-35 18 -75.5 28.5t-85.5 10.5q-129 0 -200 -91t-71 -242q0 -146 70.5 -240.5t201.5 -94.5q46 0 86 10t78 30l19 -179q-38 -18 -93.5 -30
t-116.5 -12zM499 -158l-62 35q18 5 34.5 8t36.5 3q77 0 121.5 -43.5t44.5 -122.5q0 -93 -60 -142t-146 -49q-45 0 -79.5 8t-59.5 18l35 105q23 -10 48 -16t52 -6q44 0 69 20t25 59q0 37 -21.5 57t-64.5 20q-19 0 -38 -3.5t-39 -9.5l53 217h99z" />
    <glyph glyph-name="egrave" unicode="&#xe8;" horiz-adv-x="887" 
d="M515 -20q-156 0 -260 71.5t-155.5 189t-51.5 258.5q0 142 49 258t143.5 184.5t231.5 68.5q112 0 194.5 -52t128 -149t45.5 -231q0 -27 -3 -56t-8 -60h-559q8 -103 44.5 -169.5t94.5 -98t127 -31.5q71 0 137 19.5t119 52.5l10 -191q-52 -28 -124.5 -46t-162.5 -18z
M275 614h345q0 60 -15 108t-49.5 76.5t-92.5 28.5q-77 0 -124.5 -53.5t-63.5 -159.5zM625 1158l-306 123v224l306 -196v-151z" />
    <glyph glyph-name="eacute" unicode="&#xe9;" horiz-adv-x="887" 
d="M515 -20q-156 0 -260 71.5t-155.5 189t-51.5 258.5q0 142 49 258t143.5 184.5t231.5 68.5q112 0 194.5 -52t128 -149t45.5 -231q0 -27 -3 -56t-8 -60h-559q8 -103 44.5 -169.5t94.5 -98t127 -31.5q71 0 137 19.5t119 52.5l10 -191q-52 -28 -124.5 -46t-162.5 -18z
M275 614h345q0 60 -15 108t-49.5 76.5t-92.5 28.5q-77 0 -124.5 -53.5t-63.5 -159.5zM321 1160v145l306 191v-218z" />
    <glyph glyph-name="ecircumflex" unicode="&#xea;" horiz-adv-x="887" 
d="M515 -20q-156 0 -260 71.5t-155.5 189t-51.5 258.5q0 142 49 258t143.5 184.5t231.5 68.5q112 0 194.5 -52t128 -149t45.5 -231q0 -27 -3 -56t-8 -60h-559q8 -103 44.5 -169.5t94.5 -98t127 -31.5q71 0 137 19.5t119 52.5l10 -191q-52 -28 -124.5 -46t-162.5 -18z
M275 614h345q0 60 -15 108t-49.5 76.5t-92.5 28.5q-77 0 -124.5 -53.5t-63.5 -159.5zM253 1128v145l220 187l220 -187v-145l-220 138z" />
    <glyph glyph-name="edieresis" unicode="&#xeb;" horiz-adv-x="887" 
d="M515 -20q-156 0 -260 71.5t-155.5 189t-51.5 258.5q0 142 49 258t143.5 184.5t231.5 68.5q112 0 194.5 -52t128 -149t45.5 -231q0 -27 -3 -56t-8 -60h-559q8 -103 44.5 -169.5t94.5 -98t127 -31.5q71 0 137 19.5t119 52.5l10 -191q-52 -28 -124.5 -46t-162.5 -18z
M275 614h345q0 60 -15 108t-49.5 76.5t-92.5 28.5q-77 0 -124.5 -53.5t-63.5 -159.5zM547 1182v173h177v-173h-177zM222 1182v173h177v-173h-177z" />
    <glyph glyph-name="igrave" unicode="&#xec;" horiz-adv-x="413" 
d="M98 0v993h217v-993h-217zM359 1158l-306 123v224l306 -196v-151z" />
    <glyph glyph-name="iacute" unicode="&#xed;" horiz-adv-x="413" 
d="M98 0v993h217v-993h-217zM55 1160v145l306 191v-218z" />
    <glyph glyph-name="icircumflex" unicode="&#xee;" horiz-adv-x="413" 
d="M98 0v993h217v-993h-217zM-13 1128v145l220 187l220 -187v-145l-220 138z" />
    <glyph glyph-name="idieresis" unicode="&#xef;" horiz-adv-x="413" 
d="M98 0v993h217v-993h-217zM281 1182v173h177v-173h-177zM-44 1182v173h177v-173h-177z" />
    <glyph glyph-name="eth" unicode="&#xf0;" horiz-adv-x="881" 
d="M420 -25q-120 0 -206 56t-132.5 154.5t-46.5 225.5q0 123 42.5 223t125 159t203.5 59q93 0 150.5 -35.5t93.5 -85.5l-57 -41q0 133 -52.5 250t-147.5 204.5t-224 134.5l41 123q140 -38 252.5 -119.5t192 -198t122 -260.5t42.5 -309q0 -138 -28 -239t-80 -168t-125.5 -100
t-165.5 -33zM427 164q79 0 123 72t44 183t-44 180t-126 69q-55 0 -92.5 -32.5t-56.5 -89t-19 -126.5q0 -109 43.5 -182.5t127.5 -73.5zM244 990l-75 116l480 294l73 -116z" />
    <glyph glyph-name="ntilde" unicode="&#xf1;" horiz-adv-x="952" 
d="M100 0v993h187l16 -146l-46 -3q45 78 118 122t175 44q156 0 233.5 -108.5t77.5 -283.5v-618h-217v590q0 117 -36.5 178t-114.5 61q-73 0 -125 -45.5t-84 -123.5l33 137v-797h-217zM630 1144q-52 0 -90 23t-70 45.5t-67 22.5q-55 0 -55 -75h-155q5 114 45 174.5t114 60.5
q52 0 90 -22.5t70 -45t67 -22.5q55 0 55 74h155q-4 -114 -44 -174.5t-115 -60.5z" />
    <glyph glyph-name="ograve" unicode="&#xf2;" horiz-adv-x="969" 
d="M484 -20q-138 0 -235.5 70t-149 187t-51.5 258t51.5 258t149 187t235.5 70t236 -70t149.5 -187t51.5 -258t-51.5 -258t-149.5 -187t-236 -70zM484 161q104 0 160 91.5t56 243.5q0 151 -56 242t-160 91q-102 0 -158.5 -91t-56.5 -243q0 -151 56.5 -242.5t158.5 -91.5z
M637 1158l-306 123v224l306 -196v-151z" />
    <glyph glyph-name="oacute" unicode="&#xf3;" horiz-adv-x="969" 
d="M484 -20q-138 0 -235.5 70t-149 187t-51.5 258t51.5 258t149 187t235.5 70t236 -70t149.5 -187t51.5 -258t-51.5 -258t-149.5 -187t-236 -70zM484 161q104 0 160 91.5t56 243.5q0 151 -56 242t-160 91q-102 0 -158.5 -91t-56.5 -243q0 -151 56.5 -242.5t158.5 -91.5z
M333 1160v145l306 191v-218z" />
    <glyph glyph-name="ocircumflex" unicode="&#xf4;" horiz-adv-x="969" 
d="M484 -20q-138 0 -235.5 70t-149 187t-51.5 258t51.5 258t149 187t235.5 70t236 -70t149.5 -187t51.5 -258t-51.5 -258t-149.5 -187t-236 -70zM484 161q104 0 160 91.5t56 243.5q0 151 -56 242t-160 91q-102 0 -158.5 -91t-56.5 -243q0 -151 56.5 -242.5t158.5 -91.5z
M265 1128v145l220 187l220 -187v-145l-220 138z" />
    <glyph glyph-name="otilde" unicode="&#xf5;" horiz-adv-x="969" 
d="M484 -20q-138 0 -235.5 70t-149 187t-51.5 258t51.5 258t149 187t235.5 70t236 -70t149.5 -187t51.5 -258t-51.5 -258t-149.5 -187t-236 -70zM484 161q104 0 160 91.5t56 243.5q0 151 -56 242t-160 91q-102 0 -158.5 -91t-56.5 -243q0 -151 56.5 -242.5t158.5 -91.5z
M624 1157q-52 0 -90 23t-70 45.5t-67 22.5q-55 0 -55 -75h-155q5 114 45 174.5t114 60.5q52 0 90 -22.5t70 -45t67 -22.5q55 0 55 74h155q-4 -114 -44 -174.5t-115 -60.5z" />
    <glyph glyph-name="odieresis" unicode="&#xf6;" horiz-adv-x="969" 
d="M484 -20q-138 0 -235.5 70t-149 187t-51.5 258t51.5 258t149 187t235.5 70t236 -70t149.5 -187t51.5 -258t-51.5 -258t-149.5 -187t-236 -70zM484 161q104 0 160 91.5t56 243.5q0 151 -56 242t-160 91q-102 0 -158.5 -91t-56.5 -243q0 -151 56.5 -242.5t158.5 -91.5z
M559 1182v173h177v-173h-177zM234 1182v173h177v-173h-177z" />
    <glyph glyph-name="divide" unicode="&#xf7;" horiz-adv-x="845" 
d="M71 471v172h703v-172h-703zM315 100v233h216v-233h-216zM315 781v233h216v-233h-216z" />
    <glyph glyph-name="oslash" unicode="&#xf8;" horiz-adv-x="969" 
d="M735 1060h156l-657 -1140h-157zM484 -20q-138 0 -235.5 70t-149 187t-51.5 258t51.5 258t149 187t235.5 70t236 -70t149.5 -187t51.5 -258t-51.5 -258t-149.5 -187t-236 -70zM484 161q104 0 160 91.5t56 242.5q0 152 -56 243t-160 91q-102 0 -158.5 -91t-56.5 -243
q0 -151 56.5 -242.5t158.5 -91.5z" />
    <glyph glyph-name="ugrave" unicode="&#xf9;" horiz-adv-x="941" 
d="M399 -17q-105 0 -172.5 47t-101 131.5t-33.5 198.5v633h217v-604q0 -106 34 -165t113 -59q72 0 123 45.5t82 122.5l-32 -137v797h216v-993h-187l-16 146l46 3q-44 -78 -116 -122t-173 -44zM619 1158l-306 123v224l306 -196v-151z" />
    <glyph glyph-name="uacute" unicode="&#xfa;" horiz-adv-x="941" 
d="M399 -17q-105 0 -172.5 47t-101 131.5t-33.5 198.5v633h217v-604q0 -106 34 -165t113 -59q72 0 123 45.5t82 122.5l-32 -137v797h216v-993h-187l-16 146l46 3q-44 -78 -116 -122t-173 -44zM315 1160v145l306 191v-218z" />
    <glyph glyph-name="ucircumflex" unicode="&#xfb;" horiz-adv-x="941" 
d="M399 -17q-105 0 -172.5 47t-101 131.5t-33.5 198.5v633h217v-604q0 -106 34 -165t113 -59q72 0 123 45.5t82 122.5l-32 -137v797h216v-993h-187l-16 146l46 3q-44 -78 -116 -122t-173 -44zM247 1128v145l220 187l220 -187v-145l-220 138z" />
    <glyph glyph-name="udieresis" unicode="&#xfc;" horiz-adv-x="941" 
d="M399 -17q-105 0 -172.5 47t-101 131.5t-33.5 198.5v633h217v-604q0 -106 34 -165t113 -59q72 0 123 45.5t82 122.5l-32 -137v797h216v-993h-187l-16 146l46 3q-44 -78 -116 -122t-173 -44zM541 1182v173h177v-173h-177zM216 1182v173h177v-173h-177z" />
    <glyph glyph-name="yacute" unicode="&#xfd;" horiz-adv-x="934" 
d="M157 -484l204 529l-348 948h228l229 -698l222 698h228l-539 -1477h-224zM317 1160v145l306 191v-218z" />
    <glyph glyph-name="thorn" unicode="&#xfe;" horiz-adv-x="981" 
d="M99 -484v1984h216v-694l-67 29q57 80 129 127.5t176 47.5q124 0 210.5 -70t131.5 -187t45 -258t-44 -258t-130 -187t-213 -70q-103 0 -174 39t-127 120l63 42v-665h-216zM512 161q98 0 152.5 91.5t54.5 242.5q0 152 -54.5 243t-152.5 91q-65 0 -112.5 -40.5t-73.5 -115
t-26 -178.5q0 -105 26 -179.5t73.5 -114.5t112.5 -40z" />
    <glyph glyph-name="ydieresis" unicode="&#xff;" horiz-adv-x="934" 
d="M157 -484l204 529l-348 948h228l229 -698l222 698h228l-539 -1477h-224zM543 1182v173h177v-173h-177zM218 1182v173h177v-173h-177z" />
    <glyph glyph-name="Amacron" unicode="&#x100;" horiz-adv-x="1074" 
d="M793 350h-512v205h512v-205zM511 1147h50l-331 -1147h-227l428 1400h211l428 -1400h-226zM232 1586v139h610v-139h-610z" />
    <glyph glyph-name="amacron" unicode="&#x101;" horiz-adv-x="854" 
d="M295 -20q-72 0 -131.5 33t-95 96t-35.5 151t34 150.5t89.5 104t120 66t128 36t110.5 12.5q0 102 -34 144.5t-116 42.5q-62 0 -119 -20.5t-121 -60.5l-18 182q73 46 152 69.5t159 23.5q98 0 169 -37.5t109 -120t38 -217.5v-296q0 -73 6 -111t22 -52t45 -14h29l-18 -182
h-82q-47 0 -84 15.5t-64 43.5t-43 67q-48 -57 -108 -91.5t-142 -34.5zM367 153q42 0 80 25.5t69 68.5v230q-71 -6 -129 -27.5t-92 -63t-34 -107.5q0 -67 29.5 -96.5t76.5 -29.5zM143 1198v148h570v-148h-570z" />
    <glyph glyph-name="Abreve" unicode="&#x102;" horiz-adv-x="1074" 
d="M793 350h-512v205h512v-205zM511 1147h50l-331 -1147h-227l428 1400h211l428 -1400h-226zM537 1529q-90 0 -153 34.5t-96 90t-33 120.5h166q0 -56 32.5 -84.5t83.5 -28.5t83.5 28.5t32.5 84.5h166q0 -65 -32.5 -120.5t-95 -90t-154.5 -34.5z" />
    <glyph glyph-name="abreve" unicode="&#x103;" horiz-adv-x="854" 
d="M295 -20q-72 0 -131.5 33t-95 96t-35.5 151t34 150.5t89.5 104t120 66t128 36t110.5 12.5q0 102 -34 144.5t-116 42.5q-62 0 -119 -20.5t-121 -60.5l-18 182q73 46 152 69.5t159 23.5q98 0 169 -37.5t109 -120t38 -217.5v-296q0 -73 6 -111t22 -52t45 -14h29l-18 -182
h-82q-47 0 -84 15.5t-64 43.5t-43 67q-48 -57 -108 -91.5t-142 -34.5zM367 153q42 0 80 25.5t69 68.5v230q-71 -6 -129 -27.5t-92 -63t-34 -107.5q0 -67 29.5 -96.5t76.5 -29.5zM428 1166q-89 0 -150.5 35t-93.5 93t-32 127h160q0 -53 29.5 -84t86.5 -31q58 0 87 31t29 84
h160q0 -69 -32 -127t-93.5 -93t-150.5 -35z" />
    <glyph glyph-name="Aogonek" unicode="&#x104;" horiz-adv-x="1074" 
d="M793 350h-512v205h512v-205zM511 1147h50l-331 -1147h-227l428 1400h211l428 -1400h-226zM901 0h117q-57 -55 -96 -107t-39 -108q0 -44 26.5 -67t68.5 -23q27 0 50 6t46 16l33 -104q-26 -14 -63 -23.5t-86 -9.5q-83 0 -140.5 43.5t-57.5 126.5q0 77 43 137t98 113z" />
    <glyph glyph-name="aogonek" unicode="&#x105;" horiz-adv-x="854" 
d="M295 -20q-72 0 -131.5 33t-95 96t-35.5 151t34 150.5t89.5 104t120 66t128 36t110.5 12.5q0 102 -34 144.5t-116 42.5q-62 0 -119 -20.5t-121 -60.5l-18 182q73 46 152 69.5t159 23.5q98 0 169 -37.5t109 -120t38 -217.5v-296q0 -73 6 -111t22 -52t45 -14h29l-18 -182
h-82q-47 0 -84 15.5t-64 43.5t-43 67q-48 -57 -108 -91.5t-142 -34.5zM367 153q42 0 80 25.5t69 68.5v230q-71 -6 -129 -27.5t-92 -63t-34 -107.5q0 -67 29.5 -96.5t76.5 -29.5zM686 0h117q-57 -55 -96 -107t-39 -108q0 -44 26.5 -67t68.5 -23q27 0 50 6t46 16l33 -104
q-26 -14 -63 -23.5t-86 -9.5q-83 0 -140.5 43.5t-57.5 126.5q0 77 43 137t98 113z" />
    <glyph glyph-name="Cacute" unicode="&#x106;" horiz-adv-x="1048" 
d="M686 -28q-182 0 -323.5 89t-222 252t-80.5 387t81.5 387.5t223 252t321.5 88.5q95 0 172 -18t138 -46l-25 -218q-60 28 -119 46t-133 18q-132 0 -225 -64t-141 -179t-48 -267t48.5 -267t141 -179t224.5 -64q74 0 133.5 17.5t118.5 44.5l25 -218q-59 -28 -137.5 -45
t-172.5 -17zM510 1522v130l306 160v-198z" />
    <glyph glyph-name="cacute" unicode="&#x107;" horiz-adv-x="770" 
d="M514 -20q-155 0 -258.5 69.5t-155.5 186t-52 257.5q0 143 51.5 260.5t156.5 187t265 69.5q60 0 112 -11t89 -29l-21 -180q-35 18 -75.5 28.5t-85.5 10.5q-129 0 -200 -91t-71 -242q0 -146 70.5 -240.5t201.5 -94.5q46 0 86 10t78 30l19 -179q-38 -18 -93.5 -30
t-116.5 -12zM317 1160v145l306 191v-218z" />
    <glyph glyph-name="Ccircumflex" unicode="&#x108;" horiz-adv-x="1048" 
d="M686 -28q-182 0 -323.5 89t-222 252t-80.5 387t81.5 387.5t223 252t321.5 88.5q95 0 172 -18t138 -46l-25 -218q-60 28 -119 46t-133 18q-132 0 -225 -64t-141 -179t-48 -267t48.5 -267t141 -179t224.5 -64q74 0 133.5 17.5t118.5 44.5l25 -218q-59 -28 -137.5 -45
t-172.5 -17zM422 1497v139l240 169l240 -169v-139l-240 129z" />
    <glyph glyph-name="ccircumflex" unicode="&#x109;" horiz-adv-x="770" 
d="M514 -20q-155 0 -258.5 69.5t-155.5 186t-52 257.5q0 143 51.5 260.5t156.5 187t265 69.5q60 0 112 -11t89 -29l-21 -180q-35 18 -75.5 28.5t-85.5 10.5q-129 0 -200 -91t-71 -242q0 -146 70.5 -240.5t201.5 -94.5q46 0 86 10t78 30l19 -179q-38 -18 -93.5 -30
t-116.5 -12zM249 1128v145l220 187l220 -187v-145l-220 138z" />
    <glyph glyph-name="Cdotaccent" unicode="&#x10a;" horiz-adv-x="1048" 
d="M686 -28q-182 0 -323.5 89t-222 252t-80.5 387t81.5 387.5t223 252t321.5 88.5q95 0 172 -18t138 -46l-25 -218q-60 28 -119 46t-133 18q-132 0 -225 -64t-141 -179t-48 -267t48.5 -267t141 -179t224.5 -64q74 0 133.5 17.5t118.5 44.5l25 -218q-59 -28 -137.5 -45
t-172.5 -17zM565 1583v189h194v-189h-194z" />
    <glyph glyph-name="cdotaccent" unicode="&#x10b;" horiz-adv-x="770" 
d="M514 -20q-155 0 -258.5 69.5t-155.5 186t-52 257.5q0 143 51.5 260.5t156.5 187t265 69.5q60 0 112 -11t89 -29l-21 -180q-35 18 -75.5 28.5t-85.5 10.5q-129 0 -200 -91t-71 -242q0 -146 70.5 -240.5t201.5 -94.5q46 0 86 10t78 30l19 -179q-38 -18 -93.5 -30
t-116.5 -12zM376 1196v189h186v-189h-186z" />
    <glyph glyph-name="Ccaron" unicode="&#x10c;" horiz-adv-x="1048" 
d="M686 -28q-182 0 -323.5 89t-222 252t-80.5 387t81.5 387.5t223 252t321.5 88.5q95 0 172 -18t138 -46l-25 -218q-60 28 -119 46t-133 18q-132 0 -225 -64t-141 -179t-48 -267t48.5 -267t141 -179t224.5 -64q74 0 133.5 17.5t118.5 44.5l25 -218q-59 -28 -137.5 -45
t-172.5 -17zM422 1871v-139l240 -169l240 169v139l-240 -129z" />
    <glyph glyph-name="ccaron" unicode="&#x10d;" horiz-adv-x="770" 
d="M514 -20q-155 0 -258.5 69.5t-155.5 186t-52 257.5q0 143 51.5 260.5t156.5 187t265 69.5q60 0 112 -11t89 -29l-21 -180q-35 18 -75.5 28.5t-85.5 10.5q-129 0 -200 -91t-71 -242q0 -146 70.5 -240.5t201.5 -94.5q46 0 86 10t78 30l19 -179q-38 -18 -93.5 -30
t-116.5 -12zM469 1124l-220 187v145l220 -139l220 139v-145z" />
    <glyph glyph-name="Dcaron" unicode="&#x10e;" horiz-adv-x="1238" 
d="M132 0v1400h451q171 0 305.5 -83.5t211 -240t76.5 -376.5t-76.5 -376.5t-211 -240t-305.5 -83.5h-451zM354 204h217q119 0 199.5 60t120.5 171t40 265t-40 265.5t-120.5 171t-199.5 59.5h-217v-992zM380 1871v-139l240 -169l240 169v139l-240 -129z" />
    <glyph glyph-name="dcaron" unicode="&#x10f;" horiz-adv-x="1122" 
d="M437 -20q-124 0 -213 69.5t-136.5 186.5t-47.5 258q0 139 46.5 256.5t135.5 188.5t215 71q96 0 165.5 -41t119.5 -109l-57 -42v682h217v-1500h-201l-20 184l68 -43q-52 -76 -122.5 -118.5t-169.5 -42.5zM466 161q69 0 116.5 39.5t71.5 114t24 179.5q0 104 -24 179
t-71.5 115.5t-116.5 40.5q-63 0 -109 -43t-71 -118.5t-25 -173.5q0 -95 25 -170.5t71 -119t109 -43.5zM962 1153v347h188l-57 -347h-131z" />
    <glyph glyph-name="Dcroat" unicode="&#x110;" horiz-adv-x="1249" 
d="M144 0v608h-119v194h119v598h449q172 0 306 -83.5t211 -240t77 -376.5t-77 -376.5t-211 -240t-306 -83.5h-449zM366 204h215q180 0 270.5 132.5t90.5 363.5q0 232 -90.5 364t-270.5 132h-215v-394h224v-194h-224v-404z" />
    <glyph glyph-name="dcroat" unicode="&#x111;" horiz-adv-x="1006" 
d="M385 1174v157h620v-157h-620zM437 -20q-124 0 -213 69.5t-136.5 186.5t-47.5 258q0 139 46.5 256.5t135.5 188.5t215 71q96 0 165.5 -41t119.5 -109l-57 -42v682h217v-1500h-201l-20 184l68 -43q-52 -76 -122.5 -118.5t-169.5 -42.5zM466 161q69 0 116.5 39.5t71.5 114
t24 179.5q0 104 -24 179t-71.5 115.5t-116.5 40.5q-63 0 -109 -43t-71 -118.5t-25 -173.5q0 -95 25 -170.5t71 -119t109 -43.5z" />
    <glyph glyph-name="Emacron" unicode="&#x112;" horiz-adv-x="980" 
d="M132 0v1400h773v-204h-551v-361h428v-204h-428v-427h568v-204h-790zM214 1586v139h610v-139h-610z" />
    <glyph glyph-name="emacron" unicode="&#x113;" horiz-adv-x="887" 
d="M515 -20q-156 0 -260 71.5t-155.5 189t-51.5 258.5q0 142 49 258t143.5 184.5t231.5 68.5q112 0 194.5 -52t128 -149t45.5 -231q0 -27 -3 -56t-8 -60h-559q8 -103 44.5 -169.5t94.5 -98t127 -31.5q71 0 137 19.5t119 52.5l10 -191q-52 -28 -124.5 -46t-162.5 -18z
M275 614h345q0 60 -15 108t-49.5 76.5t-92.5 28.5q-77 0 -124.5 -53.5t-63.5 -159.5zM188 1198v148h570v-148h-570z" />
    <glyph glyph-name="Ebreve" unicode="&#x114;" horiz-adv-x="980" 
d="M132 0v1400h773v-204h-551v-361h428v-204h-428v-427h568v-204h-790zM519 1529q-90 0 -153 34.5t-96 90t-33 120.5h166q0 -56 32.5 -84.5t83.5 -28.5t83.5 28.5t32.5 84.5h166q0 -65 -32.5 -120.5t-95 -90t-154.5 -34.5z" />
    <glyph glyph-name="ebreve" unicode="&#x115;" horiz-adv-x="887" 
d="M515 -20q-156 0 -260 71.5t-155.5 189t-51.5 258.5q0 142 49 258t143.5 184.5t231.5 68.5q112 0 194.5 -52t128 -149t45.5 -231q0 -27 -3 -56t-8 -60h-559q8 -103 44.5 -169.5t94.5 -98t127 -31.5q71 0 137 19.5t119 52.5l10 -191q-52 -28 -124.5 -46t-162.5 -18z
M275 614h345q0 60 -15 108t-49.5 76.5t-92.5 28.5q-77 0 -124.5 -53.5t-63.5 -159.5zM473 1166q-89 0 -150.5 35t-93.5 93t-32 127h160q0 -53 29.5 -84t86.5 -31q58 0 87 31t29 84h160q0 -69 -32 -127t-93.5 -93t-150.5 -35z" />
    <glyph glyph-name="Edotaccent" unicode="&#x116;" horiz-adv-x="980" 
d="M132 0v1400h773v-204h-551v-361h428v-204h-428v-427h568v-204h-790zM422 1583v189h194v-189h-194z" />
    <glyph glyph-name="edotaccent" unicode="&#x117;" horiz-adv-x="887" 
d="M515 -20q-156 0 -260 71.5t-155.5 189t-51.5 258.5q0 142 49 258t143.5 184.5t231.5 68.5q112 0 194.5 -52t128 -149t45.5 -231q0 -27 -3 -56t-8 -60h-559q8 -103 44.5 -169.5t94.5 -98t127 -31.5q71 0 137 19.5t119 52.5l10 -191q-52 -28 -124.5 -46t-162.5 -18z
M275 614h345q0 60 -15 108t-49.5 76.5t-92.5 28.5q-77 0 -124.5 -53.5t-63.5 -159.5zM380 1196v189h186v-189h-186z" />
    <glyph glyph-name="Eogonek" unicode="&#x118;" horiz-adv-x="980" 
d="M132 0v1400h773v-204h-551v-361h428v-204h-428v-427h568v-204h-790zM805 0h117q-57 -55 -96 -107t-39 -108q0 -44 26.5 -67t68.5 -23q27 0 50 6t46 16l33 -104q-26 -14 -63 -23.5t-86 -9.5q-83 0 -140.5 43.5t-57.5 126.5q0 77 43 137t98 113z" />
    <glyph glyph-name="eogonek" unicode="&#x119;" horiz-adv-x="887" 
d="M515 -20q-156 0 -260 71.5t-155.5 189t-51.5 258.5q0 142 49 258t143.5 184.5t231.5 68.5q112 0 194.5 -52t128 -149t45.5 -231q0 -27 -3 -56t-8 -60h-559q8 -103 44.5 -169.5t94.5 -98t127 -31.5q71 0 137 19.5t119 52.5l10 -191q-52 -28 -124.5 -46t-162.5 -18z
M275 614h345q0 60 -15 108t-49.5 76.5t-92.5 28.5q-77 0 -124.5 -53.5t-63.5 -159.5zM685 44h117q-57 -55 -96 -107t-39 -108q0 -44 26.5 -67t68.5 -23q27 0 50 6t46 16l33 -104q-26 -14 -63 -23.5t-86 -9.5q-83 0 -140.5 43.5t-57.5 126.5q0 77 43 137t98 113z" />
    <glyph glyph-name="Ecaron" unicode="&#x11a;" horiz-adv-x="980" 
d="M132 0v1400h773v-204h-551v-361h428v-204h-428v-427h568v-204h-790zM279 1871v-139l240 -169l240 169v139l-240 -129z" />
    <glyph glyph-name="ecaron" unicode="&#x11b;" horiz-adv-x="887" 
d="M515 -20q-156 0 -260 71.5t-155.5 189t-51.5 258.5q0 142 49 258t143.5 184.5t231.5 68.5q112 0 194.5 -52t128 -149t45.5 -231q0 -27 -3 -56t-8 -60h-559q8 -103 44.5 -169.5t94.5 -98t127 -31.5q71 0 137 19.5t119 52.5l10 -191q-52 -28 -124.5 -46t-162.5 -18z
M275 614h345q0 60 -15 108t-49.5 76.5t-92.5 28.5q-77 0 -124.5 -53.5t-63.5 -159.5zM473 1124l-220 187v145l220 -139l220 139v-145z" />
    <glyph glyph-name="Gcircumflex" unicode="&#x11c;" horiz-adv-x="1142" 
d="M696 -28q-194 0 -337 91.5t-221 255.5t-78 381q0 224 83.5 387.5t228 252t328.5 88.5q99 0 178.5 -18t143.5 -46l-25 -218q-63 28 -126 46t-144 18q-135 0 -229.5 -64t-143.5 -179t-49 -267q0 -155 45.5 -270t136.5 -177.5t226 -62.5q33 0 66.5 5.5t60.5 15.5v287h-167
v204h389v-632q-66 -44 -162 -71t-204 -27zM454 1497v139l240 169l240 -169v-139l-240 129z" />
    <glyph glyph-name="gcircumflex" unicode="&#x11d;" horiz-adv-x="858" 
d="M438 -500q-116 0 -205 32t-140 93.5t-51 149.5q0 78 42 135.5t111 101.5q-46 24 -67.5 58t-21.5 78q0 47 26 81.5t73 59.5q-73 53 -113 140.5t-40 191.5q0 108 42.5 196.5t122 140.5t191.5 52q66 0 121 -18.5t98 -53.5q38 35 80.5 53.5t86.5 18.5q17 0 29 -1t21 -3
l-18 -149q-7 2 -16.5 3t-23.5 1q-20 0 -39.5 -3.5t-39.5 -12.5q28 -47 42.5 -104t14.5 -120q0 -108 -42.5 -197.5t-122 -143.5t-191.5 -54q-22 0 -43.5 2.5t-41.5 6.5q-24 -14 -24 -37q0 -22 19.5 -35t61.5 -25l182 -45q155 -40 226.5 -104.5t71.5 -184.5q0 -94 -54.5 -162
t-149.5 -105t-218 -37zM446 -333q95 0 156.5 31.5t61.5 92.5q0 52 -35.5 80t-120.5 50l-168 45q-51 -32 -84.5 -70.5t-33.5 -89.5q0 -69 62 -104t162 -35zM408 391q75 0 115 63.5t40 165.5q0 98 -40 161.5t-115 63.5q-76 0 -115.5 -63.5t-39.5 -161.5q0 -102 39.5 -165.5
t115.5 -63.5zM235 1128v145l220 187l220 -187v-145l-220 138z" />
    <glyph glyph-name="Gbreve" unicode="&#x11e;" horiz-adv-x="1142" 
d="M696 -28q-194 0 -337 91.5t-221 255.5t-78 381q0 224 83.5 387.5t228 252t328.5 88.5q99 0 178.5 -18t143.5 -46l-25 -218q-63 28 -126 46t-144 18q-135 0 -229.5 -64t-143.5 -179t-49 -267q0 -155 45.5 -270t136.5 -177.5t226 -62.5q33 0 66.5 5.5t60.5 15.5v287h-167
v204h389v-632q-66 -44 -162 -71t-204 -27zM694 1529q-90 0 -153 34.5t-96 90t-33 120.5h166q0 -56 32.5 -84.5t83.5 -28.5t83.5 28.5t32.5 84.5h166q0 -65 -32.5 -120.5t-95 -90t-154.5 -34.5z" />
    <glyph glyph-name="gbreve" unicode="&#x11f;" horiz-adv-x="858" 
d="M438 -500q-116 0 -205 32t-140 93.5t-51 149.5q0 78 42 135.5t111 101.5q-46 24 -67.5 58t-21.5 78q0 47 26 81.5t73 59.5q-73 53 -113 140.5t-40 191.5q0 108 42.5 196.5t122 140.5t191.5 52q66 0 121 -18.5t98 -53.5q38 35 80.5 53.5t86.5 18.5q17 0 29 -1t21 -3
l-18 -149q-7 2 -16.5 3t-23.5 1q-20 0 -39.5 -3.5t-39.5 -12.5q28 -47 42.5 -104t14.5 -120q0 -108 -42.5 -197.5t-122 -143.5t-191.5 -54q-22 0 -43.5 2.5t-41.5 6.5q-24 -14 -24 -37q0 -22 19.5 -35t61.5 -25l182 -45q155 -40 226.5 -104.5t71.5 -184.5q0 -94 -54.5 -162
t-149.5 -105t-218 -37zM446 -333q95 0 156.5 31.5t61.5 92.5q0 52 -35.5 80t-120.5 50l-168 45q-51 -32 -84.5 -70.5t-33.5 -89.5q0 -69 62 -104t162 -35zM408 391q75 0 115 63.5t40 165.5q0 98 -40 161.5t-115 63.5q-76 0 -115.5 -63.5t-39.5 -161.5q0 -102 39.5 -165.5
t115.5 -63.5zM455 1166q-89 0 -150.5 35t-93.5 93t-32 127h160q0 -53 29.5 -84t86.5 -31q58 0 87 31t29 84h160q0 -69 -32 -127t-93.5 -93t-150.5 -35z" />
    <glyph glyph-name="Gdotaccent" unicode="&#x120;" horiz-adv-x="1142" 
d="M696 -28q-194 0 -337 91.5t-221 255.5t-78 381q0 224 83.5 387.5t228 252t328.5 88.5q99 0 178.5 -18t143.5 -46l-25 -218q-63 28 -126 46t-144 18q-135 0 -229.5 -64t-143.5 -179t-49 -267q0 -155 45.5 -270t136.5 -177.5t226 -62.5q33 0 66.5 5.5t60.5 15.5v287h-167
v204h389v-632q-66 -44 -162 -71t-204 -27zM597 1583v189h194v-189h-194z" />
    <glyph glyph-name="gdotaccent" unicode="&#x121;" horiz-adv-x="858" 
d="M438 -500q-116 0 -205 32t-140 93.5t-51 149.5q0 78 42 135.5t111 101.5q-46 24 -67.5 58t-21.5 78q0 47 26 81.5t73 59.5q-73 53 -113 140.5t-40 191.5q0 108 42.5 196.5t122 140.5t191.5 52q66 0 121 -18.5t98 -53.5q38 35 80.5 53.5t86.5 18.5q17 0 29 -1t21 -3
l-18 -149q-7 2 -16.5 3t-23.5 1q-20 0 -39.5 -3.5t-39.5 -12.5q28 -47 42.5 -104t14.5 -120q0 -108 -42.5 -197.5t-122 -143.5t-191.5 -54q-22 0 -43.5 2.5t-41.5 6.5q-24 -14 -24 -37q0 -22 19.5 -35t61.5 -25l182 -45q155 -40 226.5 -104.5t71.5 -184.5q0 -94 -54.5 -162
t-149.5 -105t-218 -37zM446 -333q95 0 156.5 31.5t61.5 92.5q0 52 -35.5 80t-120.5 50l-168 45q-51 -32 -84.5 -70.5t-33.5 -89.5q0 -69 62 -104t162 -35zM408 391q75 0 115 63.5t40 165.5q0 98 -40 161.5t-115 63.5q-76 0 -115.5 -63.5t-39.5 -161.5q0 -102 39.5 -165.5
t115.5 -63.5zM362 1196v189h186v-189h-186z" />
    <glyph glyph-name="uni0122" unicode="&#x122;" horiz-adv-x="1142" 
d="M696 -28q-194 0 -337 91.5t-221 255.5t-78 381q0 224 83.5 387.5t228 252t328.5 88.5q99 0 178.5 -18t143.5 -46l-25 -218q-63 28 -126 46t-144 18q-135 0 -229.5 -64t-143.5 -179t-49 -267q0 -155 45.5 -270t136.5 -177.5t226 -62.5q33 0 66.5 5.5t60.5 15.5v287h-167
v204h389v-632q-66 -44 -162 -71t-204 -27zM683 -586h-90l81 218h-66v186h194v-163z" />
    <glyph glyph-name="uni0123" unicode="&#x123;" horiz-adv-x="858" 
d="M438 -500q-116 0 -205 32t-140 93.5t-51 149.5q0 78 42 135.5t111 101.5q-46 24 -67.5 58t-21.5 78q0 47 26 81.5t73 59.5q-73 53 -113 140.5t-40 191.5q0 108 42.5 196.5t122 140.5t191.5 52q66 0 121 -18.5t98 -53.5q38 35 80.5 53.5t86.5 18.5q17 0 29 -1t21 -3
l-18 -149q-7 2 -16.5 3t-23.5 1q-20 0 -39.5 -3.5t-39.5 -12.5q28 -47 42.5 -104t14.5 -120q0 -108 -42.5 -197.5t-122 -143.5t-191.5 -54q-22 0 -43.5 2.5t-41.5 6.5q-24 -14 -24 -37q0 -22 19.5 -35t61.5 -25l182 -45q155 -40 226.5 -104.5t71.5 -184.5q0 -94 -54.5 -162
t-149.5 -105t-218 -37zM446 -333q95 0 156.5 31.5t61.5 92.5q0 52 -35.5 80t-120.5 50l-168 45q-51 -32 -84.5 -70.5t-33.5 -89.5q0 -69 62 -104t162 -35zM408 391q75 0 115 63.5t40 165.5q0 98 -40 161.5t-115 63.5q-76 0 -115.5 -63.5t-39.5 -161.5q0 -102 39.5 -165.5
t115.5 -63.5zM479 1570h90l-81 -218h66v-186h-194v163z" />
    <glyph glyph-name="Hcircumflex" unicode="&#x124;" horiz-adv-x="1272" 
d="M132 0v1400h222v-563h564v563h222v-1400h-222v619h-564v-619h-222zM396 1497v139l240 169l240 -169v-139l-240 129z" />
    <glyph glyph-name="hcircumflex" unicode="&#x125;" horiz-adv-x="950" 
d="M97 0v1500h217v-653l-60 -3q46 78 118.5 122t175.5 44q104 0 172.5 -49.5t103 -137.5t34.5 -205v-618h-217v590q0 116 -36 176.5t-115 60.5q-73 0 -124.5 -45t-84.5 -122l33 137v-797h-217zM-34 1597v139l240 169l240 -169v-139l-240 129z" />
    <glyph glyph-name="Hbar" unicode="&#x126;" horiz-adv-x="1301" 
d="M146 0v1400h223v-563h563v563h222v-1400h-222v619h-563v-619h-223zM33 985v160h1235v-160h-1235z" />
    <glyph glyph-name="hbar" unicode="&#x127;" horiz-adv-x="976" 
d="M124 0v1500h217v-653l-60 -3q46 78 118.5 122t175.5 44t172 -49.5t103.5 -138t34.5 -204.5v-618h-217v590q0 116 -36.5 176.5t-114.5 60.5q-73 0 -125 -45t-84 -122l33 137v-797h-217zM1 1174v157h620v-157h-620z" />
    <glyph glyph-name="Itilde" unicode="&#x128;" horiz-adv-x="483" 
d="M130 0v1400h222v-1400h-222zM391 1562q-46 0 -89.5 19.5t-83 39t-73.5 19.5q-58 0 -58 -66h-144q0 101 37.5 154t110.5 53q46 0 89.5 -19.5t83 -39t73.5 -19.5q58 0 58 65h144q0 -99 -37 -152.5t-111 -53.5z" />
    <glyph glyph-name="itilde" unicode="&#x129;" horiz-adv-x="413" 
d="M98 0v993h217v-993h-217zM346 1157q-52 0 -90 23t-70 45.5t-67 22.5q-55 0 -55 -75h-155q5 114 45 174.5t114 60.5q52 0 90 -22.5t70 -45t67 -22.5q55 0 55 74h155q-4 -114 -44 -174.5t-115 -60.5z" />
    <glyph glyph-name="Imacron" unicode="&#x12a;" horiz-adv-x="483" 
d="M130 0v1400h222v-1400h-222zM-64 1586v139h610v-139h-610z" />
    <glyph glyph-name="imacron" unicode="&#x12b;" horiz-adv-x="413" 
d="M98 0v993h217v-993h-217zM-78 1198v148h570v-148h-570z" />
    <glyph glyph-name="Ibreve" unicode="&#x12c;" horiz-adv-x="483" 
d="M130 0v1400h222v-1400h-222zM241 1529q-90 0 -153 34.5t-96 90t-33 120.5h166q0 -56 32.5 -84.5t83.5 -28.5t83.5 28.5t32.5 84.5h166q0 -65 -32.5 -120.5t-95 -90t-154.5 -34.5z" />
    <glyph glyph-name="ibreve" unicode="&#x12d;" horiz-adv-x="413" 
d="M98 0v993h217v-993h-217zM207 1166q-89 0 -150.5 35t-93.5 93t-32 127h160q0 -53 29.5 -84t86.5 -31q58 0 87 31t29 84h160q0 -69 -32 -127t-93.5 -93t-150.5 -35z" />
    <glyph glyph-name="Iogonek" unicode="&#x12e;" horiz-adv-x="483" 
d="M130 0v1400h222v-1400h-222zM235 0h117q-57 -55 -96 -107t-39 -108q0 -44 26.5 -67t68.5 -23q27 0 50 6t46 16l33 -104q-26 -14 -63 -23.5t-86 -9.5q-83 0 -140.5 43.5t-57.5 126.5q0 77 43 137t98 113z" />
    <glyph glyph-name="iogonek" unicode="&#x12f;" horiz-adv-x="413" 
d="M98 0v993h217v-993h-217zM98 1169v231h217v-231h-217zM198 0h117q-57 -55 -96 -107t-39 -108q0 -44 26.5 -67t68.5 -23q27 0 50 6t46 16l33 -104q-26 -14 -63 -23.5t-86 -9.5q-83 0 -140.5 43.5t-57.5 126.5q0 77 43 137t98 113z" />
    <glyph glyph-name="Idotaccent" unicode="&#x130;" horiz-adv-x="483" 
d="M130 0v1400h222v-1400h-222zM144 1583v189h194v-189h-194z" />
    <glyph glyph-name="dotlessi" unicode="&#x131;" horiz-adv-x="413" 
d="M98 0v993h217v-993h-217z" />
    <glyph glyph-name="IJ" unicode="&#x132;" horiz-adv-x="1198" 
d="M346 494q7 -89 32 -157.5t77.5 -107.5t143.5 -39q82 0 132.5 31t78 88t37 132.5t9.5 164.5v794h223v-855q0 -175 -51.5 -303.5t-158 -199t-270.5 -70.5q-227 0 -343 132t-133 359zM119 659v741h222v-741h-222z" />
    <glyph glyph-name="ij" unicode="&#x133;" horiz-adv-x="827" 
d="M98 0v993h217v-993h-217zM98 1169v231h217v-231h-217zM428 -484l-19 180q39 2 61.5 15.5t32 46t9.5 90.5v1145h217v-1212q0 -90 -27.5 -146t-81 -84t-130.5 -31zM512 1169v231h217v-231h-217z" />
    <glyph glyph-name="Jcircumflex" unicode="&#x134;" horiz-adv-x="485" 
d="M12 -344l-18 197q75 0 105.5 31.5t30.5 112.5v1403h222v-1454q0 -148 -81 -219t-217 -71h-42zM1 1497v139l240 169l240 -169v-139l-240 129z" />
    <glyph glyph-name="jcircumflex" unicode="&#x135;" horiz-adv-x="414" 
d="M15 -484l-19 180q39 2 61.5 15.5t32 46t9.5 90.5v1145h217v-1212q0 -90 -27.5 -146t-81 -84t-130.5 -31zM-13 1128v145l220 187l220 -187v-145l-220 138z" />
    <glyph glyph-name="uni0136" unicode="&#x136;" horiz-adv-x="1053" 
d="M793 0l-432 741l432 659h258l-441 -659l441 -741h-258zM129 0v1400h222v-1400h-222zM550 -586h-90l81 218h-66v186h194v-163z" />
    <glyph glyph-name="uni0137" unicode="&#x137;" horiz-adv-x="841" 
d="M97 0v1500h217v-923l263 416h250l-306 -465l313 -528h-250l-270 470v-470h-217zM428 -586h-90l81 218h-66v186h194v-163z" />
    <glyph glyph-name="kgreenlandic" unicode="&#x138;" horiz-adv-x="939" 
d="M100 0v993h217v-431l343 431h265l-400 -484l404 -509h-265l-347 455v-455h-217z" />
    <glyph glyph-name="Lacute" unicode="&#x139;" horiz-adv-x="860" 
d="M132 0v1400h222v-1196h494v-204h-716zM91 1522v130l306 160v-198z" />
    <glyph glyph-name="lacute" unicode="&#x13a;" horiz-adv-x="456" 
d="M319 -20q-77 0 -125.5 33t-71.5 90.5t-23 129.5v1267h216v-1177q0 -65 7.5 -100t30 -48t65.5 -13l-20 -182h-79zM55 1622v130l306 160v-198z" />
    <glyph glyph-name="uni013B" unicode="&#x13b;" horiz-adv-x="860" 
d="M132 0v1400h222v-1196h494v-204h-716zM468 -586h-90l81 218h-66v186h194v-163z" />
    <glyph glyph-name="uni013C" unicode="&#x13c;" horiz-adv-x="456" 
d="M319 -20q-77 0 -125.5 33t-71.5 90.5t-23 129.5v1267h216v-1177q0 -65 7.5 -100t30 -48t65.5 -13l-20 -182h-79zM255 -586h-90l81 218h-66v186h194v-163z" />
    <glyph glyph-name="Lcaron" unicode="&#x13d;" horiz-adv-x="860" 
d="M132 0v1400h222v-1196h494v-204h-716zM660 1053v347h188l-57 -347h-131z" />
    <glyph glyph-name="lcaron" unicode="&#x13e;" horiz-adv-x="556" 
d="M319 -20q-77 0 -125.5 33t-71.5 90.5t-23 129.5v1267h216v-1177q0 -65 7.5 -100t30 -48t65.5 -13l-20 -182h-79zM395 1153v347h188l-57 -347h-131z" />
    <glyph glyph-name="Ldot" unicode="&#x13f;" horiz-adv-x="860" 
d="M132 0v1400h222v-1196h494v-204h-716zM557 658v240h232v-240h-232z" />
    <glyph glyph-name="ldot" unicode="&#x140;" horiz-adv-x="612" 
d="M319 -20q-77 0 -125.5 33t-71.5 90.5t-23 129.5v1267h216v-1177q0 -65 7.5 -100t30 -48t65.5 -13l-20 -182h-79zM414 721v218h198v-218h-198z" />
    <glyph glyph-name="Lslash" unicode="&#x141;" horiz-adv-x="876" 
d="M148 0v1400h222v-1196h494v-204h-716zM34 713v175l660 180v-174z" />
    <glyph glyph-name="lslash" unicode="&#x142;" horiz-adv-x="459" 
d="M301 -20q-76 0 -124.5 33t-72 90.5t-23.5 129.5v1267h217v-1177q0 -65 7.5 -100t29.5 -48t66 -13l-20 -182h-80zM-34 772v160l469 128v-160z" />
    <glyph glyph-name="Nacute" unicode="&#x143;" horiz-adv-x="1216" 
d="M132 0v1400h235l495 -928v928h222v-1400h-198l-532 985v-985h-222zM463 1522v130l306 160v-198z" />
    <glyph glyph-name="nacute" unicode="&#x144;" horiz-adv-x="952" 
d="M100 0v993h187l16 -146l-46 -3q45 78 118 122t175 44q156 0 233.5 -108.5t77.5 -283.5v-618h-217v590q0 117 -36.5 178t-114.5 61q-73 0 -125 -45.5t-84 -123.5l33 137v-797h-217zM339 1147v145l306 191v-218z" />
    <glyph glyph-name="uni0145" unicode="&#x145;" horiz-adv-x="1216" 
d="M132 0v1400h235l495 -928v928h222v-1400h-198l-532 985v-985h-222zM598 -586h-90l81 218h-66v186h194v-163z" />
    <glyph glyph-name="uni0146" unicode="&#x146;" horiz-adv-x="952" 
d="M100 0v993h187l16 -146l-46 -3q45 78 118 122t175 44q156 0 233.5 -108.5t77.5 -283.5v-618h-217v590q0 117 -36.5 178t-114.5 61q-73 0 -125 -45.5t-84 -123.5l33 137v-797h-217zM459 -586h-90l81 218h-66v186h194v-163z" />
    <glyph glyph-name="Ncaron" unicode="&#x147;" horiz-adv-x="1216" 
d="M132 0v1400h235l495 -928v928h222v-1400h-198l-532 985v-985h-222zM375 1871v-139l240 -169l240 169v139l-240 -129z" />
    <glyph glyph-name="ncaron" unicode="&#x148;" horiz-adv-x="952" 
d="M100 0v993h187l16 -146l-46 -3q45 78 118 122t175 44q156 0 233.5 -108.5t77.5 -283.5v-618h-217v590q0 117 -36.5 178t-114.5 61q-73 0 -125 -45.5t-84 -123.5l33 137v-797h-217zM491 1111l-220 187v145l220 -139l220 139v-145z" />
    <glyph glyph-name="napostrophe" unicode="&#x149;" horiz-adv-x="1253" 
d="M197 996h-90l81 218h-66v186h194v-163zM401 0v993h187l16 -146l-46 -3q45 78 118 122t175 44q156 0 233.5 -108.5t77.5 -283.5v-618h-217v590q0 117 -36.5 178t-114.5 61q-73 0 -125 -45.5t-84 -123.5l33 137v-797h-217z" />
    <glyph glyph-name="Eng" unicode="&#x14a;" horiz-adv-x="1303" 
d="M1183 100q0 -168 -61.5 -277.5t-170 -163.5t-247.5 -54q-88 0 -169 22l26 197q35 -8 71.5 -12t72.5 -4q116 0 186 68.5t70 206.5v751q0 188 -76 289t-226 101q-106 0 -182.5 -41t-124.5 -104v-1079h-222v1400h187l12 -134q73 79 173 120.5t211 41.5q157 0 261.5 -70
t156.5 -196.5t52 -294.5v-767z" />
    <glyph glyph-name="eng" unicode="&#x14b;" horiz-adv-x="972" 
d="M881 27q0 -130 -48.5 -215t-133 -127.5t-192.5 -42.5q-42 0 -86 6t-76 16l26 177q59 -18 119 -18q75 0 122 46.5t47 139.5v581q0 123 -37 181t-123 58q-59 0 -105.5 -26t-76.5 -77v-726h-217v993h182l13 -88q57 52 122 78.5t139 26.5q169 0 247 -110t78 -290v-583z" />
    <glyph glyph-name="Omacron" unicode="&#x14c;" horiz-adv-x="1307" 
d="M654 -28q-172 0 -306 90t-211 253.5t-77 384.5t77 384.5t211 253.5t306 90t306.5 -90t210.5 -253.5t76 -384.5t-76 -384.5t-210.5 -253.5t-306.5 -90zM654 195q119 0 198 66t119 180.5t40 258.5t-39.5 258.5t-119.5 180.5t-198 66t-197.5 -66t-119.5 -180.5t-40 -258.5
t40 -258.5t119.5 -180.5t197.5 -66zM349 1586v139h610v-139h-610z" />
    <glyph glyph-name="omacron" unicode="&#x14d;" horiz-adv-x="969" 
d="M484 -20q-138 0 -235.5 70t-149 187t-51.5 258t51.5 258t149 187t235.5 70t236 -70t149.5 -187t51.5 -258t-51.5 -258t-149.5 -187t-236 -70zM484 161q104 0 160 91.5t56 243.5q0 151 -56 242t-160 91q-102 0 -158.5 -91t-56.5 -243q0 -151 56.5 -242.5t158.5 -91.5z
M200 1198v148h570v-148h-570z" />
    <glyph glyph-name="Obreve" unicode="&#x14e;" horiz-adv-x="1307" 
d="M654 -28q-172 0 -306 90t-211 253.5t-77 384.5t77 384.5t211 253.5t306 90t306.5 -90t210.5 -253.5t76 -384.5t-76 -384.5t-210.5 -253.5t-306.5 -90zM654 195q119 0 198 66t119 180.5t40 258.5t-39.5 258.5t-119.5 180.5t-198 66t-197.5 -66t-119.5 -180.5t-40 -258.5
t40 -258.5t119.5 -180.5t197.5 -66zM654 1529q-90 0 -153 34.5t-96 90t-33 120.5h166q0 -56 32.5 -84.5t83.5 -28.5t83.5 28.5t32.5 84.5h166q0 -65 -32.5 -120.5t-95 -90t-154.5 -34.5z" />
    <glyph glyph-name="obreve" unicode="&#x14f;" horiz-adv-x="969" 
d="M484 -20q-138 0 -235.5 70t-149 187t-51.5 258t51.5 258t149 187t235.5 70t236 -70t149.5 -187t51.5 -258t-51.5 -258t-149.5 -187t-236 -70zM484 161q104 0 160 91.5t56 243.5q0 151 -56 242t-160 91q-102 0 -158.5 -91t-56.5 -243q0 -151 56.5 -242.5t158.5 -91.5z
M485 1166q-89 0 -150.5 35t-93.5 93t-32 127h160q0 -53 29.5 -84t86.5 -31q58 0 87 31t29 84h160q0 -69 -32 -127t-93.5 -93t-150.5 -35z" />
    <glyph glyph-name="Ohungarumlaut" unicode="&#x150;" horiz-adv-x="1307" 
d="M654 -28q-172 0 -306 90t-211 253.5t-77 384.5t77 384.5t211 253.5t306 90t306.5 -90t210.5 -253.5t76 -384.5t-76 -384.5t-210.5 -253.5t-306.5 -90zM654 195q119 0 198 66t119 180.5t40 258.5t-39.5 258.5t-119.5 180.5t-198 66t-197.5 -66t-119.5 -180.5t-40 -258.5
t40 -258.5t119.5 -180.5t197.5 -66zM438 1576l112 306h209l-181 -306h-140zM719 1576l125 306h210l-195 -306h-140z" />
    <glyph glyph-name="ohungarumlaut" unicode="&#x151;" horiz-adv-x="969" 
d="M484 -20q-138 0 -235.5 70t-149 187t-51.5 258t51.5 258t149 187t235.5 70t236 -70t149.5 -187t51.5 -258t-51.5 -258t-149.5 -187t-236 -70zM484 161q104 0 160 91.5t56 243.5q0 151 -56 242t-160 91q-102 0 -158.5 -91t-56.5 -243q0 -151 56.5 -242.5t158.5 -91.5z
M553 1169l129 346h208l-198 -346h-139zM269 1169l116 346h208l-185 -346h-139z" />
    <glyph glyph-name="OE" unicode="&#x152;" horiz-adv-x="1865" 
d="M635 -28q-167 0 -296.5 90t-204 253.5t-74.5 384.5t74.5 384.5t204 253.5t296.5 90q127 0 232 -56.5t181 -156t117 -231.5t41 -284t-41 -284t-117 -231.5t-181 -156t-232 -56.5zM654 191q116 0 193.5 66.5t116.5 182t39 260.5t-39 260.5t-116.5 182t-193.5 66.5
t-193.5 -66.5t-116.5 -182t-39 -260.5t39 -260.5t116.5 -182t193.5 -66.5zM1017 0v1400h773v-220h-544v-339h421v-220h-421v-401h561v-220h-790z" />
    <glyph glyph-name="oe" unicode="&#x153;" horiz-adv-x="1541" 
d="M484 -20q-138 0 -235.5 70t-149 187t-51.5 258t51.5 258t149 187t235.5 70q125 0 216 -68t144 -178l-69 1q48 109 143 177t225 68q108 0 186.5 -50t121.5 -143t43 -221q0 -33 -3.5 -66t-10.5 -68h-552q10 -103 44.5 -168t91 -95.5t129.5 -30.5q75 0 138.5 22.5
t114.5 54.5l10 -185q-49 -31 -122.5 -55.5t-165.5 -24.5q-140 0 -238 66.5t-153 178.5l70 2q-51 -110 -144 -178.5t-219 -68.5zM484 168q103 0 158 89.5t55 237.5q0 149 -55 238t-158 89q-102 0 -158 -89t-56 -238q0 -148 56 -237.5t158 -89.5zM930 614h343q0 48 -13.5 96
t-46 80t-91.5 32q-78 0 -128 -54.5t-64 -153.5z" />
    <glyph glyph-name="Racute" unicode="&#x154;" horiz-adv-x="1077" 
d="M131 0v1400h390q142 0 247 -45.5t163 -140.5t58 -245q0 -128 -54 -224.5t-151 -152.5l272 -592h-253l-236 530q-8 0 -17.5 -0.5t-19.5 -0.5h-177v-529h-222zM353 725h148q128 0 192.5 57.5t64.5 181.5t-64.5 182t-192.5 58h-148v-479zM387 1522v130l306 160v-198z" />
    <glyph glyph-name="racute" unicode="&#x155;" horiz-adv-x="580" 
d="M99 0v993h186l18 -127q56 70 108.5 107t121.5 37q27 0 50 -6l-18 -226q-13 4 -28 6.5t-35 2.5q-55 0 -101.5 -28t-85.5 -73v-686h-216zM204 1160v145l306 191v-218z" />
    <glyph glyph-name="uni0156" unicode="&#x156;" horiz-adv-x="1077" 
d="M131 0v1400h390q142 0 247 -45.5t163 -140.5t58 -245q0 -128 -54 -224.5t-151 -152.5l272 -592h-253l-236 530q-8 0 -17.5 -0.5t-19.5 -0.5h-177v-529h-222zM353 725h148q128 0 192.5 57.5t64.5 181.5t-64.5 182t-192.5 58h-148v-479zM557 -586h-90l81 218h-66v186h194
v-163z" />
    <glyph glyph-name="uni0157" unicode="&#x157;" horiz-adv-x="580" 
d="M99 0v993h186l18 -127q56 70 108.5 107t121.5 37q27 0 50 -6l-18 -226q-13 4 -28 6.5t-35 2.5q-55 0 -101.5 -28t-85.5 -73v-686h-216zM185 -586h-90l81 218h-66v186h194v-163z" />
    <glyph glyph-name="Rcaron" unicode="&#x158;" horiz-adv-x="1077" 
d="M131 0v1400h390q142 0 247 -45.5t163 -140.5t58 -245q0 -128 -54 -224.5t-151 -152.5l272 -592h-253l-236 530q-8 0 -17.5 -0.5t-19.5 -0.5h-177v-529h-222zM353 725h148q128 0 192.5 57.5t64.5 181.5t-64.5 182t-192.5 58h-148v-479zM299 1871v-139l240 -169l240 169
v139l-240 -129z" />
    <glyph glyph-name="rcaron" unicode="&#x159;" horiz-adv-x="580" 
d="M99 0v993h186l18 -127q56 70 108.5 107t121.5 37q27 0 50 -6l-18 -226q-13 4 -28 6.5t-35 2.5q-55 0 -101.5 -28t-85.5 -73v-686h-216zM356 1124l-220 187v145l220 -139l220 139v-145z" />
    <glyph glyph-name="Sacute" unicode="&#x15a;" horiz-adv-x="1008" 
d="M477 -28q-71 0 -142.5 10.5t-136.5 29.5t-115 43l28 247q59 -34 121.5 -59t128 -39t132.5 -14q105 0 165.5 42.5t60.5 124.5q0 61 -29.5 104.5t-93 82t-166.5 84.5q-111 50 -190.5 104t-121.5 126.5t-42 180.5q0 114 56.5 202t161.5 137.5t249 49.5q106 0 196.5 -23
t161.5 -57l-23 -237q-93 49 -178 74t-174 25q-97 0 -153.5 -39t-56.5 -122q0 -61 35 -101.5t101 -75.5t160 -79q114 -54 191 -112.5t116 -133.5t39 -177q0 -91 -33 -164.5t-95 -125.5t-151 -80t-202 -28zM383 1522v130l306 160v-198z" />
    <glyph glyph-name="sacute" unicode="&#x15b;" horiz-adv-x="731" 
d="M351 -20q-86 0 -155 19t-135 55l22 199q62 -45 126 -71.5t126 -26.5q69 0 107 27t38 78q0 37 -16.5 62.5t-56 50t-109.5 57.5q-74 35 -125 74t-77.5 92t-26.5 131q0 83 40 147t113.5 100t175.5 36q81 0 143.5 -19.5t114.5 -50.5l-22 -191q-51 41 -102.5 66t-118.5 25
q-61 0 -98 -26.5t-37 -75.5q0 -54 43.5 -83.5t137.5 -76.5q58 -29 102 -59t72.5 -65.5t42.5 -79t14 -100.5q0 -92 -41.5 -158t-118 -101t-179.5 -35zM245 1160v145l306 191v-218z" />
    <glyph glyph-name="Scircumflex" unicode="&#x15c;" horiz-adv-x="1008" 
d="M477 -28q-71 0 -142.5 10.5t-136.5 29.5t-115 43l28 247q59 -34 121.5 -59t128 -39t132.5 -14q105 0 165.5 42.5t60.5 124.5q0 61 -29.5 104.5t-93 82t-166.5 84.5q-111 50 -190.5 104t-121.5 126.5t-42 180.5q0 114 56.5 202t161.5 137.5t249 49.5q106 0 196.5 -23
t161.5 -57l-23 -237q-93 49 -178 74t-174 25q-97 0 -153.5 -39t-56.5 -122q0 -61 35 -101.5t101 -75.5t160 -79q114 -54 191 -112.5t116 -133.5t39 -177q0 -91 -33 -164.5t-95 -125.5t-151 -80t-202 -28zM295 1497v139l240 169l240 -169v-139l-240 129z" />
    <glyph glyph-name="scircumflex" unicode="&#x15d;" horiz-adv-x="731" 
d="M351 -20q-86 0 -155 19t-135 55l22 199q62 -45 126 -71.5t126 -26.5q69 0 107 27t38 78q0 37 -16.5 62.5t-56 50t-109.5 57.5q-74 35 -125 74t-77.5 92t-26.5 131q0 83 40 147t113.5 100t175.5 36q81 0 143.5 -19.5t114.5 -50.5l-22 -191q-51 41 -102.5 66t-118.5 25
q-61 0 -98 -26.5t-37 -75.5q0 -54 43.5 -83.5t137.5 -76.5q58 -29 102 -59t72.5 -65.5t42.5 -79t14 -100.5q0 -92 -41.5 -158t-118 -101t-179.5 -35zM177 1128v145l220 187l220 -187v-145l-220 138z" />
    <glyph glyph-name="Scedilla" unicode="&#x15e;" horiz-adv-x="1008" 
d="M477 -28q-71 0 -142.5 10.5t-136.5 29.5t-115 43l28 247q59 -34 121.5 -59t128 -39t132.5 -14q105 0 165.5 42.5t60.5 124.5q0 61 -29.5 104.5t-93 82t-166.5 84.5q-111 50 -190.5 104t-121.5 126.5t-42 180.5q0 114 56.5 202t161.5 137.5t249 49.5q106 0 196.5 -23
t161.5 -57l-23 -237q-93 49 -178 74t-174 25q-97 0 -153.5 -39t-56.5 -122q0 -61 35 -101.5t101 -75.5t160 -79q114 -54 191 -112.5t116 -133.5t39 -177q0 -91 -33 -164.5t-95 -125.5t-151 -80t-202 -28zM540 -158l-62 35q18 5 34.5 8t36.5 3q77 0 121.5 -43.5t44.5 -122.5
q0 -93 -60 -142t-146 -49q-45 0 -79.5 8t-59.5 18l35 105q23 -10 48 -16t52 -6q44 0 69 20t25 59q0 37 -21.5 57t-64.5 20q-19 0 -38 -3.5t-39 -9.5l53 217h99z" />
    <glyph glyph-name="scedilla" unicode="&#x15f;" horiz-adv-x="731" 
d="M351 -20q-86 0 -155 19t-135 55l22 199q62 -45 126 -71.5t126 -26.5q69 0 107 27t38 78q0 37 -16.5 62.5t-56 50t-109.5 57.5q-74 35 -125 74t-77.5 92t-26.5 131q0 83 40 147t113.5 100t175.5 36q81 0 143.5 -19.5t114.5 -50.5l-22 -191q-51 41 -102.5 66t-118.5 25
q-61 0 -98 -26.5t-37 -75.5q0 -54 43.5 -83.5t137.5 -76.5q58 -29 102 -59t72.5 -65.5t42.5 -79t14 -100.5q0 -92 -41.5 -158t-118 -101t-179.5 -35zM379 -158l-62 35q18 5 34.5 8t36.5 3q77 0 121.5 -43.5t44.5 -122.5q0 -93 -60 -142t-146 -49q-45 0 -79.5 8t-59.5 18
l35 105q23 -10 48 -16t52 -6q44 0 69 20t25 59q0 37 -21.5 57t-64.5 20q-19 0 -38 -3.5t-39 -9.5l53 217h99z" />
    <glyph glyph-name="Scaron" unicode="&#x160;" horiz-adv-x="1008" 
d="M477 -28q-71 0 -142.5 10.5t-136.5 29.5t-115 43l28 247q59 -34 121.5 -59t128 -39t132.5 -14q105 0 165.5 42.5t60.5 124.5q0 61 -29.5 104.5t-93 82t-166.5 84.5q-111 50 -190.5 104t-121.5 126.5t-42 180.5q0 114 56.5 202t161.5 137.5t249 49.5q106 0 196.5 -23
t161.5 -57l-23 -237q-93 49 -178 74t-174 25q-97 0 -153.5 -39t-56.5 -122q0 -61 35 -101.5t101 -75.5t160 -79q114 -54 191 -112.5t116 -133.5t39 -177q0 -91 -33 -164.5t-95 -125.5t-151 -80t-202 -28zM295 1871v-139l240 -169l240 169v139l-240 -129z" />
    <glyph glyph-name="scaron" unicode="&#x161;" horiz-adv-x="731" 
d="M351 -20q-86 0 -155 19t-135 55l22 199q62 -45 126 -71.5t126 -26.5q69 0 107 27t38 78q0 37 -16.5 62.5t-56 50t-109.5 57.5q-74 35 -125 74t-77.5 92t-26.5 131q0 83 40 147t113.5 100t175.5 36q81 0 143.5 -19.5t114.5 -50.5l-22 -191q-51 41 -102.5 66t-118.5 25
q-61 0 -98 -26.5t-37 -75.5q0 -54 43.5 -83.5t137.5 -76.5q58 -29 102 -59t72.5 -65.5t42.5 -79t14 -100.5q0 -92 -41.5 -158t-118 -101t-179.5 -35zM397 1124l-220 187v145l220 -139l220 139v-145z" />
    <glyph glyph-name="uni0162" unicode="&#x162;" horiz-adv-x="952" 
d="M365 0v1196h-340v204h902v-204h-340v-1196h-222zM498 -158l-62 35q18 5 34.5 8t36.5 3q77 0 121.5 -43.5t44.5 -122.5q0 -93 -60 -142t-146 -49q-45 0 -79.5 8t-59.5 18l35 105q23 -10 48 -16t52 -6q44 0 69 20t25 59q0 37 -21.5 57t-64.5 20q-19 0 -38 -3.5t-39 -9.5
l53 217h99z" />
    <glyph glyph-name="uni0163" unicode="&#x163;" horiz-adv-x="597" 
d="M385 -20q-77 0 -128.5 31t-77.5 87.5t-26 133.5v580h-120l20 181h100v228l217 23v-251h187v-181h-187v-515q0 -48 12 -77.5t38.5 -43.5t68.5 -14h69l-20 -182h-153zM390 -158l-62 35q18 5 34.5 8t36.5 3q77 0 121.5 -43.5t44.5 -122.5q0 -93 -60 -142t-146 -49
q-45 0 -79.5 8t-59.5 18l35 105q23 -10 48 -16t52 -6q44 0 69 20t25 59q0 37 -21.5 57t-64.5 20q-19 0 -38 -3.5t-39 -9.5l53 217h99z" />
    <glyph glyph-name="Tcaron" unicode="&#x164;" horiz-adv-x="952" 
d="M365 0v1196h-340v204h902v-204h-340v-1196h-222zM476 1531l-220 187v145l220 -139l220 139v-145z" />
    <glyph glyph-name="tcaron" unicode="&#x165;" horiz-adv-x="597" 
d="M385 -20q-77 0 -128.5 31t-77.5 87.5t-26 133.5v580h-120l20 181h100v228l217 23v-251h187v-181h-187v-515q0 -48 12 -77.5t38.5 -43.5t68.5 -14h69l-20 -182h-153zM442 1087v347h188l-57 -347h-131z" />
    <glyph glyph-name="Tbar" unicode="&#x166;" horiz-adv-x="952" 
d="M365 0v1196h-340v204h902v-204h-340v-1196h-222zM112 627v152h728v-152h-728z" />
    <glyph glyph-name="tbar" unicode="&#x167;" horiz-adv-x="597" 
d="M385 -20q-77 0 -128.5 31t-77.5 87.5t-26 133.5v580h-120l20 181h100v228l217 23v-251h187v-181h-187v-515q0 -48 12 -77.5t38.5 -43.5t68.5 -14h69l-20 -182h-153zM33 461v152h514v-152h-514z" />
    <glyph glyph-name="Utilde" unicode="&#x168;" horiz-adv-x="1238" 
d="M619 -28q-172 0 -282.5 70.5t-164 199t-53.5 303.5v855h222v-794q0 -89 11 -165t40.5 -132.5t84 -87.5t142.5 -31t143 31t84 88t39.5 132.5t10.5 164.5v794h223v-855q0 -175 -53.5 -303.5t-164.5 -199t-282 -70.5zM771 1562q-46 0 -89.5 19.5t-83 39t-73.5 19.5
q-58 0 -58 -66h-144q0 101 37.5 154t110.5 53q46 0 89.5 -19.5t83 -39t73.5 -19.5q58 0 58 65h144q0 -99 -37 -152.5t-111 -53.5z" />
    <glyph glyph-name="utilde" unicode="&#x169;" horiz-adv-x="941" 
d="M399 -17q-105 0 -172.5 47t-101 131.5t-33.5 198.5v633h217v-604q0 -106 34 -165t113 -59q72 0 123 45.5t82 122.5l-32 -137v797h216v-993h-187l-16 146l46 3q-44 -78 -116 -122t-173 -44zM606 1157q-52 0 -90 23t-70 45.5t-67 22.5q-55 0 -55 -75h-155q5 114 45 174.5
t114 60.5q52 0 90 -22.5t70 -45t67 -22.5q55 0 55 74h155q-4 -114 -44 -174.5t-115 -60.5z" />
    <glyph glyph-name="Umacron" unicode="&#x16a;" horiz-adv-x="1238" 
d="M619 -28q-172 0 -282.5 70.5t-164 199t-53.5 303.5v855h222v-794q0 -89 11 -165t40.5 -132.5t84 -87.5t142.5 -31t143 31t84 88t39.5 132.5t10.5 164.5v794h223v-855q0 -175 -53.5 -303.5t-164.5 -199t-282 -70.5zM316 1586v139h610v-139h-610z" />
    <glyph glyph-name="umacron" unicode="&#x16b;" horiz-adv-x="941" 
d="M399 -17q-105 0 -172.5 47t-101 131.5t-33.5 198.5v633h217v-604q0 -106 34 -165t113 -59q72 0 123 45.5t82 122.5l-32 -137v797h216v-993h-187l-16 146l46 3q-44 -78 -116 -122t-173 -44zM182 1198v148h570v-148h-570z" />
    <glyph glyph-name="Ubreve" unicode="&#x16c;" horiz-adv-x="1238" 
d="M619 -28q-172 0 -282.5 70.5t-164 199t-53.5 303.5v855h222v-794q0 -89 11 -165t40.5 -132.5t84 -87.5t142.5 -31t143 31t84 88t39.5 132.5t10.5 164.5v794h223v-855q0 -175 -53.5 -303.5t-164.5 -199t-282 -70.5zM621 1529q-90 0 -153 34.5t-96 90t-33 120.5h166
q0 -56 32.5 -84.5t83.5 -28.5t83.5 28.5t32.5 84.5h166q0 -65 -32.5 -120.5t-95 -90t-154.5 -34.5z" />
    <glyph glyph-name="ubreve" unicode="&#x16d;" horiz-adv-x="941" 
d="M399 -17q-105 0 -172.5 47t-101 131.5t-33.5 198.5v633h217v-604q0 -106 34 -165t113 -59q72 0 123 45.5t82 122.5l-32 -137v797h216v-993h-187l-16 146l46 3q-44 -78 -116 -122t-173 -44zM467 1166q-89 0 -150.5 35t-93.5 93t-32 127h160q0 -53 29.5 -84t86.5 -31
q58 0 87 31t29 84h160q0 -69 -32 -127t-93.5 -93t-150.5 -35z" />
    <glyph glyph-name="Uring" unicode="&#x16e;" horiz-adv-x="1238" 
d="M619 -28q-172 0 -282.5 70.5t-164 199t-53.5 303.5v855h222v-794q0 -89 11 -165t40.5 -132.5t84 -87.5t142.5 -31t143 31t84 88t39.5 132.5t10.5 164.5v794h223v-855q0 -175 -53.5 -303.5t-164.5 -199t-282 -70.5zM621 1509q-90 0 -139 58.5t-49 136.5t49.5 137t138.5 59
q90 0 139 -59t49 -137t-48.5 -136.5t-139.5 -58.5zM621 1607q36 0 58 26.5t22 70.5q0 42 -22 69t-58 27t-58 -27t-22 -69q0 -44 22 -70.5t58 -26.5z" />
    <glyph glyph-name="uring" unicode="&#x16f;" horiz-adv-x="941" 
d="M399 -17q-105 0 -172.5 47t-101 131.5t-33.5 198.5v633h217v-604q0 -106 34 -165t113 -59q72 0 123 45.5t82 122.5l-32 -137v797h216v-993h-187l-16 146l46 3q-44 -78 -116 -122t-173 -44zM467 1139q-94 0 -141 58.5t-47 137.5t47 138t141 59q96 0 142 -59t46 -138
t-46 -137.5t-142 -58.5zM467 1233q38 0 59 27.5t21 73.5q0 45 -21 73.5t-59 28.5t-59 -28.5t-21 -72.5q0 -47 21.5 -74.5t58.5 -27.5z" />
    <glyph glyph-name="Uhungarumlaut" unicode="&#x170;" horiz-adv-x="1238" 
d="M619 -28q-172 0 -282.5 70.5t-164 199t-53.5 303.5v855h222v-794q0 -89 11 -165t40.5 -132.5t84 -87.5t142.5 -31t143 31t84 88t39.5 132.5t10.5 164.5v794h223v-855q0 -175 -53.5 -303.5t-164.5 -199t-282 -70.5zM404 1576l112 306h209l-181 -306h-140zM685 1576
l125 306h210l-195 -306h-140z" />
    <glyph glyph-name="uhungarumlaut" unicode="&#x171;" horiz-adv-x="941" 
d="M399 -17q-105 0 -172.5 47t-101 131.5t-33.5 198.5v633h217v-604q0 -106 34 -165t113 -59q72 0 123 45.5t82 122.5l-32 -137v797h216v-993h-187l-16 146l46 3q-44 -78 -116 -122t-173 -44zM535 1169l129 346h208l-198 -346h-139zM251 1169l116 346h208l-185 -346h-139z
" />
    <glyph glyph-name="Uogonek" unicode="&#x172;" horiz-adv-x="1238" 
d="M619 -28q-172 0 -282.5 70.5t-164 199t-53.5 303.5v855h222v-794q0 -89 11 -165t40.5 -132.5t84 -87.5t142.5 -31t143 31t84 88t39.5 132.5t10.5 164.5v794h223v-855q0 -175 -53.5 -303.5t-164.5 -199t-282 -70.5zM667 0h117q-57 -55 -96 -107t-39 -108q0 -44 26.5 -67
t68.5 -23q27 0 50 6t46 16l33 -104q-26 -14 -63 -23.5t-86 -9.5q-83 0 -140.5 43.5t-57.5 126.5q0 77 43 137t98 113z" />
    <glyph glyph-name="uogonek" unicode="&#x173;" horiz-adv-x="941" 
d="M399 -17q-105 0 -172.5 47t-101 131.5t-33.5 198.5v633h217v-604q0 -106 34 -165t113 -59q72 0 123 45.5t82 122.5l-32 -137v797h216v-993h-187l-16 146l46 3q-44 -78 -116 -122t-173 -44zM728 0h117q-57 -55 -96 -107t-39 -108q0 -44 26.5 -67t68.5 -23q27 0 50 6t46 16
l33 -104q-26 -14 -63 -23.5t-86 -9.5q-83 0 -140.5 43.5t-57.5 126.5q0 77 43 137t98 113z" />
    <glyph glyph-name="Wcircumflex" unicode="&#x174;" horiz-adv-x="1635" 
d="M327 0l-324 1400h227l221 -1073l246 1046h241l245 -1046l222 1073h226l-323 -1400h-241l-250 1044l-249 -1044h-241zM577 1497v139l240 169l240 -169v-139l-240 129z" />
    <glyph glyph-name="wcircumflex" unicode="&#x175;" horiz-adv-x="1246" 
d="M275 0l-270 993h226l149 -717l149 693h189l154 -693l144 717h225l-269 -993h-195l-154 673l-153 -673h-195zM404 1128v145l220 187l220 -187v-145l-220 138z" />
    <glyph glyph-name="Ycircumflex" unicode="&#x176;" horiz-adv-x="1044" 
d="M408 0v615l-419 785h240l337 -662h-93l333 662h240l-417 -785v-615h-221zM278 1497v139l240 169l240 -169v-139l-240 129z" />
    <glyph glyph-name="ycircumflex" unicode="&#x177;" horiz-adv-x="934" 
d="M157 -484l204 529l-348 948h228l229 -698l222 698h228l-539 -1477h-224zM249 1128v145l220 187l220 -187v-145l-220 138z" />
    <glyph glyph-name="Ydieresis" unicode="&#x178;" horiz-adv-x="1044" 
d="M408 0v615l-419 785h240l337 -662h-93l333 662h240l-417 -785v-615h-221zM267 1574v164h178v-164h-178zM591 1574v164h178v-164h-178z" />
    <glyph glyph-name="Zacute" unicode="&#x179;" horiz-adv-x="956" 
d="M14 0l627 1273l39 -78h-587v205h837l-625 -1273l-38 78h671v-205h-924zM360 1522v130l306 160v-198z" />
    <glyph glyph-name="zacute" unicode="&#x17a;" horiz-adv-x="806" 
d="M36 0l456 892l5 -85h-436v186h710l-456 -892l-12 85h456v-186h-723zM265 1160v145l306 191v-218z" />
    <glyph glyph-name="Zdotaccent" unicode="&#x17b;" horiz-adv-x="956" 
d="M14 0l627 1273l39 -78h-587v205h837l-625 -1273l-38 78h671v-205h-924zM415 1583v189h194v-189h-194z" />
    <glyph glyph-name="zdotaccent" unicode="&#x17c;" horiz-adv-x="806" 
d="M36 0l456 892l5 -85h-436v186h710l-456 -892l-12 85h456v-186h-723zM324 1196v189h186v-189h-186z" />
    <glyph glyph-name="Zcaron" unicode="&#x17d;" horiz-adv-x="956" 
d="M14 0l627 1273l39 -78h-587v205h837l-625 -1273l-38 78h671v-205h-924zM272 1871v-139l240 -169l240 169v139l-240 -129z" />
    <glyph glyph-name="zcaron" unicode="&#x17e;" horiz-adv-x="806" 
d="M36 0l456 892l5 -85h-436v186h710l-456 -892l-12 85h456v-186h-723zM417 1124l-220 187v145l220 -139l220 139v-145z" />
    <glyph glyph-name="uni018F" unicode="&#x18f;" horiz-adv-x="1184" 
d="M887 684q0 245 -88 385t-290 140q-95 0 -181.5 -26.5t-172.5 -70.5l-23 211q90 48 193.5 76.5t232.5 28.5q178 0 304.5 -94t194 -262t67.5 -392q0 -158 -37.5 -288t-108 -224t-171 -145t-226.5 -51q-161 0 -278.5 71.5t-181.5 203.5t-64 314q0 40 3.5 83.5t10.5 89.5h911
v-206h-689q0 -161 70 -249t218 -88q160 0 233 134t73 359z" />
    <glyph glyph-name="florin" unicode="&#x192;" horiz-adv-x="611" 
d="M6 812l19 181h597l-20 -181h-596zM282 79q-20 -197 -113.5 -282t-244.5 -85q-44 0 -79.5 5.5t-66.5 16.5l19 180q46 -16 103 -16q76 0 120 48t55 156l103 947q20 195 114 287t240 92q44 0 80 -5.5t67 -16.5l-19 -180q-19 6 -45 11t-53 5q-77 0 -121 -49.5t-56 -166.5z
" />
    <glyph glyph-name="Ohorn" unicode="&#x1a0;" horiz-adv-x="1307" 
d="M654 -28q-172 0 -306 90t-211 253.5t-77 384.5t77 384.5t211 253.5t306 90t306.5 -90t210.5 -253.5t76 -384.5t-76 -384.5t-210.5 -253.5t-306.5 -90zM654 195q119 0 198 66t119 180.5t40 258.5t-39.5 258.5t-119.5 180.5t-198 66t-197.5 -66t-119.5 -180.5t-40 -258.5
t40 -258.5t119.5 -180.5t197.5 -66zM822 1248v152q67 0 105 34.5t38 113.5h188q0 -99 -46 -165.5t-121 -100.5t-164 -34z" />
    <glyph glyph-name="ohorn" unicode="&#x1a1;" horiz-adv-x="969" 
d="M484 -20q-138 0 -235.5 70t-149 187t-51.5 258t51.5 258t149 187t235.5 70t236 -70t149.5 -187t51.5 -258t-51.5 -258t-149.5 -187t-236 -70zM484 161q104 0 160 91.5t56 243.5q0 151 -56 242t-160 91q-102 0 -158.5 -91t-56.5 -243q0 -151 56.5 -242.5t158.5 -91.5z
M573 841v152q67 0 105 34.5t38 113.5h188q0 -99 -46 -165.5t-121 -100.5t-164 -34z" />
    <glyph glyph-name="Uhorn" unicode="&#x1af;" horiz-adv-x="1238" 
d="M619 -28q-172 0 -282.5 70.5t-164 199t-53.5 303.5v855h222v-794q0 -89 11 -165t40.5 -132.5t84 -87.5t142.5 -31t143 31t84 88t39.5 132.5t10.5 164.5v794h223v-855q0 -175 -53.5 -303.5t-164.5 -199t-282 -70.5zM970 1248v152q67 0 105 34.5t38 113.5h188
q0 -99 -46 -165.5t-121 -100.5t-164 -34z" />
    <glyph glyph-name="uhorn" unicode="&#x1b0;" horiz-adv-x="941" 
d="M399 -17q-105 0 -172.5 47t-101 131.5t-33.5 198.5v633h217v-604q0 -106 34 -165t113 -59q72 0 123 45.5t82 122.5l-32 -137v797h216v-993h-187l-16 146l46 3q-44 -78 -116 -122t-173 -44zM685 841v152q67 0 105 34.5t38 113.5h188q0 -99 -46 -165.5t-121 -100.5
t-164 -34z" />
    <glyph glyph-name="uni01C4" unicode="&#x1c4;" horiz-adv-x="2166" 
d="M132 0v1400h451q171 0 305.5 -83.5t211 -240t76.5 -376.5t-76.5 -376.5t-211 -240t-305.5 -83.5h-451zM354 204h217q119 0 199.5 60t120.5 171t40 265t-40 265.5t-120.5 171t-199.5 59.5h-217v-992zM1224 0l627 1273l39 -78h-587v205h837l-625 -1273l-38 78h671v-205
h-924zM1482 1871v-139l240 -169l240 169v139l-240 -129z" />
    <glyph glyph-name="uni01C5" unicode="&#x1c5;" horiz-adv-x="2034" 
d="M132 0v1400h451q171 0 305.5 -83.5t211 -240t76.5 -376.5t-76.5 -376.5t-211 -240t-305.5 -83.5h-451zM354 204h217q119 0 199.5 60t120.5 171t40 265t-40 265.5t-120.5 171t-199.5 59.5h-217v-992zM1264 0l456 892l5 -85h-436v186h710l-456 -892l-12 85h456v-186h-723z
M1645 1124l-220 187v145l220 -139l220 139v-145z" />
    <glyph glyph-name="uni01C6" unicode="&#x1c6;" horiz-adv-x="1791" 
d="M437 -20q-124 0 -213 69.5t-136.5 186.5t-47.5 258q0 139 46.5 256.5t135.5 188.5t215 71q96 0 165.5 -41t119.5 -109l-57 -42v682h217v-1500h-201l-20 184l68 -43q-52 -76 -122.5 -118.5t-169.5 -42.5zM466 161q69 0 116.5 39.5t71.5 114t24 179.5q0 104 -24 179
t-71.5 115.5t-116.5 40.5q-63 0 -109 -43t-71 -118.5t-25 -173.5q0 -95 25 -170.5t71 -119t109 -43.5zM1021 0l456 892l5 -85h-436v186h710l-456 -892l-12 85h456v-186h-723zM1402 1124l-220 187v145l220 -139l220 139v-145z" />
    <glyph glyph-name="uni01C7" unicode="&#x1c7;" horiz-adv-x="1345" 
d="M132 0v1400h222v-1196h494v-204h-716zM872 -344l-18 197q75 0 105.5 31.5t30.5 112.5v1403h222v-1454q0 -148 -81 -219t-217 -71h-42z" />
    <glyph glyph-name="uni01C8" unicode="&#x1c8;" horiz-adv-x="1274" 
d="M132 0v1400h222v-1196h494v-204h-716zM875 -484l-19 180q39 2 61.5 15.5t32 46t9.5 90.5v1145h217v-1212q0 -90 -27.5 -146t-81 -84t-130.5 -31zM959 1169v231h217v-231h-217z" />
    <glyph glyph-name="uni01C9" unicode="&#x1c9;" horiz-adv-x="870" 
d="M319 -20q-77 0 -125.5 33t-71.5 90.5t-23 129.5v1267h216v-1177q0 -65 7.5 -100t30 -48t65.5 -13l-20 -182h-79zM471 -484l-19 180q39 2 61.5 15.5t32 46t9.5 90.5v1145h217v-1212q0 -90 -27.5 -146t-81 -84t-130.5 -31zM555 1169v231h217v-231h-217z" />
    <glyph glyph-name="uni01CA" unicode="&#x1ca;" horiz-adv-x="1701" 
d="M132 0v1400h235l495 -928v928h222v-1400h-198l-532 985v-985h-222zM1228 -344l-18 197q75 0 105.5 31.5t30.5 112.5v1403h222v-1454q0 -148 -81 -219t-217 -71h-42z" />
    <glyph glyph-name="uni01CB" unicode="&#x1cb;" horiz-adv-x="1614" 
d="M132 0v1400h235l495 -928v928h222v-1400h-198l-532 985v-985h-222zM1215 -484l-19 180q39 2 61.5 15.5t32 46t9.5 90.5v1145h217v-1212q0 -90 -27.5 -146t-81 -84t-130.5 -31zM1299 1169v231h217v-231h-217z" />
    <glyph glyph-name="uni01CC" unicode="&#x1cc;" horiz-adv-x="1366" 
d="M100 0v993h187l16 -146l-46 -3q45 78 118 122t175 44q156 0 233.5 -108.5t77.5 -283.5v-618h-217v590q0 117 -36.5 178t-114.5 61q-73 0 -125 -45.5t-84 -123.5l33 137v-797h-217zM967 -484l-19 180q39 2 61.5 15.5t32 46t9.5 90.5v1145h217v-1212q0 -90 -27.5 -146
t-81 -84t-130.5 -31zM1051 1169v231h217v-231h-217z" />
    <glyph glyph-name="Gcaron" unicode="&#x1e6;" horiz-adv-x="1142" 
d="M696 -28q-194 0 -337 91.5t-221 255.5t-78 381q0 224 83.5 387.5t228 252t328.5 88.5q99 0 178.5 -18t143.5 -46l-25 -218q-63 28 -126 46t-144 18q-135 0 -229.5 -64t-143.5 -179t-49 -267q0 -155 45.5 -270t136.5 -177.5t226 -62.5q33 0 66.5 5.5t60.5 15.5v287h-167
v204h389v-632q-66 -44 -162 -71t-204 -27zM454 1871v-139l240 -169l240 169v139l-240 -129z" />
    <glyph glyph-name="gcaron" unicode="&#x1e7;" horiz-adv-x="858" 
d="M438 -500q-116 0 -205 32t-140 93.5t-51 149.5q0 78 42 135.5t111 101.5q-46 24 -67.5 58t-21.5 78q0 47 26 81.5t73 59.5q-73 53 -113 140.5t-40 191.5q0 108 42.5 196.5t122 140.5t191.5 52q66 0 121 -18.5t98 -53.5q38 35 80.5 53.5t86.5 18.5q17 0 29 -1t21 -3
l-18 -149q-7 2 -16.5 3t-23.5 1q-20 0 -39.5 -3.5t-39.5 -12.5q28 -47 42.5 -104t14.5 -120q0 -108 -42.5 -197.5t-122 -143.5t-191.5 -54q-22 0 -43.5 2.5t-41.5 6.5q-24 -14 -24 -37q0 -22 19.5 -35t61.5 -25l182 -45q155 -40 226.5 -104.5t71.5 -184.5q0 -94 -54.5 -162
t-149.5 -105t-218 -37zM446 -333q95 0 156.5 31.5t61.5 92.5q0 52 -35.5 80t-120.5 50l-168 45q-51 -32 -84.5 -70.5t-33.5 -89.5q0 -69 62 -104t162 -35zM408 391q75 0 115 63.5t40 165.5q0 98 -40 161.5t-115 63.5q-76 0 -115.5 -63.5t-39.5 -161.5q0 -102 39.5 -165.5
t115.5 -63.5zM455 1124l-220 187v145l220 -139l220 139v-145z" />
    <glyph glyph-name="uni01EA" unicode="&#x1ea;" horiz-adv-x="1307" 
d="M654 -28q-172 0 -306 90t-211 253.5t-77 384.5t77 384.5t211 253.5t306 90t306.5 -90t210.5 -253.5t76 -384.5t-76 -384.5t-210.5 -253.5t-306.5 -90zM654 195q119 0 198 66t119 180.5t40 258.5t-39.5 258.5t-119.5 180.5t-198 66t-197.5 -66t-119.5 -180.5t-40 -258.5
t40 -258.5t119.5 -180.5t197.5 -66zM640 0h117q-57 -55 -96 -107t-39 -108q0 -44 26.5 -67t68.5 -23q27 0 50 6t46 16l33 -104q-26 -14 -63 -23.5t-86 -9.5q-83 0 -140.5 43.5t-57.5 126.5q0 77 43 137t98 113z" />
    <glyph glyph-name="uni01EB" unicode="&#x1eb;" horiz-adv-x="969" 
d="M484 -20q-138 0 -235.5 70t-149 187t-51.5 258t51.5 258t149 187t235.5 70t236 -70t149.5 -187t51.5 -258t-51.5 -258t-149.5 -187t-236 -70zM484 161q104 0 160 91.5t56 243.5q0 151 -56 242t-160 91q-102 0 -158.5 -91t-56.5 -243q0 -151 56.5 -242.5t158.5 -91.5z
M467 0h117q-57 -55 -96 -107t-39 -108q0 -44 26.5 -67t68.5 -23q27 0 50 6t46 16l33 -104q-26 -14 -63 -23.5t-86 -9.5q-83 0 -140.5 43.5t-57.5 126.5q0 77 43 137t98 113z" />
    <glyph glyph-name="Aringacute" unicode="&#x1fa;" horiz-adv-x="1074" 
d="M793 350h-512v205h512v-205zM511 1147h50l-331 -1147h-227l428 1400h211l428 -1400h-226zM537 1509q-90 0 -139 58.5t-49 136.5t49.5 137t138.5 59q90 0 139 -59t49 -137t-48.5 -136.5t-139.5 -58.5zM537 1607q36 0 58 26.5t22 70.5q0 42 -22 69t-58 27t-58 -27t-22 -69
q0 -44 22 -70.5t58 -26.5zM385 1958v130l306 160v-198z" />
    <glyph glyph-name="aringacute" unicode="&#x1fb;" horiz-adv-x="854" 
d="M295 -20q-72 0 -131.5 33t-95 96t-35.5 151t34 150.5t89.5 104t120 66t128 36t110.5 12.5q0 102 -34 144.5t-116 42.5q-62 0 -119 -20.5t-121 -60.5l-18 182q73 46 152 69.5t159 23.5q98 0 169 -37.5t109 -120t38 -217.5v-296q0 -73 6 -111t22 -52t45 -14h29l-18 -182
h-82q-47 0 -84 15.5t-64 43.5t-43 67q-48 -57 -108 -91.5t-142 -34.5zM367 153q42 0 80 25.5t69 68.5v230q-71 -6 -129 -27.5t-92 -63t-34 -107.5q0 -67 29.5 -96.5t76.5 -29.5zM428 1139q-94 0 -141 58.5t-47 137.5t47 138t141 59q96 0 142 -59t46 -138t-46 -137.5
t-142 -58.5zM428 1233q38 0 59 27.5t21 73.5q0 45 -21 73.5t-59 28.5t-59 -28.5t-21 -72.5q0 -47 21.5 -74.5t58.5 -27.5zM276 1611v130l306 160v-198z" />
    <glyph glyph-name="AEacute" unicode="&#x1fc;" horiz-adv-x="1544" 
d="M-14 0l588 1400h895v-204h-551v-361h428v-204h-428v-427h568v-204h-790v1162l-476 -1162h-234zM301 359v205h500v-205h-500zM870 1522v130l306 160v-198z" />
    <glyph glyph-name="aeacute" unicode="&#x1fd;" horiz-adv-x="1364" 
d="M309 -20q-76 0 -138.5 32.5t-100 95.5t-37.5 152q0 105 48.5 173.5t128.5 108t174 56t185 16.5h528q0 90 -35.5 151.5t-121.5 61.5q-92 0 -143.5 -79t-51.5 -237q0 -122 36 -198.5t96.5 -113t135.5 -36.5q71 0 137 19.5t119 52.5l10 -191q-52 -28 -125 -46t-162 -18
q-156 0 -260 71.5t-155.5 189t-51.5 258.5l-2 138q0 98 -37 138.5t-121 40.5q-62 0 -119 -20.5t-121 -60.5l-18 182q73 46 152 69.5t159 23.5q100 0 170 -46t105 -149l-64 -1q54 91 140 143.5t204 52.5q111 0 188 -54.5t116.5 -150.5t39.5 -220q0 -30 -3 -60t-8 -63h-744
q-133 0 -217 -46.5t-84 -139.5q0 -62 31.5 -92.5t79.5 -30.5q61 0 114 37t97 99l76 -111q-73 -87 -151.5 -142.5t-198.5 -55.5zM535 1160v145l306 191v-218z" />
    <glyph glyph-name="Oslashacute" unicode="&#x1fe;" horiz-adv-x="1307" 
d="M91 -88l942 1576h183l-942 -1576h-183zM654 -28q-172 0 -306 90t-211 253.5t-77 384.5t77 384.5t211 253.5t306 90t306.5 -90t210.5 -253.5t76 -384.5t-76 -384.5t-210.5 -253.5t-306.5 -90zM654 195q119 0 198 66t119 180.5t40 258.5t-39.5 258.5t-119.5 180.5t-198 66
t-197.5 -66t-119.5 -180.5t-40 -258.5t40 -258.5t119.5 -180.5t197.5 -66zM505 1522v130l306 160v-198z" />
    <glyph glyph-name="oslashacute" unicode="&#x1ff;" horiz-adv-x="969" 
d="M735 1060h156l-657 -1140h-157zM484 -20q-138 0 -235.5 70t-149 187t-51.5 258t51.5 258t149 187t235.5 70t236 -70t149.5 -187t51.5 -258t-51.5 -258t-149.5 -187t-236 -70zM484 161q104 0 160 91.5t56 242.5q0 152 -56 243t-160 91q-102 0 -158.5 -91t-56.5 -243
q0 -151 56.5 -242.5t158.5 -91.5zM333 1160v145l306 191v-218z" />
    <glyph glyph-name="uni0200" unicode="&#x200;" horiz-adv-x="1074" 
d="M793 350h-512v205h512v-205zM511 1147h50l-331 -1147h-227l428 1400h211l428 -1400h-226zM746 1576h-140l-163 306h210zM465 1576h-140l-177 306h210z" />
    <glyph glyph-name="uni0201" unicode="&#x201;" horiz-adv-x="854" 
d="M295 -20q-72 0 -131.5 33t-95 96t-35.5 151t34 150.5t89.5 104t120 66t128 36t110.5 12.5q0 102 -34 144.5t-116 42.5q-62 0 -119 -20.5t-121 -60.5l-18 182q73 46 152 69.5t159 23.5q98 0 169 -37.5t109 -120t38 -217.5v-296q0 -73 6 -111t22 -52t45 -14h29l-18 -182
h-82q-47 0 -84 15.5t-64 43.5t-43 67q-48 -57 -108 -91.5t-142 -34.5zM367 153q42 0 80 25.5t69 68.5v230q-71 -6 -129 -27.5t-92 -63t-34 -107.5q0 -67 29.5 -96.5t76.5 -29.5zM654 1169h-135l-172 346h204zM377 1169h-140l-186 346h210z" />
    <glyph glyph-name="uni0202" unicode="&#x202;" horiz-adv-x="1074" 
d="M793 350h-512v205h512v-205zM511 1147h50l-331 -1147h-227l428 1400h211l428 -1400h-226zM537 1804q91 0 154 -34t95.5 -90t32.5 -121h-166q0 56 -32.5 85t-82.5 29q-52 0 -84.5 -29t-32.5 -85h-166q0 65 33 121t96 90t153 34z" />
    <glyph glyph-name="uni0203" unicode="&#x203;" horiz-adv-x="854" 
d="M295 -20q-72 0 -131.5 33t-95 96t-35.5 151t34 150.5t89.5 104t120 66t128 36t110.5 12.5q0 102 -34 144.5t-116 42.5q-62 0 -119 -20.5t-121 -60.5l-18 182q73 46 152 69.5t159 23.5q98 0 169 -37.5t109 -120t38 -217.5v-296q0 -73 6 -111t22 -52t45 -14h29l-18 -182
h-82q-47 0 -84 15.5t-64 43.5t-43 67q-48 -57 -108 -91.5t-142 -34.5zM367 153q42 0 80 25.5t69 68.5v230q-71 -6 -129 -27.5t-92 -63t-34 -107.5q0 -67 29.5 -96.5t76.5 -29.5zM428 1415q93 0 157.5 -34t98 -91t33.5 -124h-165q0 51 -32.5 78.5t-90.5 27.5q-59 0 -92 -27.5
t-33 -78.5h-165q0 67 33.5 123.5t98 91t157.5 34.5z" />
    <glyph glyph-name="uni0204" unicode="&#x204;" horiz-adv-x="980" 
d="M132 0v1400h773v-204h-551v-361h428v-204h-428v-427h568v-204h-790zM728 1576h-140l-163 306h210zM447 1576h-140l-177 306h210z" />
    <glyph glyph-name="uni0205" unicode="&#x205;" horiz-adv-x="887" 
d="M515 -20q-156 0 -260 71.5t-155.5 189t-51.5 258.5q0 142 49 258t143.5 184.5t231.5 68.5q112 0 194.5 -52t128 -149t45.5 -231q0 -27 -3 -56t-8 -60h-559q8 -103 44.5 -169.5t94.5 -98t127 -31.5q71 0 137 19.5t119 52.5l10 -191q-52 -28 -124.5 -46t-162.5 -18z
M275 614h345q0 60 -15 108t-49.5 76.5t-92.5 28.5q-77 0 -124.5 -53.5t-63.5 -159.5zM700 1169h-135l-172 346h204zM423 1169h-140l-186 346h210z" />
    <glyph glyph-name="uni0206" unicode="&#x206;" horiz-adv-x="980" 
d="M132 0v1400h773v-204h-551v-361h428v-204h-428v-427h568v-204h-790zM519 1804q91 0 154 -34t95.5 -90t32.5 -121h-166q0 56 -32.5 85t-82.5 29q-52 0 -84.5 -29t-32.5 -85h-166q0 65 33 121t96 90t153 34z" />
    <glyph glyph-name="uni0207" unicode="&#x207;" horiz-adv-x="887" 
d="M515 -20q-156 0 -260 71.5t-155.5 189t-51.5 258.5q0 142 49 258t143.5 184.5t231.5 68.5q112 0 194.5 -52t128 -149t45.5 -231q0 -27 -3 -56t-8 -60h-559q8 -103 44.5 -169.5t94.5 -98t127 -31.5q71 0 137 19.5t119 52.5l10 -191q-52 -28 -124.5 -46t-162.5 -18z
M275 614h345q0 60 -15 108t-49.5 76.5t-92.5 28.5q-77 0 -124.5 -53.5t-63.5 -159.5zM473 1415q93 0 157.5 -34t98 -91t33.5 -124h-165q0 51 -32.5 78.5t-90.5 27.5q-59 0 -92 -27.5t-33 -78.5h-165q0 67 33.5 123.5t98 91t157.5 34.5z" />
    <glyph glyph-name="uni0208" unicode="&#x208;" horiz-adv-x="483" 
d="M130 0v1400h222v-1400h-222zM450 1576h-140l-163 306h210zM169 1576h-140l-177 306h210z" />
    <glyph glyph-name="uni0209" unicode="&#x209;" horiz-adv-x="413" 
d="M98 0v993h217v-993h-217zM434 1169h-135l-172 346h204zM157 1169h-140l-186 346h210z" />
    <glyph glyph-name="uni020A" unicode="&#x20a;" horiz-adv-x="483" 
d="M130 0v1400h222v-1400h-222zM241 1804q91 0 154 -34t95.5 -90t32.5 -121h-166q0 56 -32.5 85t-82.5 29q-52 0 -84.5 -29t-32.5 -85h-166q0 65 33 121t96 90t153 34z" />
    <glyph glyph-name="uni020B" unicode="&#x20b;" horiz-adv-x="413" 
d="M98 0v993h217v-993h-217zM207 1415q93 0 157.5 -34t98 -91t33.5 -124h-165q0 51 -32.5 78.5t-90.5 27.5q-59 0 -92 -27.5t-33 -78.5h-165q0 67 33.5 123.5t98 91t157.5 34.5z" />
    <glyph glyph-name="uni020C" unicode="&#x20c;" horiz-adv-x="1307" 
d="M654 -28q-172 0 -306 90t-211 253.5t-77 384.5t77 384.5t211 253.5t306 90t306.5 -90t210.5 -253.5t76 -384.5t-76 -384.5t-210.5 -253.5t-306.5 -90zM654 195q119 0 198 66t119 180.5t40 258.5t-39.5 258.5t-119.5 180.5t-198 66t-197.5 -66t-119.5 -180.5t-40 -258.5
t40 -258.5t119.5 -180.5t197.5 -66zM863 1576h-140l-163 306h210zM582 1576h-140l-177 306h210z" />
    <glyph glyph-name="uni020D" unicode="&#x20d;" horiz-adv-x="969" 
d="M484 -20q-138 0 -235.5 70t-149 187t-51.5 258t51.5 258t149 187t235.5 70t236 -70t149.5 -187t51.5 -258t-51.5 -258t-149.5 -187t-236 -70zM484 161q104 0 160 91.5t56 243.5q0 151 -56 242t-160 91q-102 0 -158.5 -91t-56.5 -243q0 -151 56.5 -242.5t158.5 -91.5z
M712 1169h-135l-172 346h204zM435 1169h-140l-186 346h210z" />
    <glyph glyph-name="uni020E" unicode="&#x20e;" horiz-adv-x="1307" 
d="M654 -28q-172 0 -306 90t-211 253.5t-77 384.5t77 384.5t211 253.5t306 90t306.5 -90t210.5 -253.5t76 -384.5t-76 -384.5t-210.5 -253.5t-306.5 -90zM654 195q119 0 198 66t119 180.5t40 258.5t-39.5 258.5t-119.5 180.5t-198 66t-197.5 -66t-119.5 -180.5t-40 -258.5
t40 -258.5t119.5 -180.5t197.5 -66zM654 1804q91 0 154 -34t95.5 -90t32.5 -121h-166q0 56 -32.5 85t-82.5 29q-52 0 -84.5 -29t-32.5 -85h-166q0 65 33 121t96 90t153 34z" />
    <glyph glyph-name="uni020F" unicode="&#x20f;" horiz-adv-x="969" 
d="M484 -20q-138 0 -235.5 70t-149 187t-51.5 258t51.5 258t149 187t235.5 70t236 -70t149.5 -187t51.5 -258t-51.5 -258t-149.5 -187t-236 -70zM484 161q104 0 160 91.5t56 243.5q0 151 -56 242t-160 91q-102 0 -158.5 -91t-56.5 -243q0 -151 56.5 -242.5t158.5 -91.5z
M485 1415q93 0 157.5 -34t98 -91t33.5 -124h-165q0 51 -32.5 78.5t-90.5 27.5q-59 0 -92 -27.5t-33 -78.5h-165q0 67 33.5 123.5t98 91t157.5 34.5z" />
    <glyph glyph-name="uni0210" unicode="&#x210;" horiz-adv-x="1077" 
d="M131 0v1400h390q142 0 247 -45.5t163 -140.5t58 -245q0 -128 -54 -224.5t-151 -152.5l272 -592h-253l-236 530q-8 0 -17.5 -0.5t-19.5 -0.5h-177v-529h-222zM353 725h148q128 0 192.5 57.5t64.5 181.5t-64.5 182t-192.5 58h-148v-479zM748 1576h-140l-163 306h210z
M467 1576h-140l-177 306h210z" />
    <glyph glyph-name="uni0211" unicode="&#x211;" horiz-adv-x="580" 
d="M99 0v993h186l18 -127q56 70 108.5 107t121.5 37q27 0 50 -6l-18 -226q-13 4 -28 6.5t-35 2.5q-55 0 -101.5 -28t-85.5 -73v-686h-216zM582 1169h-135l-172 346h204zM305 1169h-140l-186 346h210z" />
    <glyph glyph-name="uni0212" unicode="&#x212;" horiz-adv-x="1077" 
d="M131 0v1400h390q142 0 247 -45.5t163 -140.5t58 -245q0 -128 -54 -224.5t-151 -152.5l272 -592h-253l-236 530q-8 0 -17.5 -0.5t-19.5 -0.5h-177v-529h-222zM353 725h148q128 0 192.5 57.5t64.5 181.5t-64.5 182t-192.5 58h-148v-479zM539 1804q91 0 154 -34t95.5 -90
t32.5 -121h-166q0 56 -32.5 85t-82.5 29q-52 0 -84.5 -29t-32.5 -85h-166q0 65 33 121t96 90t153 34z" />
    <glyph glyph-name="uni0213" unicode="&#x213;" horiz-adv-x="580" 
d="M99 0v993h186l18 -127q56 70 108.5 107t121.5 37q27 0 50 -6l-18 -226q-13 4 -28 6.5t-35 2.5q-55 0 -101.5 -28t-85.5 -73v-686h-216zM356 1415q93 0 157.5 -34t98 -91t33.5 -124h-165q0 51 -32.5 78.5t-90.5 27.5q-59 0 -92 -27.5t-33 -78.5h-165q0 67 33.5 123.5
t98 91t157.5 34.5z" />
    <glyph glyph-name="uni0214" unicode="&#x214;" horiz-adv-x="1238" 
d="M619 -28q-172 0 -282.5 70.5t-164 199t-53.5 303.5v855h222v-794q0 -89 11 -165t40.5 -132.5t84 -87.5t142.5 -31t143 31t84 88t39.5 132.5t10.5 164.5v794h223v-855q0 -175 -53.5 -303.5t-164.5 -199t-282 -70.5zM847 1576h-135l-172 346h204zM570 1576h-140l-186 346
h210z" />
    <glyph glyph-name="uni0215" unicode="&#x215;" horiz-adv-x="941" 
d="M399 -17q-105 0 -172.5 47t-101 131.5t-33.5 198.5v633h217v-604q0 -106 34 -165t113 -59q72 0 123 45.5t82 122.5l-32 -137v797h216v-993h-187l-16 146l46 3q-44 -78 -116 -122t-173 -44zM694 1169h-135l-172 346h204zM417 1169h-140l-186 346h210z" />
    <glyph glyph-name="uni0216" unicode="&#x216;" horiz-adv-x="1238" 
d="M619 -28q-172 0 -282.5 70.5t-164 199t-53.5 303.5v855h222v-794q0 -89 11 -165t40.5 -132.5t84 -87.5t142.5 -31t143 31t84 88t39.5 132.5t10.5 164.5v794h223v-855q0 -175 -53.5 -303.5t-164.5 -199t-282 -70.5zM621 1804q91 0 154 -34t95.5 -90t32.5 -121h-166
q0 56 -32.5 85t-82.5 29q-52 0 -84.5 -29t-32.5 -85h-166q0 65 33 121t96 90t153 34z" />
    <glyph glyph-name="uni0217" unicode="&#x217;" horiz-adv-x="941" 
d="M399 -17q-105 0 -172.5 47t-101 131.5t-33.5 198.5v633h217v-604q0 -106 34 -165t113 -59q72 0 123 45.5t82 122.5l-32 -137v797h216v-993h-187l-16 146l46 3q-44 -78 -116 -122t-173 -44zM467 1415q93 0 157.5 -34t98 -91t33.5 -124h-165q0 51 -32.5 78.5t-90.5 27.5
q-59 0 -92 -27.5t-33 -78.5h-165q0 67 33.5 123.5t98 91t157.5 34.5z" />
    <glyph glyph-name="uni0218" unicode="&#x218;" horiz-adv-x="1008" 
d="M477 -28q-71 0 -142.5 10.5t-136.5 29.5t-115 43l28 247q59 -34 121.5 -59t128 -39t132.5 -14q105 0 165.5 42.5t60.5 124.5q0 61 -29.5 104.5t-93 82t-166.5 84.5q-111 50 -190.5 104t-121.5 126.5t-42 180.5q0 114 56.5 202t161.5 137.5t249 49.5q106 0 196.5 -23
t161.5 -57l-23 -237q-93 49 -178 74t-174 25q-97 0 -153.5 -39t-56.5 -122q0 -61 35 -101.5t101 -75.5t160 -79q114 -54 191 -112.5t116 -133.5t39 -177q0 -91 -33 -164.5t-95 -125.5t-151 -80t-202 -28zM496 -586h-90l81 218h-66v186h194v-163z" />
    <glyph glyph-name="uni0219" unicode="&#x219;" horiz-adv-x="731" 
d="M351 -20q-86 0 -155 19t-135 55l22 199q62 -45 126 -71.5t126 -26.5q69 0 107 27t38 78q0 37 -16.5 62.5t-56 50t-109.5 57.5q-74 35 -125 74t-77.5 92t-26.5 131q0 83 40 147t113.5 100t175.5 36q81 0 143.5 -19.5t114.5 -50.5l-22 -191q-51 41 -102.5 66t-118.5 25
q-61 0 -98 -26.5t-37 -75.5q0 -54 43.5 -83.5t137.5 -76.5q58 -29 102 -59t72.5 -65.5t42.5 -79t14 -100.5q0 -92 -41.5 -158t-118 -101t-179.5 -35zM335 -586h-90l81 218h-66v186h194v-163z" />
    <glyph glyph-name="uni021A" unicode="&#x21a;" horiz-adv-x="952" 
d="M365 0v1196h-340v204h902v-204h-340v-1196h-222zM454 -586h-90l81 218h-66v186h194v-163z" />
    <glyph glyph-name="uni021B" unicode="&#x21b;" horiz-adv-x="597" 
d="M385 -20q-77 0 -128.5 31t-77.5 87.5t-26 133.5v580h-120l20 181h100v228l217 23v-251h187v-181h-187v-515q0 -48 12 -77.5t38.5 -43.5t68.5 -14h69l-20 -182h-153zM346 -586h-90l81 218h-66v186h194v-163z" />
    <glyph glyph-name="uni022A" unicode="&#x22a;" horiz-adv-x="1307" 
d="M654 -28q-172 0 -306 90t-211 253.5t-77 384.5t77 384.5t211 253.5t306 90t306.5 -90t210.5 -253.5t76 -384.5t-76 -384.5t-210.5 -253.5t-306.5 -90zM654 195q119 0 198 66t119 180.5t40 258.5t-39.5 258.5t-119.5 180.5t-198 66t-197.5 -66t-119.5 -180.5t-40 -258.5
t40 -258.5t119.5 -180.5t197.5 -66zM403 1574v164h178v-164h-178zM727 1574v164h178v-164h-178zM349 1894v139h610v-139h-610z" />
    <glyph glyph-name="uni022B" unicode="&#x22b;" horiz-adv-x="969" 
d="M484 -20q-138 0 -235.5 70t-149 187t-51.5 258t51.5 258t149 187t235.5 70t236 -70t149.5 -187t51.5 -258t-51.5 -258t-149.5 -187t-236 -70zM484 161q104 0 160 91.5t56 243.5q0 151 -56 242t-160 91q-102 0 -158.5 -91t-56.5 -243q0 -151 56.5 -242.5t158.5 -91.5z
M234 1167v164h178v-164h-178zM558 1167v164h178v-164h-178zM180 1486v139h610v-139h-610z" />
    <glyph glyph-name="uni022C" unicode="&#x22c;" horiz-adv-x="1307" 
d="M654 -28q-172 0 -306 90t-211 253.5t-77 384.5t77 384.5t211 253.5t306 90t306.5 -90t210.5 -253.5t76 -384.5t-76 -384.5t-210.5 -253.5t-306.5 -90zM654 195q119 0 198 66t119 180.5t40 258.5t-39.5 258.5t-119.5 180.5t-198 66t-197.5 -66t-119.5 -180.5t-40 -258.5
t40 -258.5t119.5 -180.5t197.5 -66zM804 1562q-46 0 -89.5 19.5t-83 39t-73.5 19.5q-58 0 -58 -66h-144q0 101 37.5 154t110.5 53q46 0 89.5 -19.5t83 -39t73.5 -19.5q58 0 58 65h144q0 -99 -37 -152.5t-111 -53.5zM349 1923v139h610v-139h-610z" />
    <glyph glyph-name="uni022D" unicode="&#x22d;" horiz-adv-x="969" 
d="M484 -20q-138 0 -235.5 70t-149 187t-51.5 258t51.5 258t149 187t235.5 70t236 -70t149.5 -187t51.5 -258t-51.5 -258t-149.5 -187t-236 -70zM484 161q104 0 160 91.5t56 243.5q0 151 -56 242t-160 91q-102 0 -158.5 -91t-56.5 -243q0 -151 56.5 -242.5t158.5 -91.5z
M635 1155q-46 0 -89.5 19.5t-83 39t-73.5 19.5q-58 0 -58 -66h-144q0 101 37.5 154t110.5 53q46 0 89.5 -19.5t83 -39t73.5 -19.5q58 0 58 65h144q0 -99 -37 -152.5t-111 -53.5zM180 1516v139h610v-139h-610z" />
    <glyph glyph-name="uni0230" unicode="&#x230;" horiz-adv-x="1307" 
d="M654 -28q-172 0 -306 90t-211 253.5t-77 384.5t77 384.5t211 253.5t306 90t306.5 -90t210.5 -253.5t76 -384.5t-76 -384.5t-210.5 -253.5t-306.5 -90zM654 195q119 0 198 66t119 180.5t40 258.5t-39.5 258.5t-119.5 180.5t-198 66t-197.5 -66t-119.5 -180.5t-40 -258.5
t40 -258.5t119.5 -180.5t197.5 -66zM557 1583v189h194v-189h-194zM349 1936v139h610v-139h-610z" />
    <glyph glyph-name="uni0231" unicode="&#x231;" horiz-adv-x="969" 
d="M484 -20q-138 0 -235.5 70t-149 187t-51.5 258t51.5 258t149 187t235.5 70t236 -70t149.5 -187t51.5 -258t-51.5 -258t-149.5 -187t-236 -70zM484 161q104 0 160 91.5t56 243.5q0 151 -56 242t-160 91q-102 0 -158.5 -91t-56.5 -243q0 -151 56.5 -242.5t158.5 -91.5z
M388 1176v189h194v-189h-194zM180 1529v139h610v-139h-610z" />
    <glyph glyph-name="uni0232" unicode="&#x232;" horiz-adv-x="1044" 
d="M408 0v615l-419 785h240l337 -662h-93l333 662h240l-417 -785v-615h-221zM213 1586v139h610v-139h-610z" />
    <glyph glyph-name="uni0233" unicode="&#x233;" horiz-adv-x="934" 
d="M157 -484l204 529l-348 948h228l229 -698l222 698h228l-539 -1477h-224zM184 1198v148h570v-148h-570z" />
    <glyph glyph-name="uni0237" unicode="&#x237;" horiz-adv-x="414" 
d="M15 -484l-19 180q39 2 61.5 15.5t32 46t9.5 90.5v1145h217v-1212q0 -90 -27.5 -146t-81 -84t-130.5 -31z" />
    <glyph glyph-name="uni0259" unicode="&#x259;" horiz-adv-x="887" 
d="M372 1013q156 0 260 -71.5t155.5 -189t51.5 -258.5q0 -142 -49 -258t-143.5 -184.5t-231.5 -68.5q-112 0 -194.5 52t-128 149t-45.5 231q0 27 3 56t8 60h559q-8 103 -44.5 169.5t-94.5 98t-127 31.5q-71 0 -137 -19.5t-119 -52.5l-10 191q52 28 124.5 46t162.5 18z
M612 379h-345q0 -60 15 -108t49.5 -76.5t92.5 -28.5q77 0 124.5 53.5t63.5 159.5z" />
    <glyph glyph-name="uni02BB" unicode="&#x2bb;" horiz-adv-x="649" 
d="M339 1570h90l-81 -218h66v-186h-194v163z" />
    <glyph glyph-name="uni02BC" unicode="&#x2bc;" horiz-adv-x="436" 
d="M197 996h-90l81 218h-66v186h194v-163z" />
    <glyph glyph-name="uni02BE" unicode="&#x2be;" horiz-adv-x="357" 
d="M84 1139v94q38 0 59 27.5t21 74.5q0 44 -21 72.5t-59 28.5v96q96 0 142 -59t46 -138t-46 -137.5t-142 -58.5z" />
    <glyph glyph-name="uni02BF" unicode="&#x2bf;" horiz-adv-x="357" 
d="M272 1139q-94 0 -141 58.5t-47 137.5t47 138t141 59v-96q-38 0 -59 -28.5t-21 -72.5q0 -47 21.5 -74.5t58.5 -27.5v-94z" />
    <glyph glyph-name="circumflex" unicode="&#x2c6;" horiz-adv-x="961" 
d="M260 1128v145l220 187l220 -187v-145l-220 138z" />
    <glyph glyph-name="caron" unicode="&#x2c7;" horiz-adv-x="961" 
d="M480 1124l-220 187v145l220 -139l220 139v-145z" />
    <glyph glyph-name="uni02C8" unicode="&#x2c8;" horiz-adv-x="329" 
d="M84 1532h161v-393h-161v393z" />
    <glyph glyph-name="uni02C9" unicode="&#x2c9;" horiz-adv-x="970" 
d="M200 1185v148h570v-148h-570z" />
    <glyph glyph-name="uni02CA" unicode="&#x2ca;" horiz-adv-x="481" 
d="M87 1160v145l306 191v-218z" />
    <glyph glyph-name="uni02CB" unicode="&#x2cb;" horiz-adv-x="481" 
d="M393 1158l-306 123v224l306 -196v-151z" />
    <glyph glyph-name="uni02CC" unicode="&#x2cc;" horiz-adv-x="340" 
d="M94 233h152v-394h-152v394z" />
    <glyph glyph-name="breve" unicode="&#x2d8;" horiz-adv-x="939" 
d="M469 1166q-89 0 -150.5 35t-93.5 93t-32 127h160q0 -53 29.5 -84t86.5 -31q58 0 87 31t29 84h160q0 -69 -32 -127t-93.5 -93t-150.5 -35z" />
    <glyph glyph-name="dotaccent" unicode="&#x2d9;" horiz-adv-x="746" 
d="M280 1196v189h186v-189h-186z" />
    <glyph glyph-name="ring" unicode="&#x2da;" horiz-adv-x="776" 
d="M388 1139q-94 0 -141 58.5t-47 137.5t47 138t141 59q96 0 142 -59t46 -138t-46 -137.5t-142 -58.5zM388 1233q38 0 59 27.5t21 73.5q0 45 -21 73.5t-59 28.5t-59 -28.5t-21 -72.5q0 -47 21.5 -74.5t58.5 -27.5z" />
    <glyph glyph-name="ogonek" unicode="&#x2db;" horiz-adv-x="747" 
d="M341 0h117q-57 -55 -96 -107t-39 -108q0 -44 26.5 -67t68.5 -23q27 0 50 6t46 16l33 -104q-26 -14 -63 -23.5t-86 -9.5q-83 0 -140.5 43.5t-57.5 126.5q0 77 43 137t98 113z" />
    <glyph glyph-name="tilde" unicode="&#x2dc;" horiz-adv-x="997" 
d="M637 1157q-52 0 -90 23t-70 45.5t-67 22.5q-55 0 -55 -75h-155q5 114 45 174.5t114 60.5q52 0 90 -22.5t70 -45t67 -22.5q55 0 55 74h155q-4 -114 -44 -174.5t-115 -60.5z" />
    <glyph glyph-name="hungarumlaut" unicode="&#x2dd;" horiz-adv-x="1021" 
d="M484 1169l129 346h208l-198 -346h-139zM200 1169l116 346h208l-185 -346h-139z" />
    <glyph glyph-name="gravecomb" unicode="&#x300;" 
d="M152 1158l-306 123v224l306 -196v-151z" />
    <glyph glyph-name="acutecomb" unicode="&#x301;" 
d="M-152 1160v145l306 191v-218z" />
    <glyph glyph-name="uni0302" unicode="&#x302;" 
d="M-220 1128v145l220 187l220 -187v-145l-220 138z" />
    <glyph glyph-name="tildecomb" unicode="&#x303;" 
d="M139 1157q-52 0 -90 23t-70 45.5t-67 22.5q-55 0 -55 -75h-155q5 114 45 174.5t114 60.5q52 0 90 -22.5t70 -45t67 -22.5q55 0 55 74h155q-4 -114 -44 -174.5t-115 -60.5z" />
    <glyph glyph-name="uni0304" unicode="&#x304;" 
d="M-285 1185v148h570v-148h-570z" />
    <glyph glyph-name="uni0306" unicode="&#x306;" 
d="M0 1166q-89 0 -150.5 35t-93.5 93t-32 127h160q0 -53 29.5 -84t86.5 -31q58 0 87 31t29 84h160q0 -69 -32 -127t-93.5 -93t-150.5 -35z" />
    <glyph glyph-name="uni0307" unicode="&#x307;" 
d="M-93 1196v189h186v-189h-186z" />
    <glyph glyph-name="uni0308" unicode="&#x308;" 
d="M74 1182v173h177v-173h-177zM-251 1182v173h177v-173h-177z" />
    <glyph glyph-name="hookabovecomb" unicode="&#x309;" 
d="M31 1061l-72 72q36 38 54 66t18 63q0 33 -18 49.5t-50 16.5q-24 0 -49 -8.5t-49 -22.5l-34 110q30 15 65.5 23.5t75.5 8.5q74 0 125.5 -44t51.5 -126q0 -65 -30 -111.5t-88 -96.5z" />
    <glyph glyph-name="uni030A" unicode="&#x30a;" 
d="M0 1139q-94 0 -141 58.5t-47 137.5t47 138t141 59q96 0 142 -59t46 -138t-46 -137.5t-142 -58.5zM0 1233q38 0 59 27.5t21 73.5q0 45 -21 73.5t-59 28.5t-59 -28.5t-21 -72.5q0 -47 21.5 -74.5t58.5 -27.5z" />
    <glyph glyph-name="uni030B" unicode="&#x30b;" 
d="M67 1169l129 346h208l-198 -346h-139zM-217 1169l116 346h208l-185 -346h-139z" />
    <glyph glyph-name="uni030C" unicode="&#x30c;" 
d="M0 1124l-220 187v145l220 -139l220 139v-145z" />
    <glyph glyph-name="uni030F" unicode="&#x30f;" 
d="M226 1169h-135l-172 346h204zM-51 1169h-140l-186 346h210z" />
    <glyph glyph-name="uni0311" unicode="&#x311;" 
d="M0 1415q93 0 157.5 -34t98 -91t33.5 -124h-165q0 51 -32.5 78.5t-90.5 27.5q-59 0 -92 -27.5t-33 -78.5h-165q0 67 33.5 123.5t98 91t157.5 34.5z" />
    <glyph glyph-name="uni0312" unicode="&#x312;" 
d="M24 1570h90l-81 -218h66v-186h-194v163z" />
    <glyph glyph-name="uni031B" unicode="&#x31b;" 
d="M0 828v152q67 0 105 34.5t38 113.5h188q0 -99 -46 -165.5t-121 -100.5t-164 -34z" />
    <glyph glyph-name="dotbelowcomb" unicode="&#x323;" 
d="M-93 -351v189h186v-189h-186z" />
    <glyph glyph-name="uni0324" unicode="&#x324;" 
d="M74 -355v173h177v-173h-177zM-251 -355v173h177v-173h-177z" />
    <glyph glyph-name="uni0326" unicode="&#x326;" 
d="M-22 -586h-90l81 218h-66v186h194v-163z" />
    <glyph glyph-name="uni0327" unicode="&#x327;" 
d="M22 -158l-62 35q18 5 34.5 8t36.5 3q77 0 121.5 -43.5t44.5 -122.5q0 -93 -60 -142t-146 -49q-45 0 -79.5 8t-59.5 18l35 105q23 -10 48 -16t52 -6q44 0 69 20t25 59q0 37 -21.5 57t-64.5 20q-19 0 -38 -3.5t-39 -9.5l53 217h99z" />
    <glyph glyph-name="uni0328" unicode="&#x328;" 
d="M-56 0h117q-57 -55 -96 -107t-39 -108q0 -44 26.5 -67t68.5 -23q27 0 50 6t46 16l33 -104q-26 -14 -63 -23.5t-86 -9.5q-83 0 -140.5 43.5t-57.5 126.5q0 77 43 137t98 113z" />
    <glyph glyph-name="uni032E" unicode="&#x32e;" 
d="M0 -451q-89 0 -150.5 35t-93.5 93t-32 127h160q0 -53 29.5 -84t86.5 -31q58 0 87 31t29 84h160q0 -69 -32 -127t-93.5 -93t-150.5 -35z" />
    <glyph glyph-name="uni0331" unicode="&#x331;" 
d="M-285 -334v148h570v-148h-570z" />
    <glyph glyph-name="uni0335" unicode="&#x335;" 
d="M-296 454v151h592v-151h-592z" />
    <glyph glyph-name="pi" unicode="&#x3c0;" horiz-adv-x="999" 
d="M906 164q15 0 28.5 3.5t23.5 8.5v-168q-20 -11 -52 -19.5t-69 -8.5q-107 0 -163.5 65.5t-56.5 191.5v575h-244v-812h-216v812h-128v181h935v-181h-130v-552q0 -96 72 -96z" />
    <glyph glyph-name="uni1E08" unicode="&#x1e08;" horiz-adv-x="1048" 
d="M686 -28q-182 0 -323.5 89t-222 252t-80.5 387t81.5 387.5t223 252t321.5 88.5q95 0 172 -18t138 -46l-25 -218q-60 28 -119 46t-133 18q-132 0 -225 -64t-141 -179t-48 -267t48.5 -267t141 -179t224.5 -64q74 0 133.5 17.5t118.5 44.5l25 -218q-59 -28 -137.5 -45
t-172.5 -17zM706 -158l-62 35q18 5 34.5 8t36.5 3q77 0 121.5 -43.5t44.5 -122.5q0 -93 -60 -142t-146 -49q-45 0 -79.5 8t-59.5 18l35 105q23 -10 48 -16t52 -6q44 0 69 20t25 59q0 37 -21.5 57t-64.5 20q-19 0 -38 -3.5t-39 -9.5l53 217h99zM510 1522v130l306 160v-198z
" />
    <glyph glyph-name="uni1E09" unicode="&#x1e09;" horiz-adv-x="770" 
d="M514 -20q-155 0 -258.5 69.5t-155.5 186t-52 257.5q0 143 51.5 260.5t156.5 187t265 69.5q60 0 112 -11t89 -29l-21 -180q-35 18 -75.5 28.5t-85.5 10.5q-129 0 -200 -91t-71 -242q0 -146 70.5 -240.5t201.5 -94.5q46 0 86 10t78 30l19 -179q-38 -18 -93.5 -30
t-116.5 -12zM499 -158l-62 35q18 5 34.5 8t36.5 3q77 0 121.5 -43.5t44.5 -122.5q0 -93 -60 -142t-146 -49q-45 0 -79.5 8t-59.5 18l35 105q23 -10 48 -16t52 -6q44 0 69 20t25 59q0 37 -21.5 57t-64.5 20q-19 0 -38 -3.5t-39 -9.5l53 217h99zM317 1160v145l306 191v-218z
" />
    <glyph glyph-name="uni1E0C" unicode="&#x1e0c;" horiz-adv-x="1238" 
d="M132 0v1400h451q171 0 305.5 -83.5t211 -240t76.5 -376.5t-76.5 -376.5t-211 -240t-305.5 -83.5h-451zM354 204h217q119 0 199.5 60t120.5 171t40 265t-40 265.5t-120.5 171t-199.5 59.5h-217v-992zM527 -351v189h186v-189h-186z" />
    <glyph glyph-name="uni1E0D" unicode="&#x1e0d;" horiz-adv-x="985" 
d="M437 -20q-124 0 -213 69.5t-136.5 186.5t-47.5 258q0 139 46.5 256.5t135.5 188.5t215 71q96 0 165.5 -41t119.5 -109l-57 -42v682h217v-1500h-201l-20 184l68 -43q-52 -76 -122.5 -118.5t-169.5 -42.5zM466 161q69 0 116.5 39.5t71.5 114t24 179.5q0 104 -24 179
t-71.5 115.5t-116.5 40.5q-63 0 -109 -43t-71 -118.5t-25 -173.5q0 -95 25 -170.5t71 -119t109 -43.5zM407 -351v189h186v-189h-186z" />
    <glyph glyph-name="uni1E0E" unicode="&#x1e0e;" horiz-adv-x="1238" 
d="M132 0v1400h451q171 0 305.5 -83.5t211 -240t76.5 -376.5t-76.5 -376.5t-211 -240t-305.5 -83.5h-451zM354 204h217q119 0 199.5 60t120.5 171t40 265t-40 265.5t-120.5 171t-199.5 59.5h-217v-992zM335 -334v148h570v-148h-570z" />
    <glyph glyph-name="uni1E0F" unicode="&#x1e0f;" horiz-adv-x="985" 
d="M437 -20q-124 0 -213 69.5t-136.5 186.5t-47.5 258q0 139 46.5 256.5t135.5 188.5t215 71q96 0 165.5 -41t119.5 -109l-57 -42v682h217v-1500h-201l-20 184l68 -43q-52 -76 -122.5 -118.5t-169.5 -42.5zM466 161q69 0 116.5 39.5t71.5 114t24 179.5q0 104 -24 179
t-71.5 115.5t-116.5 40.5q-63 0 -109 -43t-71 -118.5t-25 -173.5q0 -95 25 -170.5t71 -119t109 -43.5zM215 -334v148h570v-148h-570z" />
    <glyph glyph-name="uni1E14" unicode="&#x1e14;" horiz-adv-x="980" 
d="M132 0v1400h773v-204h-551v-361h428v-204h-428v-427h568v-204h-790zM214 1586v139h610v-139h-610zM671 1853l-306 90v200l306 -160v-130z" />
    <glyph glyph-name="uni1E15" unicode="&#x1e15;" horiz-adv-x="887" 
d="M515 -20q-156 0 -260 71.5t-155.5 189t-51.5 258.5q0 142 49 258t143.5 184.5t231.5 68.5q112 0 194.5 -52t128 -149t45.5 -231q0 -27 -3 -56t-8 -60h-559q8 -103 44.5 -169.5t94.5 -98t127 -31.5q71 0 137 19.5t119 52.5l10 -191q-52 -28 -124.5 -46t-162.5 -18z
M275 614h345q0 60 -15 108t-49.5 76.5t-92.5 28.5q-77 0 -124.5 -53.5t-63.5 -159.5zM168 1179v139h610v-139h-610zM625 1446l-306 90v200l306 -160v-130z" />
    <glyph glyph-name="uni1E16" unicode="&#x1e16;" horiz-adv-x="980" 
d="M132 0v1400h773v-204h-551v-361h428v-204h-428v-427h568v-204h-790zM214 1586v139h610v-139h-610zM367 1853v130l306 160v-198z" />
    <glyph glyph-name="uni1E17" unicode="&#x1e17;" horiz-adv-x="887" 
d="M515 -20q-156 0 -260 71.5t-155.5 189t-51.5 258.5q0 142 49 258t143.5 184.5t231.5 68.5q112 0 194.5 -52t128 -149t45.5 -231q0 -27 -3 -56t-8 -60h-559q8 -103 44.5 -169.5t94.5 -98t127 -31.5q71 0 137 19.5t119 52.5l10 -191q-52 -28 -124.5 -46t-162.5 -18z
M275 614h345q0 60 -15 108t-49.5 76.5t-92.5 28.5q-77 0 -124.5 -53.5t-63.5 -159.5zM168 1179v139h610v-139h-610zM321 1446v130l306 160v-198z" />
    <glyph glyph-name="uni1E1C" unicode="&#x1e1c;" horiz-adv-x="980" 
d="M132 0v1400h773v-204h-551v-361h428v-204h-428v-427h568v-204h-790zM549 -158l-62 35q18 5 34.5 8t36.5 3q77 0 121.5 -43.5t44.5 -122.5q0 -93 -60 -142t-146 -49q-45 0 -79.5 8t-59.5 18l35 105q23 -10 48 -16t52 -6q44 0 69 20t25 59q0 37 -21.5 57t-64.5 20
q-19 0 -38 -3.5t-39 -9.5l53 217h99zM519 1529q-90 0 -153 34.5t-96 90t-33 120.5h166q0 -56 32.5 -84.5t83.5 -28.5t83.5 28.5t32.5 84.5h166q0 -65 -32.5 -120.5t-95 -90t-154.5 -34.5z" />
    <glyph glyph-name="uni1E1D" unicode="&#x1e1d;" horiz-adv-x="887" 
d="M515 -20q-156 0 -260 71.5t-155.5 189t-51.5 258.5q0 142 49 258t143.5 184.5t231.5 68.5q112 0 194.5 -52t128 -149t45.5 -231q0 -27 -3 -56t-8 -60h-559q8 -103 44.5 -169.5t94.5 -98t127 -31.5q71 0 137 19.5t119 52.5l10 -191q-52 -28 -124.5 -46t-162.5 -18z
M275 614h345q0 60 -15 108t-49.5 76.5t-92.5 28.5q-77 0 -124.5 -53.5t-63.5 -159.5zM527 -158l-62 35q18 5 34.5 8t36.5 3q77 0 121.5 -43.5t44.5 -122.5q0 -93 -60 -142t-146 -49q-45 0 -79.5 8t-59.5 18l35 105q23 -10 48 -16t52 -6q44 0 69 20t25 59q0 37 -21.5 57
t-64.5 20q-19 0 -38 -3.5t-39 -9.5l53 217h99zM473 1166q-89 0 -150.5 35t-93.5 93t-32 127h160q0 -53 29.5 -84t86.5 -31q58 0 87 31t29 84h160q0 -69 -32 -127t-93.5 -93t-150.5 -35z" />
    <glyph glyph-name="uni1E20" unicode="&#x1e20;" horiz-adv-x="1142" 
d="M696 -28q-194 0 -337 91.5t-221 255.5t-78 381q0 224 83.5 387.5t228 252t328.5 88.5q99 0 178.5 -18t143.5 -46l-25 -218q-63 28 -126 46t-144 18q-135 0 -229.5 -64t-143.5 -179t-49 -267q0 -155 45.5 -270t136.5 -177.5t226 -62.5q33 0 66.5 5.5t60.5 15.5v287h-167
v204h389v-632q-66 -44 -162 -71t-204 -27zM389 1586v139h610v-139h-610z" />
    <glyph glyph-name="uni1E21" unicode="&#x1e21;" horiz-adv-x="858" 
d="M438 -500q-116 0 -205 32t-140 93.5t-51 149.5q0 78 42 135.5t111 101.5q-46 24 -67.5 58t-21.5 78q0 47 26 81.5t73 59.5q-73 53 -113 140.5t-40 191.5q0 108 42.5 196.5t122 140.5t191.5 52q66 0 121 -18.5t98 -53.5q38 35 80.5 53.5t86.5 18.5q17 0 29 -1t21 -3
l-18 -149q-7 2 -16.5 3t-23.5 1q-20 0 -39.5 -3.5t-39.5 -12.5q28 -47 42.5 -104t14.5 -120q0 -108 -42.5 -197.5t-122 -143.5t-191.5 -54q-22 0 -43.5 2.5t-41.5 6.5q-24 -14 -24 -37q0 -22 19.5 -35t61.5 -25l182 -45q155 -40 226.5 -104.5t71.5 -184.5q0 -94 -54.5 -162
t-149.5 -105t-218 -37zM446 -333q95 0 156.5 31.5t61.5 92.5q0 52 -35.5 80t-120.5 50l-168 45q-51 -32 -84.5 -70.5t-33.5 -89.5q0 -69 62 -104t162 -35zM408 391q75 0 115 63.5t40 165.5q0 98 -40 161.5t-115 63.5q-76 0 -115.5 -63.5t-39.5 -161.5q0 -102 39.5 -165.5
t115.5 -63.5zM170 1198v148h570v-148h-570z" />
    <glyph glyph-name="uni1E24" unicode="&#x1e24;" horiz-adv-x="1272" 
d="M132 0v1400h222v-563h564v563h222v-1400h-222v619h-564v-619h-222zM543 -351v189h186v-189h-186z" />
    <glyph glyph-name="uni1E25" unicode="&#x1e25;" horiz-adv-x="950" 
d="M97 0v1500h217v-653l-60 -3q46 78 118.5 122t175.5 44q104 0 172.5 -49.5t103 -137.5t34.5 -205v-618h-217v590q0 116 -36 176.5t-115 60.5q-73 0 -124.5 -45t-84.5 -122l33 137v-797h-217zM385 -351v189h186v-189h-186z" />
    <glyph glyph-name="uni1E2A" unicode="&#x1e2a;" horiz-adv-x="1272" 
d="M132 0v1400h222v-563h564v563h222v-1400h-222v619h-564v-619h-222zM636 -451q-89 0 -150.5 35t-93.5 93t-32 127h160q0 -53 29.5 -84t86.5 -31q58 0 87 31t29 84h160q0 -69 -32 -127t-93.5 -93t-150.5 -35z" />
    <glyph glyph-name="uni1E2B" unicode="&#x1e2b;" horiz-adv-x="950" 
d="M97 0v1500h217v-653l-60 -3q46 78 118.5 122t175.5 44q104 0 172.5 -49.5t103 -137.5t34.5 -205v-618h-217v590q0 116 -36 176.5t-115 60.5q-73 0 -124.5 -45t-84.5 -122l33 137v-797h-217zM478 -451q-89 0 -150.5 35t-93.5 93t-32 127h160q0 -53 29.5 -84t86.5 -31
q58 0 87 31t29 84h160q0 -69 -32 -127t-93.5 -93t-150.5 -35z" />
    <glyph glyph-name="uni1E2E" unicode="&#x1e2e;" horiz-adv-x="483" 
d="M130 0v1400h222v-1400h-222zM-10 1574v164h178v-164h-178zM314 1574v164h178v-164h-178zM89 1829v130l306 160v-198z" />
    <glyph glyph-name="uni1E2F" unicode="&#x1e2f;" horiz-adv-x="413" 
d="M98 0v993h217v-993h-217zM-44 1167v164h178v-164h-178zM280 1167v164h178v-164h-178zM55 1422v130l306 160v-198z" />
    <glyph glyph-name="uni1E36" unicode="&#x1e36;" horiz-adv-x="860" 
d="M132 0v1400h222v-1196h494v-204h-716zM397 -351v189h186v-189h-186z" />
    <glyph glyph-name="uni1E37" unicode="&#x1e37;" horiz-adv-x="456" 
d="M319 -20q-77 0 -125.5 33t-71.5 90.5t-23 129.5v1267h216v-1177q0 -65 7.5 -100t30 -48t65.5 -13l-20 -182h-79zM184 -351v189h186v-189h-186z" />
    <glyph glyph-name="uni1E3A" unicode="&#x1e3a;" horiz-adv-x="860" 
d="M132 0v1400h222v-1196h494v-204h-716zM205 -334v148h570v-148h-570z" />
    <glyph glyph-name="uni1E3B" unicode="&#x1e3b;" horiz-adv-x="456" 
d="M319 -20q-77 0 -125.5 33t-71.5 90.5t-23 129.5v1267h216v-1177q0 -65 7.5 -100t30 -48t65.5 -13l-20 -182h-79zM-8 -334v148h570v-148h-570z" />
    <glyph glyph-name="uni1E42" unicode="&#x1e42;" horiz-adv-x="1445" 
d="M80 0l167 1400h183l293 -652l292 652h183l167 -1400h-232l-114 1073l73 -12l-369 -776l-369 775l72 12l-114 -1072h-232zM636 -351v189h186v-189h-186z" />
    <glyph glyph-name="uni1E43" unicode="&#x1e43;" horiz-adv-x="1493" 
d="M100 0v993h183l17 -146l-43 -3q43 78 115 122t169 44q72 0 127.5 -25.5t93.5 -73t57 -111.5l-55 19q39 88 119 139.5t192 51.5q114 0 186 -49.5t106 -138t34 -204.5v-618h-216v590q0 115 -34.5 176t-121.5 61q-41 0 -72.5 -13.5t-53.5 -40t-33 -65.5t-11 -90v-618h-217
v590q0 77 -15.5 130t-48.5 80t-85 27q-73 0 -125 -45t-84 -122l33 137v-797h-217zM659 -351v189h186v-189h-186z" />
    <glyph glyph-name="uni1E44" unicode="&#x1e44;" horiz-adv-x="1216" 
d="M132 0v1400h235l495 -928v928h222v-1400h-198l-532 985v-985h-222zM518 1583v189h194v-189h-194z" />
    <glyph glyph-name="uni1E45" unicode="&#x1e45;" horiz-adv-x="952" 
d="M100 0v993h187l16 -146l-46 -3q45 78 118 122t175 44q156 0 233.5 -108.5t77.5 -283.5v-618h-217v590q0 117 -36.5 178t-114.5 61q-73 0 -125 -45.5t-84 -123.5l33 137v-797h-217zM398 1183v189h186v-189h-186z" />
    <glyph glyph-name="uni1E46" unicode="&#x1e46;" horiz-adv-x="1216" 
d="M132 0v1400h235l495 -928v928h222v-1400h-198l-532 985v-985h-222zM527 -351v189h186v-189h-186z" />
    <glyph glyph-name="uni1E47" unicode="&#x1e47;" horiz-adv-x="952" 
d="M100 0v993h187l16 -146l-46 -3q45 78 118 122t175 44q156 0 233.5 -108.5t77.5 -283.5v-618h-217v590q0 117 -36.5 178t-114.5 61q-73 0 -125 -45.5t-84 -123.5l33 137v-797h-217zM388 -351v189h186v-189h-186z" />
    <glyph glyph-name="uni1E48" unicode="&#x1e48;" horiz-adv-x="1216" 
d="M132 0v1400h235l495 -928v928h222v-1400h-198l-532 985v-985h-222zM335 -334v148h570v-148h-570z" />
    <glyph glyph-name="uni1E49" unicode="&#x1e49;" horiz-adv-x="952" 
d="M100 0v993h187l16 -146l-46 -3q45 78 118 122t175 44q156 0 233.5 -108.5t77.5 -283.5v-618h-217v590q0 117 -36.5 178t-114.5 61q-73 0 -125 -45.5t-84 -123.5l33 137v-797h-217zM196 -334v148h570v-148h-570z" />
    <glyph glyph-name="uni1E4C" unicode="&#x1e4c;" horiz-adv-x="1307" 
d="M654 -28q-172 0 -306 90t-211 253.5t-77 384.5t77 384.5t211 253.5t306 90t306.5 -90t210.5 -253.5t76 -384.5t-76 -384.5t-210.5 -253.5t-306.5 -90zM654 195q119 0 198 66t119 180.5t40 258.5t-39.5 258.5t-119.5 180.5t-198 66t-197.5 -66t-119.5 -180.5t-40 -258.5
t40 -258.5t119.5 -180.5t197.5 -66zM804 1562q-46 0 -89.5 19.5t-83 39t-73.5 19.5q-58 0 -58 -66h-144q0 101 37.5 154t110.5 53q46 0 89.5 -19.5t83 -39t73.5 -19.5q58 0 58 65h144q0 -99 -37 -152.5t-111 -53.5zM502 1859v130l306 160v-198z" />
    <glyph glyph-name="uni1E4D" unicode="&#x1e4d;" horiz-adv-x="969" 
d="M484 -20q-138 0 -235.5 70t-149 187t-51.5 258t51.5 258t149 187t235.5 70t236 -70t149.5 -187t51.5 -258t-51.5 -258t-149.5 -187t-236 -70zM484 161q104 0 160 91.5t56 243.5q0 151 -56 242t-160 91q-102 0 -158.5 -91t-56.5 -243q0 -151 56.5 -242.5t158.5 -91.5z
M635 1155q-46 0 -89.5 19.5t-83 39t-73.5 19.5q-58 0 -58 -66h-144q0 101 37.5 154t110.5 53q46 0 89.5 -19.5t83 -39t73.5 -19.5q58 0 58 65h144q0 -99 -37 -152.5t-111 -53.5zM333 1451v130l306 160v-198z" />
    <glyph glyph-name="uni1E4E" unicode="&#x1e4e;" horiz-adv-x="1307" 
d="M654 -28q-172 0 -306 90t-211 253.5t-77 384.5t77 384.5t211 253.5t306 90t306.5 -90t210.5 -253.5t76 -384.5t-76 -384.5t-210.5 -253.5t-306.5 -90zM654 195q119 0 198 66t119 180.5t40 258.5t-39.5 258.5t-119.5 180.5t-198 66t-197.5 -66t-119.5 -180.5t-40 -258.5
t40 -258.5t119.5 -180.5t197.5 -66zM804 1562q-46 0 -89.5 19.5t-83 39t-73.5 19.5q-58 0 -58 -66h-144q0 101 37.5 154t110.5 53q46 0 89.5 -19.5t83 -39t73.5 -19.5q58 0 58 65h144q0 -99 -37 -152.5t-111 -53.5zM403 1911v164h178v-164h-178zM727 1911v164h178v-164h-178
z" />
    <glyph glyph-name="uni1E4F" unicode="&#x1e4f;" horiz-adv-x="969" 
d="M484 -20q-138 0 -235.5 70t-149 187t-51.5 258t51.5 258t149 187t235.5 70t236 -70t149.5 -187t51.5 -258t-51.5 -258t-149.5 -187t-236 -70zM484 161q104 0 160 91.5t56 243.5q0 151 -56 242t-160 91q-102 0 -158.5 -91t-56.5 -243q0 -151 56.5 -242.5t158.5 -91.5z
M635 1155q-46 0 -89.5 19.5t-83 39t-73.5 19.5q-58 0 -58 -66h-144q0 101 37.5 154t110.5 53q46 0 89.5 -19.5t83 -39t73.5 -19.5q58 0 58 65h144q0 -99 -37 -152.5t-111 -53.5zM234 1504v164h178v-164h-178zM558 1504v164h178v-164h-178z" />
    <glyph glyph-name="uni1E50" unicode="&#x1e50;" horiz-adv-x="1307" 
d="M654 -28q-172 0 -306 90t-211 253.5t-77 384.5t77 384.5t211 253.5t306 90t306.5 -90t210.5 -253.5t76 -384.5t-76 -384.5t-210.5 -253.5t-306.5 -90zM654 195q119 0 198 66t119 180.5t40 258.5t-39.5 258.5t-119.5 180.5t-198 66t-197.5 -66t-119.5 -180.5t-40 -258.5
t40 -258.5t119.5 -180.5t197.5 -66zM349 1586v139h610v-139h-610zM806 1853l-306 90v200l306 -160v-130z" />
    <glyph glyph-name="uni1E51" unicode="&#x1e51;" horiz-adv-x="969" 
d="M484 -20q-138 0 -235.5 70t-149 187t-51.5 258t51.5 258t149 187t235.5 70t236 -70t149.5 -187t51.5 -258t-51.5 -258t-149.5 -187t-236 -70zM484 161q104 0 160 91.5t56 243.5q0 151 -56 242t-160 91q-102 0 -158.5 -91t-56.5 -243q0 -151 56.5 -242.5t158.5 -91.5z
M180 1179v139h610v-139h-610zM637 1446l-306 90v200l306 -160v-130z" />
    <glyph glyph-name="uni1E52" unicode="&#x1e52;" horiz-adv-x="1307" 
d="M654 -28q-172 0 -306 90t-211 253.5t-77 384.5t77 384.5t211 253.5t306 90t306.5 -90t210.5 -253.5t76 -384.5t-76 -384.5t-210.5 -253.5t-306.5 -90zM654 195q119 0 198 66t119 180.5t40 258.5t-39.5 258.5t-119.5 180.5t-198 66t-197.5 -66t-119.5 -180.5t-40 -258.5
t40 -258.5t119.5 -180.5t197.5 -66zM349 1586v139h610v-139h-610zM502 1853v130l306 160v-198z" />
    <glyph glyph-name="uni1E53" unicode="&#x1e53;" horiz-adv-x="969" 
d="M484 -20q-138 0 -235.5 70t-149 187t-51.5 258t51.5 258t149 187t235.5 70t236 -70t149.5 -187t51.5 -258t-51.5 -258t-149.5 -187t-236 -70zM484 161q104 0 160 91.5t56 243.5q0 151 -56 242t-160 91q-102 0 -158.5 -91t-56.5 -243q0 -151 56.5 -242.5t158.5 -91.5z
M180 1179v139h610v-139h-610zM333 1446v130l306 160v-198z" />
    <glyph glyph-name="uni1E5A" unicode="&#x1e5a;" horiz-adv-x="1077" 
d="M131 0v1400h390q142 0 247 -45.5t163 -140.5t58 -245q0 -128 -54 -224.5t-151 -152.5l272 -592h-253l-236 530q-8 0 -17.5 -0.5t-19.5 -0.5h-177v-529h-222zM353 725h148q128 0 192.5 57.5t64.5 181.5t-64.5 182t-192.5 58h-148v-479zM486 -351v189h186v-189h-186z" />
    <glyph glyph-name="uni1E5B" unicode="&#x1e5b;" horiz-adv-x="580" 
d="M99 0v993h186l18 -127q56 70 108.5 107t121.5 37q27 0 50 -6l-18 -226q-13 4 -28 6.5t-35 2.5q-55 0 -101.5 -28t-85.5 -73v-686h-216zM114 -351v189h186v-189h-186z" />
    <glyph glyph-name="uni1E5E" unicode="&#x1e5e;" horiz-adv-x="1077" 
d="M131 0v1400h390q142 0 247 -45.5t163 -140.5t58 -245q0 -128 -54 -224.5t-151 -152.5l272 -592h-253l-236 530q-8 0 -17.5 -0.5t-19.5 -0.5h-177v-529h-222zM353 725h148q128 0 192.5 57.5t64.5 181.5t-64.5 182t-192.5 58h-148v-479zM294 -334v148h570v-148h-570z" />
    <glyph glyph-name="uni1E5F" unicode="&#x1e5f;" horiz-adv-x="580" 
d="M99 0v993h186l18 -127q56 70 108.5 107t121.5 37q27 0 50 -6l-18 -226q-13 4 -28 6.5t-35 2.5q-55 0 -101.5 -28t-85.5 -73v-686h-216zM-78 -334v148h570v-148h-570z" />
    <glyph glyph-name="uni1E60" unicode="&#x1e60;" horiz-adv-x="1008" 
d="M477 -28q-71 0 -142.5 10.5t-136.5 29.5t-115 43l28 247q59 -34 121.5 -59t128 -39t132.5 -14q105 0 165.5 42.5t60.5 124.5q0 61 -29.5 104.5t-93 82t-166.5 84.5q-111 50 -190.5 104t-121.5 126.5t-42 180.5q0 114 56.5 202t161.5 137.5t249 49.5q106 0 196.5 -23
t161.5 -57l-23 -237q-93 49 -178 74t-174 25q-97 0 -153.5 -39t-56.5 -122q0 -61 35 -101.5t101 -75.5t160 -79q114 -54 191 -112.5t116 -133.5t39 -177q0 -91 -33 -164.5t-95 -125.5t-151 -80t-202 -28zM438 1583v189h194v-189h-194z" />
    <glyph glyph-name="uni1E61" unicode="&#x1e61;" horiz-adv-x="731" 
d="M351 -20q-86 0 -155 19t-135 55l22 199q62 -45 126 -71.5t126 -26.5q69 0 107 27t38 78q0 37 -16.5 62.5t-56 50t-109.5 57.5q-74 35 -125 74t-77.5 92t-26.5 131q0 83 40 147t113.5 100t175.5 36q81 0 143.5 -19.5t114.5 -50.5l-22 -191q-51 41 -102.5 66t-118.5 25
q-61 0 -98 -26.5t-37 -75.5q0 -54 43.5 -83.5t137.5 -76.5q58 -29 102 -59t72.5 -65.5t42.5 -79t14 -100.5q0 -92 -41.5 -158t-118 -101t-179.5 -35zM304 1196v189h186v-189h-186z" />
    <glyph glyph-name="uni1E62" unicode="&#x1e62;" horiz-adv-x="1008" 
d="M477 -28q-71 0 -142.5 10.5t-136.5 29.5t-115 43l28 247q59 -34 121.5 -59t128 -39t132.5 -14q105 0 165.5 42.5t60.5 124.5q0 61 -29.5 104.5t-93 82t-166.5 84.5q-111 50 -190.5 104t-121.5 126.5t-42 180.5q0 114 56.5 202t161.5 137.5t249 49.5q106 0 196.5 -23
t161.5 -57l-23 -237q-93 49 -178 74t-174 25q-97 0 -153.5 -39t-56.5 -122q0 -61 35 -101.5t101 -75.5t160 -79q114 -54 191 -112.5t116 -133.5t39 -177q0 -91 -33 -164.5t-95 -125.5t-151 -80t-202 -28zM425 -351v189h186v-189h-186z" />
    <glyph glyph-name="uni1E63" unicode="&#x1e63;" horiz-adv-x="731" 
d="M351 -20q-86 0 -155 19t-135 55l22 199q62 -45 126 -71.5t126 -26.5q69 0 107 27t38 78q0 37 -16.5 62.5t-56 50t-109.5 57.5q-74 35 -125 74t-77.5 92t-26.5 131q0 83 40 147t113.5 100t175.5 36q81 0 143.5 -19.5t114.5 -50.5l-22 -191q-51 41 -102.5 66t-118.5 25
q-61 0 -98 -26.5t-37 -75.5q0 -54 43.5 -83.5t137.5 -76.5q58 -29 102 -59t72.5 -65.5t42.5 -79t14 -100.5q0 -92 -41.5 -158t-118 -101t-179.5 -35zM264 -351v189h186v-189h-186z" />
    <glyph glyph-name="uni1E64" unicode="&#x1e64;" horiz-adv-x="1008" 
d="M477 -28q-71 0 -142.5 10.5t-136.5 29.5t-115 43l28 247q59 -34 121.5 -59t128 -39t132.5 -14q105 0 165.5 42.5t60.5 124.5q0 61 -29.5 104.5t-93 82t-166.5 84.5q-111 50 -190.5 104t-121.5 126.5t-42 180.5q0 114 56.5 202t161.5 137.5t249 49.5q106 0 196.5 -23
t161.5 -57l-23 -237q-93 49 -178 74t-174 25q-97 0 -153.5 -39t-56.5 -122q0 -61 35 -101.5t101 -75.5t160 -79q114 -54 191 -112.5t116 -133.5t39 -177q0 -91 -33 -164.5t-95 -125.5t-151 -80t-202 -28zM383 1522v130l306 160v-198zM438 1908v189h194v-189h-194z" />
    <glyph glyph-name="uni1E65" unicode="&#x1e65;" horiz-adv-x="731" 
d="M351 -20q-86 0 -155 19t-135 55l22 199q62 -45 126 -71.5t126 -26.5q69 0 107 27t38 78q0 37 -16.5 62.5t-56 50t-109.5 57.5q-74 35 -125 74t-77.5 92t-26.5 131q0 83 40 147t113.5 100t175.5 36q81 0 143.5 -19.5t114.5 -50.5l-22 -191q-51 41 -102.5 66t-118.5 25
q-61 0 -98 -26.5t-37 -75.5q0 -54 43.5 -83.5t137.5 -76.5q58 -29 102 -59t72.5 -65.5t42.5 -79t14 -100.5q0 -92 -41.5 -158t-118 -101t-179.5 -35zM245 1115v130l306 160v-198zM300 1501v189h194v-189h-194z" />
    <glyph glyph-name="uni1E66" unicode="&#x1e66;" horiz-adv-x="1008" 
d="M477 -28q-71 0 -142.5 10.5t-136.5 29.5t-115 43l28 247q59 -34 121.5 -59t128 -39t132.5 -14q105 0 165.5 42.5t60.5 124.5q0 61 -29.5 104.5t-93 82t-166.5 84.5q-111 50 -190.5 104t-121.5 126.5t-42 180.5q0 114 56.5 202t161.5 137.5t249 49.5q106 0 196.5 -23
t161.5 -57l-23 -237q-93 49 -178 74t-174 25q-97 0 -153.5 -39t-56.5 -122q0 -61 35 -101.5t101 -75.5t160 -79q114 -54 191 -112.5t116 -133.5t39 -177q0 -91 -33 -164.5t-95 -125.5t-151 -80t-202 -28zM295 1871v-139l240 -169l240 169v139l-240 -129zM438 1955v189h194
v-189h-194z" />
    <glyph glyph-name="uni1E67" unicode="&#x1e67;" horiz-adv-x="731" 
d="M351 -20q-86 0 -155 19t-135 55l22 199q62 -45 126 -71.5t126 -26.5q69 0 107 27t38 78q0 37 -16.5 62.5t-56 50t-109.5 57.5q-74 35 -125 74t-77.5 92t-26.5 131q0 83 40 147t113.5 100t175.5 36q81 0 143.5 -19.5t114.5 -50.5l-22 -191q-51 41 -102.5 66t-118.5 25
q-61 0 -98 -26.5t-37 -75.5q0 -54 43.5 -83.5t137.5 -76.5q58 -29 102 -59t72.5 -65.5t42.5 -79t14 -100.5q0 -92 -41.5 -158t-118 -101t-179.5 -35zM157 1464v-139l240 -169l240 169v139l-240 -129zM300 1547v189h194v-189h-194z" />
    <glyph glyph-name="uni1E68" unicode="&#x1e68;" horiz-adv-x="1008" 
d="M477 -28q-71 0 -142.5 10.5t-136.5 29.5t-115 43l28 247q59 -34 121.5 -59t128 -39t132.5 -14q105 0 165.5 42.5t60.5 124.5q0 61 -29.5 104.5t-93 82t-166.5 84.5q-111 50 -190.5 104t-121.5 126.5t-42 180.5q0 114 56.5 202t161.5 137.5t249 49.5q106 0 196.5 -23
t161.5 -57l-23 -237q-93 49 -178 74t-174 25q-97 0 -153.5 -39t-56.5 -122q0 -61 35 -101.5t101 -75.5t160 -79q114 -54 191 -112.5t116 -133.5t39 -177q0 -91 -33 -164.5t-95 -125.5t-151 -80t-202 -28zM438 1583v189h194v-189h-194zM425 -351v189h186v-189h-186z" />
    <glyph glyph-name="uni1E69" unicode="&#x1e69;" horiz-adv-x="731" 
d="M351 -20q-86 0 -155 19t-135 55l22 199q62 -45 126 -71.5t126 -26.5q69 0 107 27t38 78q0 37 -16.5 62.5t-56 50t-109.5 57.5q-74 35 -125 74t-77.5 92t-26.5 131q0 83 40 147t113.5 100t175.5 36q81 0 143.5 -19.5t114.5 -50.5l-22 -191q-51 41 -102.5 66t-118.5 25
q-61 0 -98 -26.5t-37 -75.5q0 -54 43.5 -83.5t137.5 -76.5q58 -29 102 -59t72.5 -65.5t42.5 -79t14 -100.5q0 -92 -41.5 -158t-118 -101t-179.5 -35zM304 1196v189h186v-189h-186zM264 -351v189h186v-189h-186z" />
    <glyph glyph-name="uni1E6C" unicode="&#x1e6c;" horiz-adv-x="952" 
d="M365 0v1196h-340v204h902v-204h-340v-1196h-222zM383 -351v189h186v-189h-186z" />
    <glyph glyph-name="uni1E6D" unicode="&#x1e6d;" horiz-adv-x="597" 
d="M385 -20q-77 0 -128.5 31t-77.5 87.5t-26 133.5v580h-120l20 181h100v228l217 23v-251h187v-181h-187v-515q0 -48 12 -77.5t38.5 -43.5t68.5 -14h69l-20 -182h-153zM275 -351v189h186v-189h-186z" />
    <glyph glyph-name="uni1E6E" unicode="&#x1e6e;" horiz-adv-x="952" 
d="M365 0v1196h-340v204h902v-204h-340v-1196h-222zM191 -334v148h570v-148h-570z" />
    <glyph glyph-name="uni1E6F" unicode="&#x1e6f;" horiz-adv-x="597" 
d="M385 -20q-77 0 -128.5 31t-77.5 87.5t-26 133.5v580h-120l20 181h100v228l217 23v-251h187v-181h-187v-515q0 -48 12 -77.5t38.5 -43.5t68.5 -14h69l-20 -182h-153zM83 -334v148h570v-148h-570z" />
    <glyph glyph-name="uni1E78" unicode="&#x1e78;" horiz-adv-x="1238" 
d="M619 -28q-172 0 -282.5 70.5t-164 199t-53.5 303.5v855h222v-794q0 -89 11 -165t40.5 -132.5t84 -87.5t142.5 -31t143 31t84 88t39.5 132.5t10.5 164.5v794h223v-855q0 -175 -53.5 -303.5t-164.5 -199t-282 -70.5zM771 1562q-46 0 -89.5 19.5t-83 39t-73.5 19.5
q-58 0 -58 -66h-144q0 101 37.5 154t110.5 53q46 0 89.5 -19.5t83 -39t73.5 -19.5q58 0 58 65h144q0 -99 -37 -152.5t-111 -53.5zM469 1859v130l306 160v-198z" />
    <glyph glyph-name="uni1E79" unicode="&#x1e79;" horiz-adv-x="941" 
d="M399 -17q-105 0 -172.5 47t-101 131.5t-33.5 198.5v633h217v-604q0 -106 34 -165t113 -59q72 0 123 45.5t82 122.5l-32 -137v797h216v-993h-187l-16 146l46 3q-44 -78 -116 -122t-173 -44zM617 1155q-46 0 -89.5 19.5t-83 39t-73.5 19.5q-58 0 -58 -66h-144
q0 101 37.5 154t110.5 53q46 0 89.5 -19.5t83 -39t73.5 -19.5q58 0 58 65h144q0 -99 -37 -152.5t-111 -53.5zM315 1451v130l306 160v-198z" />
    <glyph glyph-name="uni1E7A" unicode="&#x1e7a;" horiz-adv-x="1238" 
d="M619 -28q-172 0 -282.5 70.5t-164 199t-53.5 303.5v855h222v-794q0 -89 11 -165t40.5 -132.5t84 -87.5t142.5 -31t143 31t84 88t39.5 132.5t10.5 164.5v794h223v-855q0 -175 -53.5 -303.5t-164.5 -199t-282 -70.5zM316 1586v139h610v-139h-610zM370 1905v164h178v-164
h-178zM694 1905v164h178v-164h-178z" />
    <glyph glyph-name="uni1E7B" unicode="&#x1e7b;" horiz-adv-x="941" 
d="M399 -17q-105 0 -172.5 47t-101 131.5t-33.5 198.5v633h217v-604q0 -106 34 -165t113 -59q72 0 123 45.5t82 122.5l-32 -137v797h216v-993h-187l-16 146l46 3q-44 -78 -116 -122t-173 -44zM162 1179v139h610v-139h-610zM216 1498v164h178v-164h-178zM540 1498v164h178
v-164h-178z" />
    <glyph glyph-name="Wgrave" unicode="&#x1e80;" horiz-adv-x="1635" 
d="M327 0l-324 1400h227l221 -1073l246 1046h241l245 -1046l222 1073h226l-323 -1400h-241l-250 1044l-249 -1044h-241zM969 1522l-306 90v200l306 -160v-130z" />
    <glyph glyph-name="wgrave" unicode="&#x1e81;" horiz-adv-x="1246" 
d="M275 0l-270 993h226l149 -717l149 693h189l154 -693l144 717h225l-269 -993h-195l-154 673l-153 -673h-195zM776 1158l-306 123v224l306 -196v-151z" />
    <glyph glyph-name="Wacute" unicode="&#x1e82;" horiz-adv-x="1635" 
d="M327 0l-324 1400h227l221 -1073l246 1046h241l245 -1046l222 1073h226l-323 -1400h-241l-250 1044l-249 -1044h-241zM665 1522v130l306 160v-198z" />
    <glyph glyph-name="wacute" unicode="&#x1e83;" horiz-adv-x="1246" 
d="M275 0l-270 993h226l149 -717l149 693h189l154 -693l144 717h225l-269 -993h-195l-154 673l-153 -673h-195zM472 1160v145l306 191v-218z" />
    <glyph glyph-name="Wdieresis" unicode="&#x1e84;" horiz-adv-x="1635" 
d="M327 0l-324 1400h227l221 -1073l246 1046h241l245 -1046l222 1073h226l-323 -1400h-241l-250 1044l-249 -1044h-241zM566 1574v164h178v-164h-178zM890 1574v164h178v-164h-178z" />
    <glyph glyph-name="wdieresis" unicode="&#x1e85;" horiz-adv-x="1246" 
d="M275 0l-270 993h226l149 -717l149 693h189l154 -693l144 717h225l-269 -993h-195l-154 673l-153 -673h-195zM698 1182v173h177v-173h-177zM373 1182v173h177v-173h-177z" />
    <glyph glyph-name="uni1E8E" unicode="&#x1e8e;" horiz-adv-x="1044" 
d="M408 0v615l-419 785h240l337 -662h-93l333 662h240l-417 -785v-615h-221zM421 1583v189h194v-189h-194z" />
    <glyph glyph-name="uni1E8F" unicode="&#x1e8f;" horiz-adv-x="934" 
d="M157 -484l204 529l-348 948h228l229 -698l222 698h228l-539 -1477h-224zM376 1196v189h186v-189h-186z" />
    <glyph glyph-name="uni1E92" unicode="&#x1e92;" horiz-adv-x="956" 
d="M14 0l627 1273l39 -78h-587v205h837l-625 -1273l-38 78h671v-205h-924zM383 -351v189h186v-189h-186z" />
    <glyph glyph-name="uni1E93" unicode="&#x1e93;" horiz-adv-x="806" 
d="M36 0l456 892l5 -85h-436v186h710l-456 -892l-12 85h456v-186h-723zM305 -351v189h186v-189h-186z" />
    <glyph glyph-name="uni1E97" unicode="&#x1e97;" horiz-adv-x="597" 
d="M385 -20q-77 0 -128.5 31t-77.5 87.5t-26 133.5v580h-120l20 181h100v228l217 23v-251h187v-181h-187v-515q0 -48 12 -77.5t38.5 -43.5t68.5 -14h69l-20 -182h-153zM336 1419v173h177v-173h-177zM11 1419v173h177v-173h-177z" />
    <glyph glyph-name="uni1E9E" unicode="&#x1e9e;" horiz-adv-x="1128" 
d="M132 0v934q0 166 60 276t167 164t247 54q110 0 197.5 -28.5t153.5 -73.5v-182l-272 -436l-88 123q137 -3 241 -48.5t162.5 -139t58.5 -242.5q0 -146 -54 -241t-144.5 -141.5t-197.5 -46.5q-48 0 -94.5 7.5t-87.5 20.5v212q63 -22 135 -22q91 0 144.5 60t53.5 165
q0 112 -58 172.5t-174 60.5h-57v182l304 473l4 -138q-43 28 -92 43.5t-114 15.5q-125 0 -195 -76.5t-70 -209.5v-938h-230z" />
    <glyph glyph-name="uni1EA0" unicode="&#x1ea0;" horiz-adv-x="1074" 
d="M793 350h-512v205h512v-205zM511 1147h50l-331 -1147h-227l428 1400h211l428 -1400h-226zM444 -351v189h186v-189h-186z" />
    <glyph glyph-name="uni1EA1" unicode="&#x1ea1;" horiz-adv-x="854" 
d="M295 -20q-72 0 -131.5 33t-95 96t-35.5 151t34 150.5t89.5 104t120 66t128 36t110.5 12.5q0 102 -34 144.5t-116 42.5q-62 0 -119 -20.5t-121 -60.5l-18 182q73 46 152 69.5t159 23.5q98 0 169 -37.5t109 -120t38 -217.5v-296q0 -73 6 -111t22 -52t45 -14h29l-18 -182
h-82q-47 0 -84 15.5t-64 43.5t-43 67q-48 -57 -108 -91.5t-142 -34.5zM367 153q42 0 80 25.5t69 68.5v230q-71 -6 -129 -27.5t-92 -63t-34 -107.5q0 -67 29.5 -96.5t76.5 -29.5zM335 -351v189h186v-189h-186z" />
    <glyph glyph-name="uni1EA2" unicode="&#x1ea2;" horiz-adv-x="1074" 
d="M793 350h-512v205h512v-205zM511 1147h50l-331 -1147h-227l428 1400h211l428 -1400h-226zM534 1520l-25 83q28 12 43 28t15 44q0 30 -17.5 44.5t-49.5 14.5q-24 0 -49 -8t-49 -20l-34 114q32 14 68 21.5t76 7.5q75 0 127 -40t52 -114q0 -66 -39.5 -107t-117.5 -68z" />
    <glyph glyph-name="uni1EA3" unicode="&#x1ea3;" horiz-adv-x="854" 
d="M295 -20q-72 0 -131.5 33t-95 96t-35.5 151t34 150.5t89.5 104t120 66t128 36t110.5 12.5q0 102 -34 144.5t-116 42.5q-62 0 -119 -20.5t-121 -60.5l-18 182q73 46 152 69.5t159 23.5q98 0 169 -37.5t109 -120t38 -217.5v-296q0 -73 6 -111t22 -52t45 -14h29l-18 -182
h-82q-47 0 -84 15.5t-64 43.5t-43 67q-48 -57 -108 -91.5t-142 -34.5zM367 153q42 0 80 25.5t69 68.5v230q-71 -6 -129 -27.5t-92 -63t-34 -107.5q0 -67 29.5 -96.5t76.5 -29.5zM459 1061l-72 72q36 38 54 66t18 63q0 33 -18 49.5t-50 16.5q-24 0 -49 -8.5t-49 -22.5
l-34 110q30 15 65.5 23.5t75.5 8.5q74 0 125.5 -44t51.5 -126q0 -65 -30 -111.5t-88 -96.5z" />
    <glyph glyph-name="uni1EA4" unicode="&#x1ea4;" horiz-adv-x="1074" 
d="M793 350h-512v205h512v-205zM511 1147h50l-331 -1147h-227l428 1400h211l428 -1400h-226zM297 1496v138l240 170l240 -170v-138l-240 129zM678 1780l112 247h209l-181 -247h-140z" />
    <glyph glyph-name="uni1EA5" unicode="&#x1ea5;" horiz-adv-x="854" 
d="M295 -20q-72 0 -131.5 33t-95 96t-35.5 151t34 150.5t89.5 104t120 66t128 36t110.5 12.5q0 102 -34 144.5t-116 42.5q-62 0 -119 -20.5t-121 -60.5l-18 182q73 46 152 69.5t159 23.5q98 0 169 -37.5t109 -120t38 -217.5v-296q0 -73 6 -111t22 -52t45 -14h29l-18 -182
h-82q-47 0 -84 15.5t-64 43.5t-43 67q-48 -57 -108 -91.5t-142 -34.5zM367 153q42 0 80 25.5t69 68.5v230q-71 -6 -129 -27.5t-92 -63t-34 -107.5q0 -67 29.5 -96.5t76.5 -29.5zM188 1089v138l240 170l240 -170v-138l-240 129zM569 1373l112 247h209l-181 -247h-140z" />
    <glyph glyph-name="uni1EA6" unicode="&#x1ea6;" horiz-adv-x="1074" 
d="M793 350h-512v205h512v-205zM511 1147h50l-331 -1147h-227l428 1400h211l428 -1400h-226zM297 1496v138l240 170l240 -170v-138l-240 129zM726 1780l-147 247h197l86 -247h-136z" />
    <glyph glyph-name="uni1EA7" unicode="&#x1ea7;" horiz-adv-x="854" 
d="M295 -20q-72 0 -131.5 33t-95 96t-35.5 151t34 150.5t89.5 104t120 66t128 36t110.5 12.5q0 102 -34 144.5t-116 42.5q-62 0 -119 -20.5t-121 -60.5l-18 182q73 46 152 69.5t159 23.5q98 0 169 -37.5t109 -120t38 -217.5v-296q0 -73 6 -111t22 -52t45 -14h29l-18 -182
h-82q-47 0 -84 15.5t-64 43.5t-43 67q-48 -57 -108 -91.5t-142 -34.5zM367 153q42 0 80 25.5t69 68.5v230q-71 -6 -129 -27.5t-92 -63t-34 -107.5q0 -67 29.5 -96.5t76.5 -29.5zM188 1089v138l240 170l240 -170v-138l-240 129zM617 1373l-147 247h197l86 -247h-136z" />
    <glyph glyph-name="uni1EA8" unicode="&#x1ea8;" horiz-adv-x="1074" 
d="M793 350h-512v205h512v-205zM511 1147h50l-331 -1147h-227l428 1400h211l428 -1400h-226zM297 1496v138l240 170l240 -170v-138l-240 129zM733 1744l-25 83q28 12 43 28t15 44q0 30 -17.5 44.5t-49.5 14.5q-24 0 -49 -8t-49 -20l-34 114q32 14 68 21.5t76 7.5
q76 0 127.5 -40t51.5 -114q0 -66 -39.5 -107t-117.5 -68z" />
    <glyph glyph-name="uni1EA9" unicode="&#x1ea9;" horiz-adv-x="854" 
d="M295 -20q-72 0 -131.5 33t-95 96t-35.5 151t34 150.5t89.5 104t120 66t128 36t110.5 12.5q0 102 -34 144.5t-116 42.5q-62 0 -119 -20.5t-121 -60.5l-18 182q73 46 152 69.5t159 23.5q98 0 169 -37.5t109 -120t38 -217.5v-296q0 -73 6 -111t22 -52t45 -14h29l-18 -182
h-82q-47 0 -84 15.5t-64 43.5t-43 67q-48 -57 -108 -91.5t-142 -34.5zM367 153q42 0 80 25.5t69 68.5v230q-71 -6 -129 -27.5t-92 -63t-34 -107.5q0 -67 29.5 -96.5t76.5 -29.5zM188 1089v138l240 170l240 -170v-138l-240 129zM624 1337l-25 83q28 12 43 28t15 44
q0 30 -17.5 44.5t-49.5 14.5q-24 0 -49 -8t-49 -20l-34 114q32 14 68 21.5t76 7.5q76 0 127.5 -40t51.5 -114q0 -66 -39.5 -107t-117.5 -68z" />
    <glyph glyph-name="uni1EAA" unicode="&#x1eaa;" horiz-adv-x="1074" 
d="M793 350h-512v205h512v-205zM511 1147h50l-331 -1147h-227l428 1400h211l428 -1400h-226zM297 1496v138l240 170l240 -170v-138l-240 129zM687 1880q-46 0 -89.5 19t-83 38.5t-73.5 19.5q-58 0 -58 -65h-144q0 101 37.5 153.5t110.5 52.5q46 0 89.5 -19t83 -38.5
t73.5 -19.5q58 0 58 65h144q0 -99 -37 -152.5t-111 -53.5z" />
    <glyph glyph-name="uni1EAB" unicode="&#x1eab;" horiz-adv-x="854" 
d="M295 -20q-72 0 -131.5 33t-95 96t-35.5 151t34 150.5t89.5 104t120 66t128 36t110.5 12.5q0 102 -34 144.5t-116 42.5q-62 0 -119 -20.5t-121 -60.5l-18 182q73 46 152 69.5t159 23.5q98 0 169 -37.5t109 -120t38 -217.5v-296q0 -73 6 -111t22 -52t45 -14h29l-18 -182
h-82q-47 0 -84 15.5t-64 43.5t-43 67q-48 -57 -108 -91.5t-142 -34.5zM367 153q42 0 80 25.5t69 68.5v230q-71 -6 -129 -27.5t-92 -63t-34 -107.5q0 -67 29.5 -96.5t76.5 -29.5zM188 1089v138l240 170l240 -170v-138l-240 129zM578 1473q-46 0 -89.5 19t-83 38.5t-73.5 19.5
q-58 0 -58 -65h-144q0 101 37.5 153.5t110.5 52.5q46 0 89.5 -19t83 -38.5t73.5 -19.5q58 0 58 65h144q0 -99 -37 -152.5t-111 -53.5z" />
    <glyph glyph-name="uni1EAC" unicode="&#x1eac;" horiz-adv-x="1074" 
d="M793 350h-512v205h512v-205zM511 1147h50l-331 -1147h-227l428 1400h211l428 -1400h-226zM317 1535v145l220 187l220 -187v-145l-220 138zM444 -351v189h186v-189h-186z" />
    <glyph glyph-name="uni1EAD" unicode="&#x1ead;" horiz-adv-x="854" 
d="M295 -20q-72 0 -131.5 33t-95 96t-35.5 151t34 150.5t89.5 104t120 66t128 36t110.5 12.5q0 102 -34 144.5t-116 42.5q-62 0 -119 -20.5t-121 -60.5l-18 182q73 46 152 69.5t159 23.5q98 0 169 -37.5t109 -120t38 -217.5v-296q0 -73 6 -111t22 -52t45 -14h29l-18 -182
h-82q-47 0 -84 15.5t-64 43.5t-43 67q-48 -57 -108 -91.5t-142 -34.5zM367 153q42 0 80 25.5t69 68.5v230q-71 -6 -129 -27.5t-92 -63t-34 -107.5q0 -67 29.5 -96.5t76.5 -29.5zM208 1128v145l220 187l220 -187v-145l-220 138zM335 -351v189h186v-189h-186z" />
    <glyph glyph-name="uni1EAE" unicode="&#x1eae;" horiz-adv-x="1074" 
d="M793 350h-512v205h512v-205zM511 1147h50l-331 -1147h-227l428 1400h211l428 -1400h-226zM537 1529q-90 0 -153 34.5t-96 90t-33 120.5h166q0 -56 32.5 -84.5t83.5 -28.5t83.5 28.5t32.5 84.5h166q0 -65 -32.5 -120.5t-95.5 -90t-154 -34.5zM385 1865v130l306 161v-199z
" />
    <glyph glyph-name="uni1EAF" unicode="&#x1eaf;" horiz-adv-x="854" 
d="M295 -20q-72 0 -131.5 33t-95 96t-35.5 151t34 150.5t89.5 104t120 66t128 36t110.5 12.5q0 102 -34 144.5t-116 42.5q-62 0 -119 -20.5t-121 -60.5l-18 182q73 46 152 69.5t159 23.5q98 0 169 -37.5t109 -120t38 -217.5v-296q0 -73 6 -111t22 -52t45 -14h29l-18 -182
h-82q-47 0 -84 15.5t-64 43.5t-43 67q-48 -57 -108 -91.5t-142 -34.5zM367 153q42 0 80 25.5t69 68.5v230q-71 -6 -129 -27.5t-92 -63t-34 -107.5q0 -67 29.5 -96.5t76.5 -29.5zM428 1122q-90 0 -153 34.5t-96 90t-33 120.5h166q0 -56 32.5 -84.5t83.5 -28.5t83.5 28.5
t32.5 84.5h166q0 -65 -32.5 -120.5t-95.5 -90t-154 -34.5zM276 1458v130l306 161v-199z" />
    <glyph glyph-name="uni1EB0" unicode="&#x1eb0;" horiz-adv-x="1074" 
d="M793 350h-512v205h512v-205zM511 1147h50l-331 -1147h-227l428 1400h211l428 -1400h-226zM537 1529q-90 0 -153 34.5t-96 90t-33 120.5h166q0 -56 32.5 -84.5t83.5 -28.5t83.5 28.5t32.5 84.5h166q0 -65 -32.5 -120.5t-95.5 -90t-154 -34.5zM689 1865l-306 90v201
l306 -161v-130z" />
    <glyph glyph-name="uni1EB1" unicode="&#x1eb1;" horiz-adv-x="854" 
d="M295 -20q-72 0 -131.5 33t-95 96t-35.5 151t34 150.5t89.5 104t120 66t128 36t110.5 12.5q0 102 -34 144.5t-116 42.5q-62 0 -119 -20.5t-121 -60.5l-18 182q73 46 152 69.5t159 23.5q98 0 169 -37.5t109 -120t38 -217.5v-296q0 -73 6 -111t22 -52t45 -14h29l-18 -182
h-82q-47 0 -84 15.5t-64 43.5t-43 67q-48 -57 -108 -91.5t-142 -34.5zM367 153q42 0 80 25.5t69 68.5v230q-71 -6 -129 -27.5t-92 -63t-34 -107.5q0 -67 29.5 -96.5t76.5 -29.5zM428 1121q-90 0 -153 34.5t-96 90t-33 120.5h166q0 -56 32.5 -84.5t83.5 -28.5t83.5 28.5
t32.5 84.5h166q0 -65 -32.5 -120.5t-95.5 -90t-154 -34.5zM580 1457l-306 90v201l306 -161v-130z" />
    <glyph glyph-name="uni1EB2" unicode="&#x1eb2;" horiz-adv-x="1074" 
d="M793 350h-512v205h512v-205zM511 1147h50l-331 -1147h-227l428 1400h211l428 -1400h-226zM537 1529q-90 0 -153 34.5t-96 90t-33 120.5h166q0 -56 32.5 -84.5t83.5 -28.5t83.5 28.5t32.5 84.5h166q0 -65 -32.5 -120.5t-95.5 -90t-154 -34.5zM554 1805l-25 84
q28 11 43 27.5t15 43.5q0 30 -17.5 44.5t-49.5 14.5q-24 0 -49 -8t-49 -20l-34 114q32 14 68 21.5t76 7.5q75 0 127 -39.5t52 -113.5q0 -67 -39.5 -108t-117.5 -68z" />
    <glyph glyph-name="uni1EB3" unicode="&#x1eb3;" horiz-adv-x="854" 
d="M295 -20q-72 0 -131.5 33t-95 96t-35.5 151t34 150.5t89.5 104t120 66t128 36t110.5 12.5q0 102 -34 144.5t-116 42.5q-62 0 -119 -20.5t-121 -60.5l-18 182q73 46 152 69.5t159 23.5q98 0 169 -37.5t109 -120t38 -217.5v-296q0 -73 6 -111t22 -52t45 -14h29l-18 -182
h-82q-47 0 -84 15.5t-64 43.5t-43 67q-48 -57 -108 -91.5t-142 -34.5zM367 153q42 0 80 25.5t69 68.5v230q-71 -6 -129 -27.5t-92 -63t-34 -107.5q0 -67 29.5 -96.5t76.5 -29.5zM428 1122q-90 0 -153 34.5t-96 90t-33 120.5h166q0 -56 32.5 -84.5t83.5 -28.5t83.5 28.5
t32.5 84.5h166q0 -65 -32.5 -120.5t-95.5 -90t-154 -34.5zM445 1398l-25 84q28 11 43 27.5t15 43.5q0 30 -17.5 44.5t-49.5 14.5q-24 0 -49 -8t-49 -20l-34 114q32 14 68 21.5t76 7.5q75 0 127 -39.5t52 -113.5q0 -67 -39.5 -108t-117.5 -68z" />
    <glyph glyph-name="uni1EB4" unicode="&#x1eb4;" horiz-adv-x="1074" 
d="M793 350h-512v205h512v-205zM511 1147h50l-331 -1147h-227l428 1400h211l428 -1400h-226zM537 1529q-90 0 -153 34.5t-96 90t-33 120.5h166q0 -56 32.5 -84.5t83.5 -28.5t83.5 28.5t32.5 84.5h166q0 -65 -32.5 -120.5t-95 -90t-154.5 -34.5zM687 1871q-46 0 -89.5 19.5
t-83 39t-73.5 19.5q-58 0 -58 -66h-144q0 101 37.5 154t110.5 53q46 0 89.5 -19.5t83 -39t73.5 -19.5q58 0 58 65h144q0 -99 -37 -152.5t-111 -53.5z" />
    <glyph glyph-name="uni1EB5" unicode="&#x1eb5;" horiz-adv-x="854" 
d="M295 -20q-72 0 -131.5 33t-95 96t-35.5 151t34 150.5t89.5 104t120 66t128 36t110.5 12.5q0 102 -34 144.5t-116 42.5q-62 0 -119 -20.5t-121 -60.5l-18 182q73 46 152 69.5t159 23.5q98 0 169 -37.5t109 -120t38 -217.5v-296q0 -73 6 -111t22 -52t45 -14h29l-18 -182
h-82q-47 0 -84 15.5t-64 43.5t-43 67q-48 -57 -108 -91.5t-142 -34.5zM367 153q42 0 80 25.5t69 68.5v230q-71 -6 -129 -27.5t-92 -63t-34 -107.5q0 -67 29.5 -96.5t76.5 -29.5zM428 1122q-90 0 -153 34.5t-96 90t-33 120.5h166q0 -56 32.5 -84.5t83.5 -28.5t83.5 28.5
t32.5 84.5h166q0 -65 -32.5 -120.5t-95 -90t-154.5 -34.5zM578 1464q-46 0 -89.5 19.5t-83 39t-73.5 19.5q-58 0 -58 -66h-144q0 101 37.5 154t110.5 53q46 0 89.5 -19.5t83 -39t73.5 -19.5q58 0 58 65h144q0 -99 -37 -152.5t-111 -53.5z" />
    <glyph glyph-name="uni1EB6" unicode="&#x1eb6;" horiz-adv-x="1074" 
d="M793 350h-512v205h512v-205zM511 1147h50l-331 -1147h-227l428 1400h211l428 -1400h-226zM537 1573q-89 0 -150.5 35t-93.5 93t-32 127h160q0 -53 29.5 -84t86.5 -31q58 0 87 31t29 84h160q0 -69 -32 -127t-93.5 -93t-150.5 -35zM444 -351v189h186v-189h-186z" />
    <glyph glyph-name="uni1EB7" unicode="&#x1eb7;" horiz-adv-x="854" 
d="M295 -20q-72 0 -131.5 33t-95 96t-35.5 151t34 150.5t89.5 104t120 66t128 36t110.5 12.5q0 102 -34 144.5t-116 42.5q-62 0 -119 -20.5t-121 -60.5l-18 182q73 46 152 69.5t159 23.5q98 0 169 -37.5t109 -120t38 -217.5v-296q0 -73 6 -111t22 -52t45 -14h29l-18 -182
h-82q-47 0 -84 15.5t-64 43.5t-43 67q-48 -57 -108 -91.5t-142 -34.5zM367 153q42 0 80 25.5t69 68.5v230q-71 -6 -129 -27.5t-92 -63t-34 -107.5q0 -67 29.5 -96.5t76.5 -29.5zM428 1166q-89 0 -150.5 35t-93.5 93t-32 127h160q0 -53 29.5 -84t86.5 -31q58 0 87 31t29 84
h160q0 -69 -32 -127t-93.5 -93t-150.5 -35zM335 -351v189h186v-189h-186z" />
    <glyph glyph-name="uni1EB8" unicode="&#x1eb8;" horiz-adv-x="980" 
d="M132 0v1400h773v-204h-551v-361h428v-204h-428v-427h568v-204h-790zM434 -351v189h186v-189h-186z" />
    <glyph glyph-name="uni1EB9" unicode="&#x1eb9;" horiz-adv-x="887" 
d="M515 -20q-156 0 -260 71.5t-155.5 189t-51.5 258.5q0 142 49 258t143.5 184.5t231.5 68.5q112 0 194.5 -52t128 -149t45.5 -231q0 -27 -3 -56t-8 -60h-559q8 -103 44.5 -169.5t94.5 -98t127 -31.5q71 0 137 19.5t119 52.5l10 -191q-52 -28 -124.5 -46t-162.5 -18z
M275 614h345q0 60 -15 108t-49.5 76.5t-92.5 28.5q-77 0 -124.5 -53.5t-63.5 -159.5zM412 -351v189h186v-189h-186z" />
    <glyph glyph-name="uni1EBA" unicode="&#x1eba;" horiz-adv-x="980" 
d="M132 0v1400h773v-204h-551v-361h428v-204h-428v-427h568v-204h-790zM516 1520l-25 83q28 12 43 28t15 44q0 30 -17.5 44.5t-49.5 14.5q-24 0 -49 -8t-49 -20l-34 114q32 14 68 21.5t76 7.5q75 0 127 -40t52 -114q0 -66 -39.5 -107t-117.5 -68z" />
    <glyph glyph-name="uni1EBB" unicode="&#x1ebb;" horiz-adv-x="887" 
d="M515 -20q-156 0 -260 71.5t-155.5 189t-51.5 258.5q0 142 49 258t143.5 184.5t231.5 68.5q112 0 194.5 -52t128 -149t45.5 -231q0 -27 -3 -56t-8 -60h-559q8 -103 44.5 -169.5t94.5 -98t127 -31.5q71 0 137 19.5t119 52.5l10 -191q-52 -28 -124.5 -46t-162.5 -18z
M275 614h345q0 60 -15 108t-49.5 76.5t-92.5 28.5q-77 0 -124.5 -53.5t-63.5 -159.5zM504 1061l-72 72q36 38 54 66t18 63q0 33 -18 49.5t-50 16.5q-24 0 -49 -8.5t-49 -22.5l-34 110q30 15 65.5 23.5t75.5 8.5q74 0 125.5 -44t51.5 -126q0 -65 -30 -111.5t-88 -96.5z" />
    <glyph glyph-name="uni1EBC" unicode="&#x1ebc;" horiz-adv-x="980" 
d="M132 0v1400h773v-204h-551v-361h428v-204h-428v-427h568v-204h-790zM669 1562q-46 0 -89.5 19.5t-83 39t-73.5 19.5q-58 0 -58 -66h-144q0 101 37.5 154t110.5 53q46 0 89.5 -19.5t83 -39t73.5 -19.5q58 0 58 65h144q0 -99 -37 -152.5t-111 -53.5z" />
    <glyph glyph-name="uni1EBD" unicode="&#x1ebd;" horiz-adv-x="887" 
d="M515 -20q-156 0 -260 71.5t-155.5 189t-51.5 258.5q0 142 49 258t143.5 184.5t231.5 68.5q112 0 194.5 -52t128 -149t45.5 -231q0 -27 -3 -56t-8 -60h-559q8 -103 44.5 -169.5t94.5 -98t127 -31.5q71 0 137 19.5t119 52.5l10 -191q-52 -28 -124.5 -46t-162.5 -18z
M275 614h345q0 60 -15 108t-49.5 76.5t-92.5 28.5q-77 0 -124.5 -53.5t-63.5 -159.5zM612 1157q-52 0 -90 23t-70 45.5t-67 22.5q-55 0 -55 -75h-155q5 114 45 174.5t114 60.5q52 0 90 -22.5t70 -45t67 -22.5q55 0 55 74h155q-4 -114 -44 -174.5t-115 -60.5z" />
    <glyph glyph-name="uni1EBE" unicode="&#x1ebe;" horiz-adv-x="980" 
d="M132 0v1400h773v-204h-551v-361h428v-204h-428v-427h568v-204h-790zM279 1496v138l240 170l240 -170v-138l-240 129zM660 1780l112 247h209l-181 -247h-140z" />
    <glyph glyph-name="uni1EBF" unicode="&#x1ebf;" horiz-adv-x="887" 
d="M515 -20q-156 0 -260 71.5t-155.5 189t-51.5 258.5q0 142 49 258t143.5 184.5t231.5 68.5q112 0 194.5 -52t128 -149t45.5 -231q0 -27 -3 -56t-8 -60h-559q8 -103 44.5 -169.5t94.5 -98t127 -31.5q71 0 137 19.5t119 52.5l10 -191q-52 -28 -124.5 -46t-162.5 -18z
M275 614h345q0 60 -15 108t-49.5 76.5t-92.5 28.5q-77 0 -124.5 -53.5t-63.5 -159.5zM233 1089v138l240 170l240 -170v-138l-240 129zM614 1373l112 247h209l-181 -247h-140z" />
    <glyph glyph-name="uni1EC0" unicode="&#x1ec0;" horiz-adv-x="980" 
d="M132 0v1400h773v-204h-551v-361h428v-204h-428v-427h568v-204h-790zM279 1496v138l240 170l240 -170v-138l-240 129zM708 1780l-147 247h197l86 -247h-136z" />
    <glyph glyph-name="uni1EC1" unicode="&#x1ec1;" horiz-adv-x="887" 
d="M515 -20q-156 0 -260 71.5t-155.5 189t-51.5 258.5q0 142 49 258t143.5 184.5t231.5 68.5q112 0 194.5 -52t128 -149t45.5 -231q0 -27 -3 -56t-8 -60h-559q8 -103 44.5 -169.5t94.5 -98t127 -31.5q71 0 137 19.5t119 52.5l10 -191q-52 -28 -124.5 -46t-162.5 -18z
M275 614h345q0 60 -15 108t-49.5 76.5t-92.5 28.5q-77 0 -124.5 -53.5t-63.5 -159.5zM233 1089v138l240 170l240 -170v-138l-240 129zM662 1373l-147 247h197l86 -247h-136z" />
    <glyph glyph-name="uni1EC2" unicode="&#x1ec2;" horiz-adv-x="980" 
d="M132 0v1400h773v-204h-551v-361h428v-204h-428v-427h568v-204h-790zM279 1496v138l240 170l240 -170v-138l-240 129zM715 1744l-25 83q28 12 43 28t15 44q0 30 -17.5 44.5t-49.5 14.5q-24 0 -49 -8t-49 -20l-34 114q32 14 68 21.5t76 7.5q76 0 127.5 -40t51.5 -114
q0 -66 -39.5 -107t-117.5 -68z" />
    <glyph glyph-name="uni1EC3" unicode="&#x1ec3;" horiz-adv-x="887" 
d="M515 -20q-156 0 -260 71.5t-155.5 189t-51.5 258.5q0 142 49 258t143.5 184.5t231.5 68.5q112 0 194.5 -52t128 -149t45.5 -231q0 -27 -3 -56t-8 -60h-559q8 -103 44.5 -169.5t94.5 -98t127 -31.5q71 0 137 19.5t119 52.5l10 -191q-52 -28 -124.5 -46t-162.5 -18z
M275 614h345q0 60 -15 108t-49.5 76.5t-92.5 28.5q-77 0 -124.5 -53.5t-63.5 -159.5zM233 1089v138l240 170l240 -170v-138l-240 129zM669 1337l-25 83q28 12 43 28t15 44q0 30 -17.5 44.5t-49.5 14.5q-24 0 -49 -8t-49 -20l-34 114q32 14 68 21.5t76 7.5q76 0 127.5 -40
t51.5 -114q0 -66 -39.5 -107t-117.5 -68z" />
    <glyph glyph-name="uni1EC4" unicode="&#x1ec4;" horiz-adv-x="980" 
d="M132 0v1400h773v-204h-551v-361h428v-204h-428v-427h568v-204h-790zM279 1496v138l240 170l240 -170v-138l-240 129zM669 1880q-46 0 -89.5 19t-83 38.5t-73.5 19.5q-58 0 -58 -65h-144q0 101 37.5 153.5t110.5 52.5q46 0 89.5 -19t83 -38.5t73.5 -19.5q58 0 58 65h144
q0 -99 -37 -152.5t-111 -53.5z" />
    <glyph glyph-name="uni1EC5" unicode="&#x1ec5;" horiz-adv-x="887" 
d="M515 -20q-156 0 -260 71.5t-155.5 189t-51.5 258.5q0 142 49 258t143.5 184.5t231.5 68.5q112 0 194.5 -52t128 -149t45.5 -231q0 -27 -3 -56t-8 -60h-559q8 -103 44.5 -169.5t94.5 -98t127 -31.5q71 0 137 19.5t119 52.5l10 -191q-52 -28 -124.5 -46t-162.5 -18z
M275 614h345q0 60 -15 108t-49.5 76.5t-92.5 28.5q-77 0 -124.5 -53.5t-63.5 -159.5zM233 1089v138l240 170l240 -170v-138l-240 129zM623 1473q-46 0 -89.5 19t-83 38.5t-73.5 19.5q-58 0 -58 -65h-144q0 101 37.5 153.5t110.5 52.5q46 0 89.5 -19t83 -38.5t73.5 -19.5
q58 0 58 65h144q0 -99 -37 -152.5t-111 -53.5z" />
    <glyph glyph-name="uni1EC6" unicode="&#x1ec6;" horiz-adv-x="980" 
d="M132 0v1400h773v-204h-551v-361h428v-204h-428v-427h568v-204h-790zM279 1497v139l240 169l240 -169v-139l-240 129zM434 -351v189h186v-189h-186z" />
    <glyph glyph-name="uni1EC7" unicode="&#x1ec7;" horiz-adv-x="887" 
d="M515 -20q-156 0 -260 71.5t-155.5 189t-51.5 258.5q0 142 49 258t143.5 184.5t231.5 68.5q112 0 194.5 -52t128 -149t45.5 -231q0 -27 -3 -56t-8 -60h-559q8 -103 44.5 -169.5t94.5 -98t127 -31.5q71 0 137 19.5t119 52.5l10 -191q-52 -28 -124.5 -46t-162.5 -18z
M275 614h345q0 60 -15 108t-49.5 76.5t-92.5 28.5q-77 0 -124.5 -53.5t-63.5 -159.5zM253 1128v145l220 187l220 -187v-145l-220 138zM412 -351v189h186v-189h-186z" />
    <glyph glyph-name="uni1EC8" unicode="&#x1ec8;" horiz-adv-x="483" 
d="M130 0v1400h222v-1400h-222zM238 1520l-25 83q28 12 43 28t15 44q0 30 -17.5 44.5t-49.5 14.5q-24 0 -49 -8t-49 -20l-34 114q32 14 68 21.5t76 7.5q75 0 127 -40t52 -114q0 -66 -39.5 -107t-117.5 -68z" />
    <glyph glyph-name="uni1EC9" unicode="&#x1ec9;" horiz-adv-x="413" 
d="M98 0v993h217v-993h-217zM238 1061l-72 72q36 38 54 66t18 63q0 33 -18 49.5t-50 16.5q-24 0 -49 -8.5t-49 -22.5l-34 110q30 15 65.5 23.5t75.5 8.5q74 0 125.5 -44t51.5 -126q0 -65 -30 -111.5t-88 -96.5z" />
    <glyph glyph-name="uni1ECA" unicode="&#x1eca;" horiz-adv-x="483" 
d="M130 0v1400h222v-1400h-222zM148 -351v189h186v-189h-186z" />
    <glyph glyph-name="uni1ECB" unicode="&#x1ecb;" horiz-adv-x="413" 
d="M98 0v993h217v-993h-217zM98 1169v231h217v-231h-217zM114 -351v189h186v-189h-186z" />
    <glyph glyph-name="uni1ECC" unicode="&#x1ecc;" horiz-adv-x="1307" 
d="M654 -28q-172 0 -306 90t-211 253.5t-77 384.5t77 384.5t211 253.5t306 90t306.5 -90t210.5 -253.5t76 -384.5t-76 -384.5t-210.5 -253.5t-306.5 -90zM654 195q119 0 198 66t119 180.5t40 258.5t-39.5 258.5t-119.5 180.5t-198 66t-197.5 -66t-119.5 -180.5t-40 -258.5
t40 -258.5t119.5 -180.5t197.5 -66zM561 -351v189h186v-189h-186z" />
    <glyph glyph-name="uni1ECD" unicode="&#x1ecd;" horiz-adv-x="969" 
d="M484 -20q-138 0 -235.5 70t-149 187t-51.5 258t51.5 258t149 187t235.5 70t236 -70t149.5 -187t51.5 -258t-51.5 -258t-149.5 -187t-236 -70zM484 161q104 0 160 91.5t56 243.5q0 151 -56 242t-160 91q-102 0 -158.5 -91t-56.5 -243q0 -151 56.5 -242.5t158.5 -91.5z
M392 -351v189h186v-189h-186z" />
    <glyph glyph-name="uni1ECE" unicode="&#x1ece;" horiz-adv-x="1307" 
d="M654 -28q-172 0 -306 90t-211 253.5t-77 384.5t77 384.5t211 253.5t306 90t306.5 -90t210.5 -253.5t76 -384.5t-76 -384.5t-210.5 -253.5t-306.5 -90zM654 195q119 0 198 66t119 180.5t40 258.5t-39.5 258.5t-119.5 180.5t-198 66t-197.5 -66t-119.5 -180.5t-40 -258.5
t40 -258.5t119.5 -180.5t197.5 -66zM651 1520l-25 83q28 12 43 28t15 44q0 30 -17.5 44.5t-49.5 14.5q-24 0 -49 -8t-49 -20l-34 114q32 14 68 21.5t76 7.5q75 0 127 -40t52 -114q0 -66 -39.5 -107t-117.5 -68z" />
    <glyph glyph-name="uni1ECF" unicode="&#x1ecf;" horiz-adv-x="969" 
d="M484 -20q-138 0 -235.5 70t-149 187t-51.5 258t51.5 258t149 187t235.5 70t236 -70t149.5 -187t51.5 -258t-51.5 -258t-149.5 -187t-236 -70zM484 161q104 0 160 91.5t56 243.5q0 151 -56 242t-160 91q-102 0 -158.5 -91t-56.5 -243q0 -151 56.5 -242.5t158.5 -91.5z
M516 1061l-72 72q36 38 54 66t18 63q0 33 -18 49.5t-50 16.5q-24 0 -49 -8.5t-49 -22.5l-34 110q30 15 65.5 23.5t75.5 8.5q74 0 125.5 -44t51.5 -126q0 -65 -30 -111.5t-88 -96.5z" />
    <glyph glyph-name="uni1ED0" unicode="&#x1ed0;" horiz-adv-x="1307" 
d="M654 -28q-172 0 -306 90t-211 253.5t-77 384.5t77 384.5t211 253.5t306 90t306.5 -90t210.5 -253.5t76 -384.5t-76 -384.5t-210.5 -253.5t-306.5 -90zM654 195q119 0 198 66t119 180.5t40 258.5t-39.5 258.5t-119.5 180.5t-198 66t-197.5 -66t-119.5 -180.5t-40 -258.5
t40 -258.5t119.5 -180.5t197.5 -66zM414 1496v138l240 170l240 -170v-138l-240 129zM795 1780l112 247h209l-181 -247h-140z" />
    <glyph glyph-name="uni1ED1" unicode="&#x1ed1;" horiz-adv-x="969" 
d="M484 -20q-138 0 -235.5 70t-149 187t-51.5 258t51.5 258t149 187t235.5 70t236 -70t149.5 -187t51.5 -258t-51.5 -258t-149.5 -187t-236 -70zM484 161q104 0 160 91.5t56 243.5q0 151 -56 242t-160 91q-102 0 -158.5 -91t-56.5 -243q0 -151 56.5 -242.5t158.5 -91.5z
M245 1089v138l240 170l240 -170v-138l-240 129zM626 1373l112 247h209l-181 -247h-140z" />
    <glyph glyph-name="uni1ED2" unicode="&#x1ed2;" horiz-adv-x="1307" 
d="M654 -28q-172 0 -306 90t-211 253.5t-77 384.5t77 384.5t211 253.5t306 90t306.5 -90t210.5 -253.5t76 -384.5t-76 -384.5t-210.5 -253.5t-306.5 -90zM654 195q119 0 198 66t119 180.5t40 258.5t-39.5 258.5t-119.5 180.5t-198 66t-197.5 -66t-119.5 -180.5t-40 -258.5
t40 -258.5t119.5 -180.5t197.5 -66zM414 1496v138l240 170l240 -170v-138l-240 129zM843 1780l-147 247h197l86 -247h-136z" />
    <glyph glyph-name="uni1ED3" unicode="&#x1ed3;" horiz-adv-x="969" 
d="M484 -20q-138 0 -235.5 70t-149 187t-51.5 258t51.5 258t149 187t235.5 70t236 -70t149.5 -187t51.5 -258t-51.5 -258t-149.5 -187t-236 -70zM484 161q104 0 160 91.5t56 243.5q0 151 -56 242t-160 91q-102 0 -158.5 -91t-56.5 -243q0 -151 56.5 -242.5t158.5 -91.5z
M245 1089v138l240 170l240 -170v-138l-240 129zM674 1373l-147 247h197l86 -247h-136z" />
    <glyph glyph-name="uni1ED4" unicode="&#x1ed4;" horiz-adv-x="1307" 
d="M654 -28q-172 0 -306 90t-211 253.5t-77 384.5t77 384.5t211 253.5t306 90t306.5 -90t210.5 -253.5t76 -384.5t-76 -384.5t-210.5 -253.5t-306.5 -90zM654 195q119 0 198 66t119 180.5t40 258.5t-39.5 258.5t-119.5 180.5t-198 66t-197.5 -66t-119.5 -180.5t-40 -258.5
t40 -258.5t119.5 -180.5t197.5 -66zM414 1496v138l240 170l240 -170v-138l-240 129zM850 1744l-25 83q28 12 43 28t15 44q0 30 -17.5 44.5t-49.5 14.5q-24 0 -49 -8t-49 -20l-34 114q32 14 68 21.5t76 7.5q76 0 127.5 -40t51.5 -114q0 -66 -39.5 -107t-117.5 -68z" />
    <glyph glyph-name="uni1ED5" unicode="&#x1ed5;" horiz-adv-x="969" 
d="M484 -20q-138 0 -235.5 70t-149 187t-51.5 258t51.5 258t149 187t235.5 70t236 -70t149.5 -187t51.5 -258t-51.5 -258t-149.5 -187t-236 -70zM484 161q104 0 160 91.5t56 243.5q0 151 -56 242t-160 91q-102 0 -158.5 -91t-56.5 -243q0 -151 56.5 -242.5t158.5 -91.5z
M245 1089v138l240 170l240 -170v-138l-240 129zM681 1337l-25 83q28 12 43 28t15 44q0 30 -17.5 44.5t-49.5 14.5q-24 0 -49 -8t-49 -20l-34 114q32 14 68 21.5t76 7.5q76 0 127.5 -40t51.5 -114q0 -66 -39.5 -107t-117.5 -68z" />
    <glyph glyph-name="uni1ED6" unicode="&#x1ed6;" horiz-adv-x="1307" 
d="M654 -28q-172 0 -306 90t-211 253.5t-77 384.5t77 384.5t211 253.5t306 90t306.5 -90t210.5 -253.5t76 -384.5t-76 -384.5t-210.5 -253.5t-306.5 -90zM654 195q119 0 198 66t119 180.5t40 258.5t-39.5 258.5t-119.5 180.5t-198 66t-197.5 -66t-119.5 -180.5t-40 -258.5
t40 -258.5t119.5 -180.5t197.5 -66zM414 1496v138l240 170l240 -170v-138l-240 129zM804 1880q-46 0 -89.5 19t-83 38.5t-73.5 19.5q-58 0 -58 -65h-144q0 101 37.5 153.5t110.5 52.5q46 0 89.5 -19t83 -38.5t73.5 -19.5q58 0 58 65h144q0 -99 -37 -152.5t-111 -53.5z" />
    <glyph glyph-name="uni1ED7" unicode="&#x1ed7;" horiz-adv-x="969" 
d="M484 -20q-138 0 -235.5 70t-149 187t-51.5 258t51.5 258t149 187t235.5 70t236 -70t149.5 -187t51.5 -258t-51.5 -258t-149.5 -187t-236 -70zM484 161q104 0 160 91.5t56 243.5q0 151 -56 242t-160 91q-102 0 -158.5 -91t-56.5 -243q0 -151 56.5 -242.5t158.5 -91.5z
M245 1089v138l240 170l240 -170v-138l-240 129zM635 1473q-46 0 -89.5 19t-83 38.5t-73.5 19.5q-58 0 -58 -65h-144q0 101 37.5 153.5t110.5 52.5q46 0 89.5 -19t83 -38.5t73.5 -19.5q58 0 58 65h144q0 -99 -37 -152.5t-111 -53.5z" />
    <glyph glyph-name="uni1ED8" unicode="&#x1ed8;" horiz-adv-x="1307" 
d="M654 -28q-172 0 -306 90t-211 253.5t-77 384.5t77 384.5t211 253.5t306 90t306.5 -90t210.5 -253.5t76 -384.5t-76 -384.5t-210.5 -253.5t-306.5 -90zM654 195q119 0 198 66t119 180.5t40 258.5t-39.5 258.5t-119.5 180.5t-198 66t-197.5 -66t-119.5 -180.5t-40 -258.5
t40 -258.5t119.5 -180.5t197.5 -66zM434 1535v145l220 187l220 -187v-145l-220 138zM561 -351v189h186v-189h-186z" />
    <glyph glyph-name="uni1ED9" unicode="&#x1ed9;" horiz-adv-x="969" 
d="M484 -20q-138 0 -235.5 70t-149 187t-51.5 258t51.5 258t149 187t235.5 70t236 -70t149.5 -187t51.5 -258t-51.5 -258t-149.5 -187t-236 -70zM484 161q104 0 160 91.5t56 243.5q0 151 -56 242t-160 91q-102 0 -158.5 -91t-56.5 -243q0 -151 56.5 -242.5t158.5 -91.5z
M265 1128v145l220 187l220 -187v-145l-220 138zM392 -351v189h186v-189h-186z" />
    <glyph glyph-name="uni1EDA" unicode="&#x1eda;" horiz-adv-x="1307" 
d="M654 -28q-172 0 -306 90t-211 253.5t-77 384.5t77 384.5t211 253.5t306 90t306.5 -90t210.5 -253.5t76 -384.5t-76 -384.5t-210.5 -253.5t-306.5 -90zM654 195q119 0 198 66t119 180.5t40 258.5t-39.5 258.5t-119.5 180.5t-198 66t-197.5 -66t-119.5 -180.5t-40 -258.5
t40 -258.5t119.5 -180.5t197.5 -66zM822 1248v152q67 0 105 34.5t38 113.5h188q0 -99 -46 -165.5t-121 -100.5t-164 -34zM502 1522v130l306 160v-198z" />
    <glyph glyph-name="uni1EDB" unicode="&#x1edb;" horiz-adv-x="969" 
d="M484 -20q-138 0 -235.5 70t-149 187t-51.5 258t51.5 258t149 187t235.5 70t236 -70t149.5 -187t51.5 -258t-51.5 -258t-149.5 -187t-236 -70zM484 161q104 0 160 91.5t56 243.5q0 151 -56 242t-160 91q-102 0 -158.5 -91t-56.5 -243q0 -151 56.5 -242.5t158.5 -91.5z
M573 841v152q67 0 105 34.5t38 113.5h188q0 -99 -46 -165.5t-121 -100.5t-164 -34zM333 1160v145l306 191v-218z" />
    <glyph glyph-name="uni1EDC" unicode="&#x1edc;" horiz-adv-x="1307" 
d="M654 -28q-172 0 -306 90t-211 253.5t-77 384.5t77 384.5t211 253.5t306 90t306.5 -90t210.5 -253.5t76 -384.5t-76 -384.5t-210.5 -253.5t-306.5 -90zM654 195q119 0 198 66t119 180.5t40 258.5t-39.5 258.5t-119.5 180.5t-198 66t-197.5 -66t-119.5 -180.5t-40 -258.5
t40 -258.5t119.5 -180.5t197.5 -66zM822 1248v152q67 0 105 34.5t38 113.5h188q0 -99 -46 -165.5t-121 -100.5t-164 -34zM806 1522l-306 90v200l306 -160v-130z" />
    <glyph glyph-name="uni1EDD" unicode="&#x1edd;" horiz-adv-x="969" 
d="M484 -20q-138 0 -235.5 70t-149 187t-51.5 258t51.5 258t149 187t235.5 70t236 -70t149.5 -187t51.5 -258t-51.5 -258t-149.5 -187t-236 -70zM484 161q104 0 160 91.5t56 243.5q0 151 -56 242t-160 91q-102 0 -158.5 -91t-56.5 -243q0 -151 56.5 -242.5t158.5 -91.5z
M573 841v152q67 0 105 34.5t38 113.5h188q0 -99 -46 -165.5t-121 -100.5t-164 -34zM637 1158l-306 123v224l306 -196v-151z" />
    <glyph glyph-name="uni1EDE" unicode="&#x1ede;" horiz-adv-x="1307" 
d="M654 -28q-172 0 -306 90t-211 253.5t-77 384.5t77 384.5t211 253.5t306 90t306.5 -90t210.5 -253.5t76 -384.5t-76 -384.5t-210.5 -253.5t-306.5 -90zM654 195q119 0 198 66t119 180.5t40 258.5t-39.5 258.5t-119.5 180.5t-198 66t-197.5 -66t-119.5 -180.5t-40 -258.5
t40 -258.5t119.5 -180.5t197.5 -66zM822 1248v152q67 0 105 34.5t38 113.5h188q0 -99 -46 -165.5t-121 -100.5t-164 -34zM651 1520l-25 83q28 12 43 28t15 44q0 30 -17.5 44.5t-49.5 14.5q-24 0 -49 -8t-49 -20l-34 114q32 14 68 21.5t76 7.5q75 0 127 -40t52 -114
q0 -66 -39.5 -107t-117.5 -68z" />
    <glyph glyph-name="uni1EDF" unicode="&#x1edf;" horiz-adv-x="969" 
d="M484 -20q-138 0 -235.5 70t-149 187t-51.5 258t51.5 258t149 187t235.5 70t236 -70t149.5 -187t51.5 -258t-51.5 -258t-149.5 -187t-236 -70zM484 161q104 0 160 91.5t56 243.5q0 151 -56 242t-160 91q-102 0 -158.5 -91t-56.5 -243q0 -151 56.5 -242.5t158.5 -91.5z
M573 841v152q67 0 105 34.5t38 113.5h188q0 -99 -46 -165.5t-121 -100.5t-164 -34zM516 1061l-72 72q36 38 54 66t18 63q0 33 -18 49.5t-50 16.5q-24 0 -49 -8.5t-49 -22.5l-34 110q30 15 65.5 23.5t75.5 8.5q74 0 125.5 -44t51.5 -126q0 -65 -30 -111.5t-88 -96.5z" />
    <glyph glyph-name="uni1EE0" unicode="&#x1ee0;" horiz-adv-x="1307" 
d="M654 -28q-172 0 -306 90t-211 253.5t-77 384.5t77 384.5t211 253.5t306 90t306.5 -90t210.5 -253.5t76 -384.5t-76 -384.5t-210.5 -253.5t-306.5 -90zM654 195q119 0 198 66t119 180.5t40 258.5t-39.5 258.5t-119.5 180.5t-198 66t-197.5 -66t-119.5 -180.5t-40 -258.5
t40 -258.5t119.5 -180.5t197.5 -66zM822 1248v152q67 0 105 34.5t38 113.5h188q0 -99 -46 -165.5t-121 -100.5t-164 -34zM804 1562q-46 0 -89.5 19.5t-83 39t-73.5 19.5q-58 0 -58 -66h-144q0 101 37.5 154t110.5 53q46 0 89.5 -19.5t83 -39t73.5 -19.5q58 0 58 65h144
q0 -99 -37 -152.5t-111 -53.5z" />
    <glyph glyph-name="uni1EE1" unicode="&#x1ee1;" horiz-adv-x="969" 
d="M484 -20q-138 0 -235.5 70t-149 187t-51.5 258t51.5 258t149 187t235.5 70t236 -70t149.5 -187t51.5 -258t-51.5 -258t-149.5 -187t-236 -70zM484 161q104 0 160 91.5t56 243.5q0 151 -56 242t-160 91q-102 0 -158.5 -91t-56.5 -243q0 -151 56.5 -242.5t158.5 -91.5z
M573 841v152q67 0 105 34.5t38 113.5h188q0 -99 -46 -165.5t-121 -100.5t-164 -34zM624 1157q-52 0 -90 23t-70 45.5t-67 22.5q-55 0 -55 -75h-155q5 114 45 174.5t114 60.5q52 0 90 -22.5t70 -45t67 -22.5q55 0 55 74h155q-4 -114 -44 -174.5t-115 -60.5z" />
    <glyph glyph-name="uni1EE2" unicode="&#x1ee2;" horiz-adv-x="1307" 
d="M654 -28q-172 0 -306 90t-211 253.5t-77 384.5t77 384.5t211 253.5t306 90t306.5 -90t210.5 -253.5t76 -384.5t-76 -384.5t-210.5 -253.5t-306.5 -90zM654 195q119 0 198 66t119 180.5t40 258.5t-39.5 258.5t-119.5 180.5t-198 66t-197.5 -66t-119.5 -180.5t-40 -258.5
t40 -258.5t119.5 -180.5t197.5 -66zM822 1248v152q67 0 105 34.5t38 113.5h188q0 -99 -46 -165.5t-121 -100.5t-164 -34zM561 -351v189h186v-189h-186z" />
    <glyph glyph-name="uni1EE3" unicode="&#x1ee3;" horiz-adv-x="969" 
d="M484 -20q-138 0 -235.5 70t-149 187t-51.5 258t51.5 258t149 187t235.5 70t236 -70t149.5 -187t51.5 -258t-51.5 -258t-149.5 -187t-236 -70zM484 161q104 0 160 91.5t56 243.5q0 151 -56 242t-160 91q-102 0 -158.5 -91t-56.5 -243q0 -151 56.5 -242.5t158.5 -91.5z
M573 841v152q67 0 105 34.5t38 113.5h188q0 -99 -46 -165.5t-121 -100.5t-164 -34zM392 -351v189h186v-189h-186z" />
    <glyph glyph-name="uni1EE4" unicode="&#x1ee4;" horiz-adv-x="1238" 
d="M619 -28q-172 0 -282.5 70.5t-164 199t-53.5 303.5v855h222v-794q0 -89 11 -165t40.5 -132.5t84 -87.5t142.5 -31t143 31t84 88t39.5 132.5t10.5 164.5v794h223v-855q0 -175 -53.5 -303.5t-164.5 -199t-282 -70.5zM528 -351v189h186v-189h-186z" />
    <glyph glyph-name="uni1EE5" unicode="&#x1ee5;" horiz-adv-x="941" 
d="M399 -17q-105 0 -172.5 47t-101 131.5t-33.5 198.5v633h217v-604q0 -106 34 -165t113 -59q72 0 123 45.5t82 122.5l-32 -137v797h216v-993h-187l-16 146l46 3q-44 -78 -116 -122t-173 -44zM358 -351v189h186v-189h-186z" />
    <glyph glyph-name="uni1EE6" unicode="&#x1ee6;" horiz-adv-x="1238" 
d="M619 -28q-172 0 -282.5 70.5t-164 199t-53.5 303.5v855h222v-794q0 -89 11 -165t40.5 -132.5t84 -87.5t142.5 -31t143 31t84 88t39.5 132.5t10.5 164.5v794h223v-855q0 -175 -53.5 -303.5t-164.5 -199t-282 -70.5zM618 1520l-25 83q28 12 43 28t15 44q0 30 -17.5 44.5
t-49.5 14.5q-24 0 -49 -8t-49 -20l-34 114q32 14 68 21.5t76 7.5q75 0 127 -40t52 -114q0 -66 -39.5 -107t-117.5 -68z" />
    <glyph glyph-name="uni1EE7" unicode="&#x1ee7;" horiz-adv-x="941" 
d="M399 -17q-105 0 -172.5 47t-101 131.5t-33.5 198.5v633h217v-604q0 -106 34 -165t113 -59q72 0 123 45.5t82 122.5l-32 -137v797h216v-993h-187l-16 146l46 3q-44 -78 -116 -122t-173 -44zM498 1061l-72 72q36 38 54 66t18 63q0 33 -18 49.5t-50 16.5q-24 0 -49 -8.5
t-49 -22.5l-34 110q30 15 65.5 23.5t75.5 8.5q74 0 125.5 -44t51.5 -126q0 -65 -30 -111.5t-88 -96.5z" />
    <glyph glyph-name="uni1EE8" unicode="&#x1ee8;" horiz-adv-x="1238" 
d="M619 -28q-172 0 -282.5 70.5t-164 199t-53.5 303.5v855h222v-794q0 -89 11 -165t40.5 -132.5t84 -87.5t142.5 -31t143 31t84 88t39.5 132.5t10.5 164.5v794h223v-855q0 -175 -53.5 -303.5t-164.5 -199t-282 -70.5zM970 1248v152q67 0 105 34.5t38 113.5h188
q0 -99 -46 -165.5t-121 -100.5t-164 -34zM469 1522v130l306 160v-198z" />
    <glyph glyph-name="uni1EE9" unicode="&#x1ee9;" horiz-adv-x="941" 
d="M399 -17q-105 0 -172.5 47t-101 131.5t-33.5 198.5v633h217v-604q0 -106 34 -165t113 -59q72 0 123 45.5t82 122.5l-32 -137v797h216v-993h-187l-16 146l46 3q-44 -78 -116 -122t-173 -44zM685 841v152q67 0 105 34.5t38 113.5h188q0 -99 -46 -165.5t-121 -100.5
t-164 -34zM315 1160v145l306 191v-218z" />
    <glyph glyph-name="uni1EEA" unicode="&#x1eea;" horiz-adv-x="1238" 
d="M619 -28q-172 0 -282.5 70.5t-164 199t-53.5 303.5v855h222v-794q0 -89 11 -165t40.5 -132.5t84 -87.5t142.5 -31t143 31t84 88t39.5 132.5t10.5 164.5v794h223v-855q0 -175 -53.5 -303.5t-164.5 -199t-282 -70.5zM970 1248v152q67 0 105 34.5t38 113.5h188
q0 -99 -46 -165.5t-121 -100.5t-164 -34zM773 1522l-306 90v200l306 -160v-130z" />
    <glyph glyph-name="uni1EEB" unicode="&#x1eeb;" horiz-adv-x="941" 
d="M399 -17q-105 0 -172.5 47t-101 131.5t-33.5 198.5v633h217v-604q0 -106 34 -165t113 -59q72 0 123 45.5t82 122.5l-32 -137v797h216v-993h-187l-16 146l46 3q-44 -78 -116 -122t-173 -44zM685 841v152q67 0 105 34.5t38 113.5h188q0 -99 -46 -165.5t-121 -100.5
t-164 -34zM619 1158l-306 123v224l306 -196v-151z" />
    <glyph glyph-name="uni1EEC" unicode="&#x1eec;" horiz-adv-x="1238" 
d="M619 -28q-172 0 -282.5 70.5t-164 199t-53.5 303.5v855h222v-794q0 -89 11 -165t40.5 -132.5t84 -87.5t142.5 -31t143 31t84 88t39.5 132.5t10.5 164.5v794h223v-855q0 -175 -53.5 -303.5t-164.5 -199t-282 -70.5zM970 1248v152q67 0 105 34.5t38 113.5h188
q0 -99 -46 -165.5t-121 -100.5t-164 -34zM618 1520l-25 83q28 12 43 28t15 44q0 30 -17.5 44.5t-49.5 14.5q-24 0 -49 -8t-49 -20l-34 114q32 14 68 21.5t76 7.5q75 0 127 -40t52 -114q0 -66 -39.5 -107t-117.5 -68z" />
    <glyph glyph-name="uni1EED" unicode="&#x1eed;" horiz-adv-x="941" 
d="M399 -17q-105 0 -172.5 47t-101 131.5t-33.5 198.5v633h217v-604q0 -106 34 -165t113 -59q72 0 123 45.5t82 122.5l-32 -137v797h216v-993h-187l-16 146l46 3q-44 -78 -116 -122t-173 -44zM685 841v152q67 0 105 34.5t38 113.5h188q0 -99 -46 -165.5t-121 -100.5
t-164 -34zM498 1061l-72 72q36 38 54 66t18 63q0 33 -18 49.5t-50 16.5q-24 0 -49 -8.5t-49 -22.5l-34 110q30 15 65.5 23.5t75.5 8.5q74 0 125.5 -44t51.5 -126q0 -65 -30 -111.5t-88 -96.5z" />
    <glyph glyph-name="uni1EEE" unicode="&#x1eee;" horiz-adv-x="1238" 
d="M619 -28q-172 0 -282.5 70.5t-164 199t-53.5 303.5v855h222v-794q0 -89 11 -165t40.5 -132.5t84 -87.5t142.5 -31t143 31t84 88t39.5 132.5t10.5 164.5v794h223v-855q0 -175 -53.5 -303.5t-164.5 -199t-282 -70.5zM970 1248v152q67 0 105 34.5t38 113.5h188
q0 -99 -46 -165.5t-121 -100.5t-164 -34zM771 1562q-46 0 -89.5 19.5t-83 39t-73.5 19.5q-58 0 -58 -66h-144q0 101 37.5 154t110.5 53q46 0 89.5 -19.5t83 -39t73.5 -19.5q58 0 58 65h144q0 -99 -37 -152.5t-111 -53.5z" />
    <glyph glyph-name="uni1EEF" unicode="&#x1eef;" horiz-adv-x="941" 
d="M399 -17q-105 0 -172.5 47t-101 131.5t-33.5 198.5v633h217v-604q0 -106 34 -165t113 -59q72 0 123 45.5t82 122.5l-32 -137v797h216v-993h-187l-16 146l46 3q-44 -78 -116 -122t-173 -44zM685 841v152q67 0 105 34.5t38 113.5h188q0 -99 -46 -165.5t-121 -100.5
t-164 -34zM606 1157q-52 0 -90 23t-70 45.5t-67 22.5q-55 0 -55 -75h-155q5 114 45 174.5t114 60.5q52 0 90 -22.5t70 -45t67 -22.5q55 0 55 74h155q-4 -114 -44 -174.5t-115 -60.5z" />
    <glyph glyph-name="uni1EF0" unicode="&#x1ef0;" horiz-adv-x="1238" 
d="M619 -28q-172 0 -282.5 70.5t-164 199t-53.5 303.5v855h222v-794q0 -89 11 -165t40.5 -132.5t84 -87.5t142.5 -31t143 31t84 88t39.5 132.5t10.5 164.5v794h223v-855q0 -175 -53.5 -303.5t-164.5 -199t-282 -70.5zM970 1248v152q67 0 105 34.5t38 113.5h188
q0 -99 -46 -165.5t-121 -100.5t-164 -34zM528 -351v189h186v-189h-186z" />
    <glyph glyph-name="uni1EF1" unicode="&#x1ef1;" horiz-adv-x="941" 
d="M399 -17q-105 0 -172.5 47t-101 131.5t-33.5 198.5v633h217v-604q0 -106 34 -165t113 -59q72 0 123 45.5t82 122.5l-32 -137v797h216v-993h-187l-16 146l46 3q-44 -78 -116 -122t-173 -44zM685 841v152q67 0 105 34.5t38 113.5h188q0 -99 -46 -165.5t-121 -100.5
t-164 -34zM358 -351v189h186v-189h-186z" />
    <glyph glyph-name="Ygrave" unicode="&#x1ef2;" horiz-adv-x="1044" 
d="M408 0v615l-419 785h240l337 -662h-93l333 662h240l-417 -785v-615h-221zM670 1522l-306 90v200l306 -160v-130z" />
    <glyph glyph-name="ygrave" unicode="&#x1ef3;" horiz-adv-x="934" 
d="M157 -484l204 529l-348 948h228l229 -698l222 698h228l-539 -1477h-224zM621 1158l-306 123v224l306 -196v-151z" />
    <glyph glyph-name="uni1EF4" unicode="&#x1ef4;" horiz-adv-x="1044" 
d="M408 0v615l-419 785h240l337 -662h-93l333 662h240l-417 -785v-615h-221zM426 -351v189h186v-189h-186z" />
    <glyph glyph-name="uni1EF5" unicode="&#x1ef5;" horiz-adv-x="934" 
d="M157 -484l204 529l-348 948h228l229 -698l222 698h228l-539 -1477h-224zM590 -351v189h186v-189h-186z" />
    <glyph glyph-name="uni1EF6" unicode="&#x1ef6;" horiz-adv-x="1044" 
d="M408 0v615l-419 785h240l337 -662h-93l333 662h240l-417 -785v-615h-221zM515 1520l-25 83q28 12 43 28t15 44q0 30 -17.5 44.5t-49.5 14.5q-24 0 -49 -8t-49 -20l-34 114q32 14 68 21.5t76 7.5q75 0 127 -40t52 -114q0 -66 -39.5 -107t-117.5 -68z" />
    <glyph glyph-name="uni1EF7" unicode="&#x1ef7;" horiz-adv-x="934" 
d="M157 -484l204 529l-348 948h228l229 -698l222 698h228l-539 -1477h-224zM500 1061l-72 72q36 38 54 66t18 63q0 33 -18 49.5t-50 16.5q-24 0 -49 -8.5t-49 -22.5l-34 110q30 15 65.5 23.5t75.5 8.5q74 0 125.5 -44t51.5 -126q0 -65 -30 -111.5t-88 -96.5z" />
    <glyph glyph-name="uni1EF8" unicode="&#x1ef8;" horiz-adv-x="1044" 
d="M408 0v615l-419 785h240l337 -662h-93l333 662h240l-417 -785v-615h-221zM668 1562q-46 0 -89.5 19.5t-83 39t-73.5 19.5q-58 0 -58 -66h-144q0 101 37.5 154t110.5 53q46 0 89.5 -19.5t83 -39t73.5 -19.5q58 0 58 65h144q0 -99 -37 -152.5t-111 -53.5z" />
    <glyph glyph-name="uni1EF9" unicode="&#x1ef9;" horiz-adv-x="934" 
d="M157 -484l204 529l-348 948h228l229 -698l222 698h228l-539 -1477h-224zM608 1157q-52 0 -90 23t-70 45.5t-67 22.5q-55 0 -55 -75h-155q5 114 45 174.5t114 60.5q52 0 90 -22.5t70 -45t67 -22.5q55 0 55 74h155q-4 -114 -44 -174.5t-115 -60.5z" />
    <glyph glyph-name="uni2007" unicode="&#x2007;" horiz-adv-x="1212" 
 />
    <glyph glyph-name="uni2008" unicode="&#x2008;" horiz-adv-x="378" 
 />
    <glyph glyph-name="uni2009" unicode="&#x2009;" horiz-adv-x="400" 
 />
    <glyph glyph-name="uni200A" unicode="&#x200a;" horiz-adv-x="200" 
 />
    <glyph glyph-name="uni200B" unicode="&#x200b;" 
 />
    <glyph glyph-name="uni2010" unicode="&#x2010;" horiz-adv-x="702" 
d="M84 531v182h534v-182h-534z" />
    <glyph glyph-name="figuredash" unicode="&#x2012;" horiz-adv-x="1212" 
d="M0 531v182h1212v-182h-1212z" />
    <glyph glyph-name="endash" unicode="&#x2013;" horiz-adv-x="952" 
d="M0 531v182h952v-182h-952z" />
    <glyph glyph-name="emdash" unicode="&#x2014;" horiz-adv-x="1285" 
d="M0 531v182h1285v-182h-1285z" />
    <glyph glyph-name="uni2015" unicode="&#x2015;" horiz-adv-x="1285" 
d="M0 531v182h1285v-182h-1285z" />
    <glyph glyph-name="quoteleft" unicode="&#x2018;" horiz-adv-x="397" 
d="M210 1400h101l-81 -231h89v-250h-228v227z" />
    <glyph glyph-name="quoteright" unicode="&#x2019;" horiz-adv-x="384" 
d="M187 919h-101l81 231h-89v250h228v-227z" />
    <glyph glyph-name="quotesinglbase" unicode="&#x201a;" horiz-adv-x="384" 
d="M187 -231h-101l81 231h-89v250h228v-227z" />
    <glyph glyph-name="quotedblleft" unicode="&#x201c;" horiz-adv-x="722" 
d="M210 1417h101l-81 -231h89v-250h-228v227zM534 1417h101l-81 -231h89v-250h-228v227z" />
    <glyph glyph-name="quotedblright" unicode="&#x201d;" horiz-adv-x="709" 
d="M187 919h-101l81 231h-89v250h228v-227zM512 919h-101l81 231h-89v250h228v-227z" />
    <glyph glyph-name="quotedblbase" unicode="&#x201e;" horiz-adv-x="709" 
d="M187 -231h-101l81 231h-89v250h228v-227zM512 -231h-101l81 231h-89v250h228v-227z" />
    <glyph glyph-name="dagger" unicode="&#x2020;" horiz-adv-x="732" 
d="M288 0l-53 510l50 260l-223 -55v230l222 -57l-49 326h263l-50 -326l222 57v-230l-221 55l48 -260l-51 -510h-158z" />
    <glyph glyph-name="daggerdbl" unicode="&#x2021;" horiz-adv-x="772" 
d="M255 -118l49 323l-222 -56v229l222 -55l-49 225l49 225l-222 -55v229l222 -56l-49 323h263l-50 -323l222 56v-229l-221 55l48 -225l-48 -225l221 55v-229l-222 56l50 -323h-263z" />
    <glyph glyph-name="bullet" unicode="&#x2022;" horiz-adv-x="562" 
d="M281 338q-88 0 -143 64t-55 154t55 154t143 64q89 0 143.5 -64t54.5 -154t-54.5 -154t-143.5 -64z" />
    <glyph glyph-name="ellipsis" unicode="&#x2026;" horiz-adv-x="1130" 
d="M75 0v250h228v-250h-228zM451 0v250h228v-250h-228zM827 0v250h228v-250h-228z" />
    <glyph glyph-name="perthousand" unicode="&#x2030;" horiz-adv-x="2267" 
d="M366 628q-96 0 -163 52.5t-101.5 144t-34.5 209.5q0 179 77.5 286.5t221.5 107.5q143 0 220.5 -107.5t77.5 -286.5q0 -118 -34.5 -209.5t-101.5 -144t-162 -52.5zM366 785q60 0 88 65t28 184q0 120 -28.5 178.5t-87.5 58.5t-88 -58.5t-29 -178.5q0 -119 28 -184t89 -65z
M325 0l732 1400h179l-730 -1400h-181zM1204 -28q-96 0 -163 52.5t-101.5 144t-34.5 209.5q0 179 77.5 286.5t221.5 107.5q143 0 220.5 -107.5t77.5 -286.5q0 -118 -34.5 -209.5t-101.5 -144t-162 -52.5zM1204 129q60 0 88 65t28 184q0 120 -28.5 178.5t-87.5 58.5t-88 -58.5
t-29 -178.5q0 -119 28 -184t89 -65zM1901 -28q-96 0 -163 52.5t-101.5 144t-34.5 209.5q0 179 77.5 286.5t221.5 107.5q143 0 220.5 -107.5t77.5 -286.5q0 -118 -34.5 -209.5t-101.5 -144t-162 -52.5zM1901 129q60 0 88 65t28 184q0 120 -28.5 178.5t-87.5 58.5t-88 -58.5
t-29 -178.5q0 -119 28 -184t89 -65z" />
    <glyph glyph-name="minute" unicode="&#x2032;" horiz-adv-x="355" 
d="M65 1013v387h183l-57 -387h-126z" />
    <glyph glyph-name="second" unicode="&#x2033;" horiz-adv-x="622" 
d="M332 1013v387h183l-57 -387h-126zM65 1013v387h183l-57 -387h-126z" />
    <glyph glyph-name="guilsinglleft" unicode="&#x2039;" horiz-adv-x="598" 
d="M280 156l-261 412l261 412h258l-261 -412l261 -412h-258z" />
    <glyph glyph-name="guilsinglright" unicode="&#x203a;" horiz-adv-x="598" 
d="M60 156l261 412l-261 412h258l261 -412l-261 -412h-258z" />
    <glyph glyph-name="fraction" unicode="&#x2044;" horiz-adv-x="164" 
d="M-374 0l732 1400h179l-730 -1400h-181z" />
    <glyph glyph-name="uni2070" unicode="&#x2070;" horiz-adv-x="721" 
d="M361 744q-96 0 -163 52.5t-101.5 144t-34.5 209.5q0 179 77.5 286.5t221.5 107.5q143 0 220.5 -107.5t77.5 -286.5q0 -118 -34.5 -209.5t-101.5 -144t-162 -52.5zM361 901q60 0 88 65t28 184q0 120 -28.5 178.5t-87.5 58.5t-88 -58.5t-29 -178.5q0 -119 28 -184t89 -65z
" />
    <glyph glyph-name="uni2074" unicode="&#x2074;" horiz-adv-x="639" 
d="M338 772v152h-334l350 592h141v-465h77v-127h-77v-152h-157zM201 1008l-46 43h183v75l10 260l32 -26l-93 -195z" />
    <glyph glyph-name="uni2075" unicode="&#x2075;" horiz-adv-x="588" 
d="M256 744q-54 0 -100.5 11.5t-92.5 33.5l36 159q33 -21 67 -33.5t74 -12.5q46 0 75.5 23t29.5 69q0 48 -32.5 74.5t-92.5 26.5q-31 0 -60 -5t-55 -12l46 438h344l-13 -154h-294l95 85l-26 -257l-91 40q61 16 124 16q111 0 173 -66t62 -174q0 -125 -77 -193.5t-192 -68.5z
" />
    <glyph glyph-name="uni2076" unicode="&#x2076;" horiz-adv-x="622" 
d="M329 744q-122 0 -189 77.5t-67 211.5q0 116 46 213.5t122 173t165 124.5l103 -115q-73 -34 -140.5 -90t-110 -129.5t-42.5 -160.5l-45 66q25 55 74.5 85t113.5 30q94 0 151 -68.5t57 -173.5q0 -108 -67.5 -176t-170.5 -68zM326 888q40 0 61 29t21 71q0 43 -21 72t-61 29
q-39 0 -60.5 -29t-21.5 -72t21.5 -71.5t60.5 -28.5z" />
    <glyph glyph-name="uni2077" unicode="&#x2077;" horiz-adv-x="540" 
d="M102 772l215 679l36 -77h-302v154h460l-247 -756h-162z" />
    <glyph glyph-name="uni2078" unicode="&#x2078;" horiz-adv-x="570" 
d="M286 744q-112 0 -178 65.5t-66 167.5q0 108 66.5 173.5t177.5 65.5q110 0 176 -65.5t66 -173.5q0 -102 -65.5 -167.5t-176.5 -65.5zM286 881q38 0 58.5 31t20.5 80q0 46 -20.5 75.5t-58.5 29.5t-59.5 -29.5t-21.5 -75.5q0 -49 21.5 -80t59.5 -31zM287 1247
q27 0 41.5 23.5t14.5 56.5q0 36 -14.5 58.5t-41.5 22.5q-28 0 -42.5 -22.5t-14.5 -58.5q0 -33 15 -56.5t42 -23.5zM286 1136q-94 0 -149.5 56t-55.5 146q0 80 52 143t157 63q104 0 153 -63t49 -143q0 -90 -55.5 -146t-150.5 -56z" />
    <glyph glyph-name="uni2079" unicode="&#x2079;" horiz-adv-x="622" 
d="M293 1544q123 0 189.5 -77.5t66.5 -211.5q0 -116 -46 -213.5t-122 -173t-165 -124.5l-103 115q73 34 140.5 90t110.5 129.5t43 160.5l44 -66q-24 -54 -73.5 -84.5t-114.5 -30.5q-94 0 -151 69t-57 173q0 109 68 176.5t170 67.5zM296 1400q-39 0 -60.5 -29t-21.5 -71
q0 -43 21.5 -72t60.5 -29q40 0 61.5 29t21.5 72q0 44 -21.5 72t-61.5 28z" />
    <glyph glyph-name="uni2080" unicode="&#x2080;" horiz-adv-x="721" 
d="M361 -144q-96 0 -163 52.5t-101.5 144t-34.5 209.5q0 179 77.5 286.5t221.5 107.5q143 0 220.5 -107.5t77.5 -286.5q0 -118 -34.5 -209.5t-101.5 -144t-162 -52.5zM361 13q60 0 88 65t28 184q0 120 -28.5 178.5t-87.5 58.5t-88 -58.5t-29 -178.5q0 -119 28 -184t89 -65z
" />
    <glyph glyph-name="uni2081" unicode="&#x2081;" horiz-adv-x="426" 
d="M156 -116v540q-21 -25 -42.5 -40t-43.5 -24l-11 149q38 17 76.5 50.5t60.5 68.5h128v-744h-168z" />
    <glyph glyph-name="uni2082" unicode="&#x2082;" horiz-adv-x="536" 
d="M57 -116l166 316q34 64 48.5 106.5t14.5 84.5q0 46 -23 74.5t-69 28.5q-34 0 -63.5 -15.5t-57.5 -38.5l-14 169q35 20 82 33.5t99 13.5q103 0 164.5 -64t61.5 -168q0 -45 -9.5 -85t-32 -88.5t-61.5 -118.5l-102 -186l-22 92h248v-154h-430z" />
    </font>
</defs>
</svg>
