<svg width="43" height="43" viewBox="0 0 43 43" fill="none" xmlns="http://www.w3.org/2000/svg">
<path d="M34.9375 6.71875H8.0625C7.32037 6.71875 6.71875 7.32037 6.71875 8.0625V34.9375C6.71875 35.6796 7.32037 36.2812 8.0625 36.2812H34.9375C35.6796 36.2812 36.2812 35.6796 36.2812 34.9375V8.0625C36.2812 7.32037 35.6796 6.71875 34.9375 6.71875Z" stroke="white" stroke-width="2" stroke-linecap="round" stroke-linejoin="round"/>
<path d="M29.5625 4.03125V9.40625" stroke="white" stroke-width="2" stroke-linecap="round" stroke-linejoin="round"/>
<path d="M13.4375 4.03125V9.40625" stroke="white" stroke-width="2" stroke-linecap="round" stroke-linejoin="round"/>
<path d="M6.71875 14.7812H36.2812" stroke="white" stroke-width="2" stroke-linecap="round" stroke-linejoin="round"/>
<path d="M15.4531 21.5H20.1562L17.4688 24.8594C17.911 24.8586 18.3467 24.967 18.737 25.175C19.1274 25.383 19.4604 25.6841 19.7065 26.0516C19.9525 26.4191 20.1041 26.8417 20.1477 27.2818C20.1914 27.7219 20.1257 28.166 19.9565 28.5747C19.7874 28.9834 19.52 29.344 19.178 29.6245C18.8361 29.9051 18.4302 30.0969 17.9964 30.183C17.5626 30.2691 17.1142 30.2467 16.691 30.118C16.2679 29.9892 15.8831 29.7581 15.5707 29.4449" stroke="white" stroke-width="2" stroke-linecap="round" stroke-linejoin="round"/>
<path d="M24.1875 23.5156L26.875 21.5V30.2344" stroke="white" stroke-width="2" stroke-linecap="round" stroke-linejoin="round"/>
</svg>
