<svg width="43" height="43" viewBox="0 0 43 43" fill="none" xmlns="http://www.w3.org/2000/svg">
<path d="M10.7503 36.2811C10.3939 36.2811 10.0521 36.1395 9.80012 35.8875C9.54812 35.6355 9.40654 35.2937 9.40654 34.9373V27.765C8.66935 28.1167 7.85233 28.2674 7.03818 28.2018C6.34883 28.1511 5.67911 27.9491 5.0767 27.6102C4.47428 27.2713 3.95398 26.8037 3.55282 26.2408C3.15166 25.678 2.8795 25.0336 2.75572 24.3535C2.63193 23.6735 2.65957 22.9745 2.83665 22.3064C3.01373 21.6382 3.33591 21.0173 3.78026 20.4879C4.22461 19.9584 4.7802 19.5334 5.40749 19.2431C6.03478 18.9528 6.71835 18.8043 7.40955 18.8082C8.10076 18.8122 8.78259 18.9684 9.40654 19.2658V12.0936C9.40654 11.7372 9.54812 11.3954 9.80012 11.1434C10.0521 10.8914 10.3939 10.7498 10.7503 10.7498H18.5944C18.2428 10.0126 18.0921 9.19559 18.1577 8.38145C18.2084 7.69209 18.4103 7.02237 18.7493 6.41996C19.0882 5.81755 19.5557 5.29724 20.1186 4.89608C20.6815 4.49492 21.3259 4.22276 22.006 4.09898C22.686 3.9752 23.385 4.00283 24.0531 4.17991C24.7212 4.357 25.3421 4.67918 25.8716 5.12352C26.4011 5.56787 26.8261 6.12346 27.1164 6.75075C27.4067 7.37804 27.5552 8.06161 27.5512 8.75282C27.5473 9.44402 27.3911 10.1259 27.0937 10.7498H34.9378C35.2942 10.7498 35.636 10.8914 35.888 11.1434C36.14 11.3954 36.2815 11.7372 36.2815 12.0936V19.2658C35.5443 18.9142 34.7273 18.7635 33.9132 18.8291C33.2238 18.8798 32.5541 19.0817 31.9517 19.4207C31.3493 19.7596 30.829 20.2271 30.4278 20.79C30.0267 21.3529 29.7545 21.9973 29.6307 22.6773C29.5069 23.3574 29.5346 24.0563 29.7117 24.7245C29.8887 25.3926 30.2109 26.0135 30.6553 26.543C31.0996 27.0725 31.6552 27.4975 32.2825 27.7878C32.9098 28.0781 33.5934 28.2266 34.2846 28.2226C34.9758 28.2187 35.6576 28.0625 36.2815 27.765V34.9373C36.2815 35.2937 36.14 35.6355 35.888 35.8875C35.636 36.1395 35.2942 36.2811 34.9378 36.2811H10.7503Z" stroke="white" stroke-width="2" stroke-linecap="round" stroke-linejoin="round"/>
</svg>
