<svg width="21" height="31" viewBox="0 0 21 31" fill="none" xmlns="http://www.w3.org/2000/svg">
<path d="M4.40582 29.6562L19.3702 17.2046C19.6733 16.9524 19.9172 16.6366 20.0847 16.2796C20.2521 15.9225 20.3389 15.533 20.3389 15.1386C20.3389 14.7443 20.2521 14.3548 20.0847 13.9977C19.9172 13.6407 19.6733 13.3248 19.3702 13.0726L4.40582 0.621098C4.01339 0.294769 3.53614 0.0869329 3.02991 0.0219044C2.52369 -0.0431242 2.00941 0.0373428 1.54724 0.253892C1.08507 0.470441 0.694115 0.814117 0.420114 1.24472C0.146113 1.67532 0.000392902 2.17505 0 2.68543V27.5918C0.000392902 28.1022 0.146113 28.6019 0.420114 29.0325C0.694115 29.4632 1.08507 29.8068 1.54724 30.0234C2.00941 30.2399 2.52369 30.3204 3.02991 30.2554C3.53614 30.1903 4.01339 29.9825 4.40582 29.6562Z" fill="white"/>
</svg>
